<svg width="67" height="36" viewBox="0 0 67 36" fill="none" xmlns="http://www.w3.org/2000/svg">
<path fill-rule="evenodd" clip-rule="evenodd" d="M33.3113 14.5816L27.1519 12.17C26.4425 11.9131 25.6907 11.7999 24.9387 11.8368C24.1679 11.8451 23.4022 11.9645 22.6643 12.1914L33.0517 16.2568C33.6732 16.0132 34.0277 15.7338 34.1152 15.4184C34.2027 15.103 33.9348 14.8241 33.3113 14.5816ZM19.5163 13.7944C19.428 14.0965 19.6954 14.3698 20.3183 14.6141L26.4789 17.026C27.129 17.2746 27.8172 17.404 28.5117 17.4081C29.345 17.4018 30.1724 17.2657 30.9653 17.0046L20.5809 12.9366C19.9537 13.2041 19.5996 13.491 19.5163 13.7944ZM67 12.522L33.3856 0L0 12.4356L33.5019 25L45.1336 20.6668L38.7003 15.3347L51.0627 18.4562L67 12.522ZM36.5809 15.4261C36.4077 15.7443 36.1551 16.0103 35.8486 16.1972C35.4508 16.4619 35.0265 16.683 34.583 16.8567L35.7391 17.3099L33.6561 18.055L32.4999 17.6018C31.8911 17.8033 31.2686 17.9594 30.6375 18.0688C29.9472 18.1909 29.2499 18.2675 28.5499 18.298C27.8441 18.3306 27.1368 18.3051 26.435 18.2216C25.7644 18.1465 25.1058 17.9851 24.475 17.7413L18.3144 15.3301C17.8536 15.1884 17.4372 14.9264 17.1066 14.5701C16.9171 14.3535 16.8658 14.0457 16.9745 13.7776C17.1362 13.4572 17.386 13.1917 17.6932 13.0134C18.1043 12.7444 18.5411 12.5184 18.9968 12.3389L18.1535 12.0084L20.2602 11.2518L21.1308 11.572C21.7294 11.388 22.3382 11.2404 22.9539 11.1299C23.6401 11.0038 24.3339 10.9259 25.0306 10.8968C25.7435 10.8648 26.4579 10.8903 27.1669 10.9733C27.847 11.0466 28.5151 11.2081 29.155 11.454L35.3141 13.8655C35.7703 14.002 36.1804 14.2645 36.4991 14.624C36.6749 14.8535 36.7066 15.1651 36.5809 15.4264V15.4261ZM44.2078 11.5197C43.9279 11.4748 43.5028 11.4103 42.9324 11.3259C42.3619 11.2416 41.7604 11.1512 41.1277 11.0546C40.4971 10.9583 39.8939 10.867 39.3241 10.7833C38.7543 10.6997 38.3289 10.6339 38.0487 10.5892L32.5795 9.71227L32.4729 9.75048L44.126 14.3122L42.5197 14.8873L27.0397 8.8269L28.676 8.24303C29.0043 8.29397 29.5037 8.3704 30.1742 8.4723C30.8447 8.57419 31.5501 8.68526 32.2906 8.8055C33.0306 8.92447 33.7361 9.03643 34.407 9.14138C35.077 9.24532 35.5662 9.32556 35.8794 9.38097L42.1176 10.3825L42.1949 10.3531C42.0763 10.2415 41.9049 10.0745 41.6798 9.85632C41.4548 9.63813 41.2226 9.40428 40.981 9.15705C40.7394 8.90982 40.5038 8.67444 40.2822 8.4486C40.0605 8.22277 39.8857 8.05426 39.7701 7.94154C39.7412 7.91784 39.6576 7.83645 39.521 7.69736C39.3845 7.55827 39.2209 7.39167 39.0424 7.20367C38.8638 7.01567 38.6579 6.80665 38.4422 6.58311C38.2265 6.35957 38.0247 6.15667 37.83 5.96828C37.6353 5.7799 37.4808 5.62017 37.3468 5.48338C37.2685 5.39297 37.1827 5.30961 37.0903 5.23424L38.752 4.64005L54.2321 10.6993L52.6217 11.2744L40.9229 6.6966L40.8197 6.73481C40.9064 6.83607 41.0474 6.98242 41.2376 7.17616C41.4278 7.36989 41.6337 7.57126 41.8498 7.78105C42.0658 7.99083 42.2692 8.19564 42.453 8.39243C42.5889 8.54551 42.7329 8.69093 42.8844 8.82805C42.9102 8.85174 42.9845 8.92319 43.1031 9.04241C43.2216 9.16163 43.357 9.3034 43.5119 9.47038C43.6669 9.63737 43.8338 9.81429 44.0086 10.0096C44.1834 10.2048 44.3462 10.3829 44.5011 10.548C44.656 10.713 44.7911 10.8601 44.9002 10.9809C45.0094 11.1016 45.0784 11.1754 45.1069 11.1998L44.2078 11.5197Z" fill="#59B9FF"/>
<path fill-rule="evenodd" clip-rule="evenodd" d="M33 34L12 26.5797V18L33 25.4192V34Z" fill="#1C80C9"/>
<path fill-rule="evenodd" clip-rule="evenodd" d="M49.7941 30.6113C50.5182 30.2472 50.9502 29.5231 50.9011 28.7557C50.8519 27.9884 50.3307 27.3176 49.5654 27.0368V18.3504L44 17L47.8233 19.4973V27.1352C47.1763 27.4632 46.7584 28.0825 46.7202 28.7699C46.682 29.4572 47.0291 30.1136 47.6363 30.5026L46.3055 33.7736C46.0578 34.4628 46.3357 35.2217 46.9832 35.6242C47.9993 36.0948 49.5171 36.2605 50.5844 35.2958C50.9565 34.9599 51.0928 34.4557 50.9359 33.9948L49.7941 30.6113Z" fill="#7EC9FF"/>
<path fill-rule="evenodd" clip-rule="evenodd" d="M50.6747 19.5113V26.0777C51.4166 26.3307 51.8966 27.0403 51.8485 27.813C51.8485 27.841 52.3271 27.6595 52.3271 27.686L55 26.9112V18L50.6747 19.5113ZM45.9989 26.3742V21.2037L35 25.0873V34L45.5112 30.2896C44.1662 28.6831 45.0693 26.6991 45.9989 26.3742Z" fill="#7EC9FF"/>
</svg>
