<svg width="240" height="176" viewBox="0 0 240 176" fill="none" xmlns="http://www.w3.org/2000/svg">
<g clip-path="url(#clip0)">
<path d="M220.108 58.3965C215.518 58.3965 211.798 62.5255 211.798 67.6189V74.0902H213.788L214.94 71.6925L214.652 74.0902H227.445L228.492 71.9105L228.23 74.0902H229.671V69.0091C229.671 63.1479 225.389 58.3965 220.108 58.3965Z" fill="#2F2E41"/>
<path d="M212.302 88.3153L210.922 93.6064L223.805 93.1463L223.574 88.7754C223.574 88.7754 213.913 86.245 212.302 88.3153Z" fill="#FFB9B9"/>
<path d="M199.88 109.48L204.021 118.681L207.931 113.85L204.711 107.409L199.88 109.48Z" fill="#FFB9B9"/>
<path d="M210.232 143.296L210.692 153.878H215.753L215.063 143.296H210.232Z" fill="#FFB9B9"/>
<path d="M204.251 99.8187L206.551 107.41L210.002 144.217C210.002 144.217 213.222 145.137 215.523 143.987L215.983 138.926L216.903 109.941C216.903 109.941 221.274 107.64 220.814 104.42C220.354 101.199 219.204 96.8281 219.204 96.8281L204.251 99.8187Z" fill="#2F2E41"/>
<path d="M211.382 151.347H210.002C210.002 151.347 206.091 155.488 204.711 155.948C203.331 156.408 196.199 160.319 201.95 161.009C207.701 161.699 211.382 158.709 211.382 158.709C211.382 158.709 213.222 159.859 215.753 158.939C218.283 158.019 216.903 155.258 216.903 155.258C216.903 155.258 215.619 151.051 215.571 151.084C215.523 151.117 214.143 153.188 211.382 151.347Z" fill="#2F2E41"/>
<path d="M218.514 72.6728C221.436 72.6728 223.805 70.304 223.805 67.3818C223.805 64.4597 221.436 62.0908 218.514 62.0908C215.591 62.0908 213.223 64.4597 213.223 67.3818C213.223 70.304 215.591 72.6728 218.514 72.6728Z" fill="#FFB9B9"/>
<path d="M226.335 74.2836L223.901 76.3126L223.574 76.5841L223.344 79.3446H214.373C214.373 79.3446 215.597 78.2841 216.733 77.1868C216.756 77.1615 216.781 77.1339 216.809 77.1085C216.963 76.959 217.101 76.821 217.225 76.6968C217.292 76.6278 217.356 76.5633 217.414 76.5035C217.508 76.4046 217.6 76.3103 217.692 76.216C217.693 76.2147 217.694 76.2131 217.695 76.2114C217.93 75.965 218.151 75.7054 218.357 75.4338L218.359 75.4315C218.415 75.3583 218.466 75.2823 218.514 75.2038C219.204 74.0536 217.593 71.7531 217.593 71.7531L222.654 69.2227C222.831 71.7163 224.941 73.3818 225.884 74.0076C226.16 74.1893 226.335 74.2836 226.335 74.2836Z" fill="#FFB9B9"/>
<path d="M238.757 112.931C235.307 113.851 235.077 106.95 235.077 106.95L230.367 97.5304C229.372 95.5401 228.688 93.409 228.338 91.2114L227.255 84.4053L226.926 84.7987V84.801L226.335 85.0955L222.742 79.3444L221.734 77.7341V75.8937L225.185 74.2834H226.565C226.565 74.2834 226.595 74.2788 226.648 74.2742C227.283 74.2075 231.414 73.9314 231.626 77.9641C231.709 79.5468 231.702 80.858 231.659 81.8869C231.528 84.7333 231.798 87.5839 232.461 90.355C232.705 91.3542 232.971 92.2219 233.236 92.6869C234.157 94.2972 237.377 106.95 237.377 106.95C237.377 106.95 242.208 112.011 238.757 112.931Z" fill="#FFB9B9"/>
<path d="M217.593 76.8137L216.721 78.4033L216.206 79.3442L213.683 83.9451C213.683 83.9451 212.967 84.5294 211.808 85.284C209.88 86.5377 206.719 88.2584 203.561 88.546C198.5 89.0061 203.331 72.673 203.331 72.673C203.331 72.673 204.941 66.2317 207.241 66.9219C209.542 67.612 207.701 69.9124 206.091 74.2833C204.481 78.6541 205.861 83.485 205.861 83.485C205.861 83.485 210.692 80.4944 213.222 78.194C214.541 76.9955 215.672 76.6711 216.452 76.6366H216.455C216.713 76.6224 216.972 76.6425 217.225 76.6964C217.352 76.7217 217.475 76.7611 217.593 76.8137Z" fill="#FFB9B9"/>
<path d="M218.357 75.4336C218.348 75.4589 218.24 75.6636 217.414 76.5033C217.751 76.1673 218.066 75.81 218.357 75.4336Z" fill="#D0CDE1"/>
<path d="M227.14 84.5199L226.926 84.8005L223.575 90.616C223.575 90.616 219.204 89.0057 215.983 88.5456C215.098 88.3929 214.188 88.5077 213.369 88.8753C212.549 89.2429 211.859 89.8466 211.384 90.6091L212.302 86.9353L211.808 85.2836C211.75 85.0904 211.684 84.8764 211.612 84.6349C210.922 82.3344 213.453 79.804 213.453 79.804L216.452 76.6362H216.455C216.713 76.6221 216.972 76.6422 217.225 76.6961C217.101 76.8203 216.963 76.9583 216.809 77.1078C216.781 77.1332 216.756 77.1608 216.733 77.1861C215.852 78.0855 216.31 78.3363 216.721 78.403C216.858 78.4239 216.996 78.4308 217.133 78.4237C218.093 78.5617 220.193 77.7197 221.734 77.0158C222.783 76.5373 223.574 76.1232 223.574 76.1232L225.583 74.2829L225.884 74.0068C226.16 74.1886 226.335 74.2829 226.335 74.2829H226.565C226.565 74.2829 226.595 74.2783 226.648 74.2737L225.6 75.0509C225.079 75.438 224.662 75.9493 224.389 76.5383C224.115 77.1274 223.994 77.7755 224.035 78.4237L227.14 84.5199Z" fill="#D0CDE1"/>
<path d="M214.603 91.0762L211.24 92.3896C211.24 92.3896 192.979 85.3252 190.218 91.0762C187.458 96.8273 199.88 110.63 199.88 110.63L205.401 108.099L203.101 101.198C203.101 101.198 216.443 112.47 221.964 106.259C227.485 100.048 223.805 91.2655 223.805 91.2655C223.805 91.2655 220.354 88.5458 214.603 91.0762Z" fill="#2F2E41"/>
<path d="M204.941 116.151L202.87 117.761C202.87 117.761 204.711 125.123 204.021 126.273C203.331 127.423 201.95 130.644 204.481 130.414C207.011 130.184 209.772 126.273 210.002 124.893C210.232 123.512 211.842 119.372 211.842 119.372C211.842 119.372 214.603 112.93 212.532 112.7C210.462 112.47 207.164 112.316 207.164 112.316L204.941 116.151Z" fill="#2F2E41"/>
<path d="M222.47 60.9375C222.07 60.4005 221.552 59.9628 220.956 59.6585C220.359 59.3542 219.701 59.1913 219.031 59.1826H218.868C215.723 59.1826 213.173 62.0291 213.173 65.5405V65.5405H214.227L214.397 64.2448L214.646 65.5405H220.898L221.422 64.4443L221.291 65.5405H222.52C223.094 68.3905 222.27 71.2406 220.047 74.0907H222.142L223.189 71.8983L222.927 74.0907H226.921L227.707 69.0482C227.707 65.2719 225.512 62.0697 222.47 60.9375Z" fill="#2F2E41"/>
<path d="M202.375 42.639C212.85 42.639 221.341 34.1479 221.341 23.6735C221.341 13.1992 212.85 4.70801 202.375 4.70801C191.901 4.70801 183.41 13.1992 183.41 23.6735C183.41 34.1479 191.901 42.639 202.375 42.639Z" fill="#FF6584"/>
<path d="M155.7 112.157C155.35 114.948 155.062 117.634 154.827 120.196H162.447C162.724 117.503 163.072 114.824 163.49 112.157H155.7Z" fill="#3F3D56"/>
<path d="M161.932 140.54C161.768 137.873 161.702 135.194 161.734 132.501H154.01C153.884 135.581 153.835 138.285 153.826 140.54H161.932Z" fill="#3F3D56"/>
<path d="M175.107 69.3392C181.459 52.4173 187.682 41.0398 187.682 41.0398L181.202 37.1846C174.454 47.3594 169.355 58.3577 165.504 69.3392H175.107Z" fill="#3F3D56"/>
<path d="M154.641 122.329C154.403 125.195 154.23 127.886 154.106 130.368H161.774C161.848 127.688 162.004 125.009 162.243 122.329H154.641Z" fill="#3F3D56"/>
<path d="M157.202 101.986C156.734 104.737 156.328 107.422 155.978 110.025H163.836C164.292 107.318 164.807 104.638 165.38 101.986H157.202Z" fill="#3F3D56"/>
<path d="M164.772 71.4727C163.868 74.1607 163.036 76.8402 162.275 79.5113H171.526C172.441 76.7282 173.378 74.0425 174.317 71.4727H164.772Z" fill="#3F3D56"/>
<path d="M159.178 91.8145C158.581 94.5388 158.047 97.2183 157.576 99.8531H165.852C166.47 97.1283 167.134 94.4488 167.846 91.8145H159.178Z" fill="#3F3D56"/>
<path d="M153.829 142.672C153.854 146.136 153.969 148.086 153.969 148.086L153.887 149.644H162.91C162.549 147.34 162.273 145.016 162.084 142.672H153.829Z" fill="#3F3D56"/>
<path d="M161.678 81.6436C160.938 84.3481 160.264 87.0276 159.657 89.6822H168.431C169.199 86.9342 170.001 84.2546 170.836 81.6436H161.678Z" fill="#3F3D56"/>
<path d="M226.343 48.4113C223.131 41.6979 219.901 36.6906 216.752 33.0007L215.107 35.5273L215.247 31.3304C214.167 30.1875 213.007 29.1234 211.775 28.1461L209.528 31.5989L209.693 26.6615C208.355 25.7969 206.923 25.0897 205.424 24.554L203.762 27.1075L203.862 24.0836C198.128 22.6445 193.416 24.6157 190.686 26.2988L189.047 26.0542L191.858 24.8801C191.602 23.3086 191.165 21.7721 190.556 20.301L185.67 19.5721L189.471 17.9845C188.732 16.5967 187.895 15.2635 186.966 13.9952L182.812 13.3756L185.594 12.2139C182.533 8.45082 178.19 4.37001 172.167 0C172.167 0 171.721 3.89243 171.473 9.31952L175.553 13.493L171.361 12.409C171.317 14.0758 171.298 15.8306 171.319 17.621L174.328 20.6988L171.368 19.9334C171.411 21.3024 171.481 22.6785 171.583 24.0391C169.02 23.42 166.346 23.4352 163.791 24.0836L163.892 27.1076L162.23 24.554C160.73 25.0897 159.298 25.7969 157.961 26.6615L158.125 31.5989L155.878 28.1461C154.646 29.1234 153.486 30.1875 152.406 31.3304L152.546 35.5273L150.902 33.0007C147.753 36.6906 144.522 41.698 141.311 48.4113C141.311 48.4113 145.219 48.1474 150.602 47.4124L153.971 42.6467L153.661 46.9649C155.309 46.7073 157.038 46.4092 158.795 46.0659L161.28 42.5513L161.061 45.6004C163.512 45.0706 165.97 44.4499 168.292 43.727L169.96 45.278L166.977 44.656C166.3 46.097 165.791 47.6115 165.461 49.1692L169.079 52.5339L165.046 51.6929C164.87 53.2554 164.807 54.8284 164.856 56.4L167.93 59.2601L164.979 58.6447C165.375 63.4795 166.648 69.3009 169.144 76.3118C169.144 76.3118 171.713 73.3539 174.987 69.0187L173.983 63.2695L176.827 66.5341C177.806 65.1844 178.814 63.7479 179.809 62.2597L179.069 58.0198L181.077 60.325C183.093 57.177 184.979 53.875 186.368 50.73C188.163 53.0724 190.086 55.3141 192.129 57.4447L193.667 54.8029L193.737 59.1064C194.995 60.3806 196.256 61.6018 197.471 62.7432L199.649 59.0018L199.745 64.8373C203.777 68.4789 206.857 70.9005 206.857 70.9005C207.989 63.5452 208.143 57.5882 207.623 52.7653L204.84 53.925L207.322 50.5375C207.074 48.9848 206.716 47.4517 206.249 45.9502L202.446 47.5351L204.255 45.0665C205.032 45.2539 205.811 45.4318 206.592 45.6004L206.374 42.5513L208.858 46.0659C210.615 46.4092 212.345 46.7073 213.992 46.9649L213.682 42.6467L217.051 47.4124C222.434 48.1474 226.343 48.4113 226.343 48.4113Z" fill="#F8B932"/>
<path d="M142.199 107.221C142.447 109.191 142.649 111.087 142.815 112.895H137.437C137.241 110.994 136.996 109.103 136.701 107.221H142.199Z" fill="#3F3D56"/>
<path d="M137.8 127.254C137.916 125.372 137.962 123.481 137.94 121.58H143.392C143.481 123.754 143.516 125.663 143.522 127.254H137.8Z" fill="#3F3D56"/>
<path d="M128.5 76.9963C124.016 65.0513 119.624 57.0202 119.624 57.0202L124.198 54.2988C128.961 61.481 132.561 69.2446 135.279 76.9963H128.5Z" fill="#3F3D56"/>
<path d="M142.947 114.4C143.115 116.423 143.237 118.323 143.324 120.075H137.912C137.859 118.183 137.749 116.292 137.58 114.4H142.947Z" fill="#3F3D56"/>
<path d="M141.139 100.041C141.47 101.982 141.756 103.878 142.003 105.715H136.456C136.134 103.804 135.771 101.913 135.366 100.041H141.139Z" fill="#3F3D56"/>
<path d="M135.796 78.501C136.434 80.3984 137.021 82.2898 137.558 84.1753H131.028C130.382 82.2108 129.721 80.315 129.058 78.501H135.796Z" fill="#3F3D56"/>
<path d="M139.744 92.8604C140.166 94.7834 140.543 96.6748 140.875 98.5347H135.033C134.597 96.6113 134.128 94.7199 133.626 92.8604H139.744Z" fill="#3F3D56"/>
<path d="M143.52 128.761C143.502 131.206 143.421 132.582 143.421 132.582L143.479 133.682H137.11C137.365 132.056 137.559 130.415 137.693 128.761H143.52Z" fill="#3F3D56"/>
<path d="M137.979 85.6807C138.502 87.5898 138.977 89.4812 139.406 91.355H133.213C132.67 89.4152 132.104 87.5238 131.515 85.6807H137.979Z" fill="#3F3D56"/>
<path d="M92.3336 62.2235C94.6006 57.4847 96.8809 53.9501 99.1038 51.3454L100.265 53.1289L100.166 50.1664C100.928 49.3597 101.747 48.6085 102.617 47.9186L104.203 50.3559L104.087 46.8707C105.031 46.2604 106.042 45.7612 107.1 45.383L108.273 47.1856L108.202 45.051C112.25 44.0351 115.576 45.4266 117.503 46.6146L118.66 46.442L116.676 45.6132C116.857 44.504 117.165 43.4193 117.595 42.3809L121.044 41.8664L118.361 40.7458C118.882 39.7661 119.473 38.8251 120.129 37.9298L123.061 37.4924L121.097 36.6724C123.258 34.0161 126.324 31.1355 130.576 28.0508C130.576 28.0508 130.89 30.7984 131.065 34.6293L128.186 37.5752L131.144 36.8101C131.175 37.9866 131.188 39.2253 131.174 40.4891L129.05 42.6617L131.139 42.1214C131.109 43.0878 131.06 44.0591 130.988 45.0196C132.796 44.5826 134.684 44.5933 136.488 45.051L136.417 47.1855L137.59 45.383C138.648 45.7612 139.659 46.2604 140.603 46.8707L140.487 50.3559L142.073 47.9186C142.943 48.6085 143.762 49.3597 144.524 50.1664L144.425 53.1289L145.586 51.3454C147.809 53.9501 150.089 57.4847 152.356 62.2235C152.356 62.2235 149.597 62.0372 145.797 61.5184L143.419 58.1544L143.638 61.2025C142.475 61.0207 141.255 60.8102 140.014 60.5679L138.26 58.087L138.415 60.2393C136.685 59.8653 134.95 59.4272 133.31 58.9169L132.133 60.0118L134.239 59.5727C134.717 60.5899 135.076 61.6589 135.309 62.7585L132.755 65.1336L135.602 64.5399C135.726 65.6429 135.771 66.7533 135.736 67.8626L133.566 69.8815L135.649 69.4471C135.37 72.8599 134.471 76.9691 132.709 81.918C132.709 81.918 130.896 79.8301 128.585 76.77L129.293 72.7117L127.286 75.0161C126.595 74.0634 125.884 73.0493 125.181 71.9989L125.703 69.006L124.286 70.6332C122.873 68.4721 121.625 66.2081 120.551 63.8602C119.284 65.5137 117.926 67.096 116.485 68.6L115.399 66.7352L115.349 69.773C114.461 70.6724 113.572 71.5344 112.714 72.3402L111.176 69.6992L111.108 73.8183C108.263 76.3889 106.089 78.0983 106.089 78.0983C105.289 72.9063 105.18 68.7014 105.548 65.2969L107.512 66.1156L105.76 63.7243C105.935 62.6283 106.188 61.5462 106.517 60.4863L109.202 61.605L107.925 59.8625C107.377 59.9947 106.827 60.1203 106.275 60.2393L106.43 58.087L104.676 60.5679C103.435 60.8102 102.215 61.0207 101.052 61.2025L101.271 58.1544L98.8925 61.5184C95.0929 62.0372 92.3336 62.2235 92.3336 62.2235Z" fill="#F8B932"/>
<path d="M176.428 120.481C176.428 120.481 178.648 135.893 167.991 145.005C161.095 150.901 151.262 151.866 143.193 147.716C140.196 146.176 136.998 143.835 133.945 140.303C132.792 138.965 131.73 137.551 130.765 136.072C129.364 133.92 128.128 131.665 127.07 129.326C126.403 127.869 125.766 126.31 125.159 124.649C125.042 124.33 124.933 124.017 124.829 123.707C119.296 107.261 130.058 102.463 139.937 101.313C142.01 101.08 144.095 100.975 146.181 100.998C148.63 101.01 151.076 101.183 153.503 101.515C153.503 101.515 153.705 101.517 154.07 101.532C155.952 101.619 157.827 101.827 159.682 102.155C167.314 103.495 178.996 107.647 176.428 120.481Z" fill="#5683FF"/>
<path d="M108.486 124.65C103.621 138.003 96.6165 144.547 90.4517 147.717C82.3819 151.867 72.549 150.902 65.6527 145.006C64.992 144.441 64.3656 143.838 63.777 143.199C62.569 141.891 61.519 140.446 60.6487 138.893C59.5477 136.917 58.701 134.81 58.129 132.622C57.5004 130.222 57.139 127.759 57.0515 125.279C56.9754 123.678 57.0305 122.074 57.2162 120.482C54.8132 108.467 64.8961 104.063 72.4553 102.45C74.6412 101.987 76.8586 101.688 79.089 101.556C79.758 101.518 80.1415 101.516 80.1415 101.516C84.1176 100.98 88.1389 100.86 92.1398 101.16C102.579 102.002 115.082 106.545 108.486 124.65Z" fill="#5683FF"/>
<path opacity="0.2" d="M79.0891 101.556L58.129 132.622C57.5004 130.221 57.139 127.759 57.0515 125.279L72.4553 102.45C74.6412 101.987 76.8586 101.688 79.0891 101.556Z" fill="white"/>
<path opacity="0.2" d="M92.1399 101.159L63.7771 143.198C62.5691 141.891 61.5191 140.445 60.6488 138.892L86.2002 101.022C88.1811 100.96 90.1639 101.006 92.1399 101.159Z" fill="white"/>
<path opacity="0.2" d="M146.181 100.999L127.07 129.327C126.403 127.87 125.766 126.311 125.159 124.65C125.042 124.331 124.934 124.018 124.829 123.708L139.937 101.314C142.01 101.081 144.095 100.976 146.181 100.999Z" fill="white"/>
<path opacity="0.2" d="M159.682 102.155L133.945 140.303C132.792 138.965 131.73 137.552 130.765 136.072L154.07 101.532C155.952 101.619 157.827 101.828 159.682 102.155Z" fill="white"/>
<path d="M181.43 119.022H176.66C178.771 101.716 153.503 101.516 153.503 101.516C149.497 100.976 145.445 100.859 141.415 101.167V101.099H92.021V101.151C88.0592 100.863 84.0782 100.985 80.1415 101.516C80.1415 101.516 54.8732 101.716 56.9843 119.022H52.4227V123.607H57.0259C56.9798 128.588 57.9685 138.434 65.6527 145.005C72.5491 150.901 82.382 151.866 90.4517 147.716C96.6165 144.546 103.621 138.002 108.486 124.649C110.152 120.075 110.599 116.366 110.168 113.364C114.601 113.141 119.043 113.141 123.476 113.364C123.045 116.366 123.492 120.075 125.159 124.649C130.023 138.002 137.028 144.546 143.192 147.716C151.262 151.866 161.095 150.901 167.991 145.005C175.676 138.434 176.664 128.588 176.618 123.607H181.43V119.022ZM106.289 124.735C101.66 137.442 94.9075 143.386 89.1158 146.128C82.0693 149.465 73.6724 148.537 67.6243 143.621C60.3132 137.677 59.3399 128.542 59.367 123.886C59.3795 122.036 59.2961 120.189 59.2232 118.341C58.6459 103.812 80.4458 103.641 80.4458 103.641C80.4458 103.641 115.982 98.1309 106.289 124.735ZM123.668 112.321C119.111 111.967 114.533 111.967 109.976 112.321C108.832 107.217 104.979 104.341 100.402 102.766H133.242C128.665 104.341 124.812 107.217 123.668 112.321H123.668ZM174.646 118.274C174.571 120.139 174.488 122.005 174.5 123.87C174.529 128.569 173.546 137.79 166.168 143.786C160.066 148.748 151.596 149.686 144.487 146.322C138.639 143.556 131.819 137.558 127.145 124.726C117.364 97.8766 153.228 103.439 153.228 103.439C153.228 103.439 175.228 103.61 174.646 118.274Z" fill="#3F3D56"/>
<path d="M84.183 148.564C84.1594 148.525 83.6029 147.596 83.4099 145.666C83.233 143.896 83.3468 140.912 84.8943 136.749C87.8261 128.864 84.2187 122.502 84.1818 122.438L84.3598 122.335C85.0544 123.664 85.5561 125.086 85.8499 126.556C86.5765 129.981 86.3119 133.542 85.0872 136.821C82.1604 144.693 84.3363 148.42 84.3586 148.456L84.183 148.564Z" fill="#3F3D56"/>
<path d="M83.0366 121.975C83.7751 121.975 84.3737 121.376 84.3737 120.638C84.3737 119.899 83.7751 119.301 83.0366 119.301C82.2982 119.301 81.6996 119.899 81.6996 120.638C81.6996 121.376 82.2982 121.975 83.0366 121.975Z" fill="#3F3D56"/>
<path d="M87.2534 126.911C87.9919 126.911 88.5905 126.313 88.5905 125.574C88.5905 124.836 87.9919 124.237 87.2534 124.237C86.515 124.237 85.9164 124.836 85.9164 125.574C85.9164 126.313 86.515 126.911 87.2534 126.911Z" fill="#3F3D56"/>
<path d="M84.3736 130.203C85.1121 130.203 85.7107 129.605 85.7107 128.866C85.7107 128.128 85.1121 127.529 84.3736 127.529C83.6352 127.529 83.0366 128.128 83.0366 128.866C83.0366 129.605 83.6352 130.203 84.3736 130.203Z" fill="white"/>
<path d="M87.8705 132.98C88.6089 132.98 89.2075 132.381 89.2075 131.643C89.2075 130.904 88.6089 130.306 87.8705 130.306C87.1321 130.306 86.5335 130.904 86.5335 131.643C86.5335 132.381 87.1321 132.98 87.8705 132.98Z" fill="white"/>
<path d="M83.3451 137.299C84.0836 137.299 84.6822 136.7 84.6822 135.962C84.6822 135.224 84.0836 134.625 83.3451 134.625C82.6067 134.625 82.0081 135.224 82.0081 135.962C82.0081 136.7 82.6067 137.299 83.3451 137.299Z" fill="#3F3D56"/>
<path d="M84.9907 148.613C84.9907 148.613 83.6537 145.322 87.6648 142.854L84.9907 148.613Z" fill="#3F3D56"/>
<path d="M83.3463 148.553C83.3463 148.553 82.7378 145.053 78.0282 145.083L83.3463 148.553Z" fill="#3F3D56"/>
<path d="M70.6213 71.1164C70.6187 71.3317 70.5636 71.5432 70.4608 71.7324C70.358 71.9216 70.2107 72.0829 70.0315 72.2023L69.9815 72.2335H47.723L47.8126 71.9605C47.8272 71.9126 49.457 67.1837 56.6702 68.0966C57.3496 67.8631 63.9896 65.6956 67.964 68.132C69.7272 69.2116 70.6213 70.2161 70.6213 71.1164Z" fill="#F1F1F1"/>
<path d="M111.887 87.1643C111.884 87.3796 111.829 87.591 111.726 87.7802C111.624 87.9694 111.476 88.1307 111.297 88.2502L111.247 88.2814H88.9886L89.0783 88.0084C89.0929 87.9605 90.7226 83.2316 97.9358 84.1444C98.6152 83.911 105.255 81.7435 109.23 84.1798C110.993 85.2594 111.887 86.264 111.887 87.1643Z" fill="#F1F1F1"/>
<path d="M121.265 22.5569C121.263 22.7722 121.208 22.9836 121.105 23.1728C121.002 23.362 120.855 23.5233 120.676 23.6427L120.626 23.674H98.3672L98.4568 23.4009C98.4714 23.353 100.101 18.6241 107.314 19.537C107.994 19.3036 114.634 17.1361 118.608 19.5724C120.371 20.652 121.265 21.6565 121.265 22.5569Z" fill="#F1F1F1"/>
<path d="M6.03547 130.05L7.93976 135.944C7.93976 135.944 6.21683 141.476 7.03296 147.642C7.84909 153.808 7.39568 153.989 7.39568 153.989C7.39568 153.989 -0.758709 153.52 0.0574144 155.968C0.873538 158.417 8.84658 156.982 8.84658 156.982C8.84658 156.982 10.3778 156.57 11.1033 152.217C11.8287 147.864 13.6526 139.481 13.6526 139.481L11.9375 131.566L6.03547 130.05Z" fill="#FFB8B8"/>
<path d="M6.67019 117.99C6.67019 117.99 3.22433 119.26 3.22433 122.706C3.22433 126.151 4.49386 130.867 5.30999 131.139C6.12611 131.411 11.5669 135.129 12.5644 132.499C13.5619 129.869 6.67019 117.99 6.67019 117.99Z" fill="#D0CDE1"/>
<path d="M35.5066 158.796L42.761 158.524L48.2927 157.708L46.6604 163.149L33.2397 163.512L35.5066 158.796Z" fill="#FFB8B8"/>
<path d="M45.9349 159.521C45.9349 159.521 45.8442 157.526 45.0281 157.617C44.212 157.708 44.756 156.892 45.4815 156.71C46.2069 156.529 48.2926 155.622 48.2926 155.622L56.5445 156.166C56.5445 156.166 61.8947 160.882 59.7183 163.421C57.542 165.96 51.9198 163.693 51.9198 163.693L45.8442 163.783C45.8442 163.783 43.8492 160.519 45.9349 159.521Z" fill="#2F2E41"/>
<path d="M49.1995 152.539L51.829 164.871L57.27 163.783L54.1868 148.367L50.9222 146.645L49.1995 152.539Z" fill="#FFB8B8"/>
<path d="M17.9147 150.997C17.9147 150.997 2.68036 157.889 9.11867 164.871C9.11867 164.871 9.11867 168.135 15.9197 167.501C22.7207 166.866 35.8694 165.687 36.5042 166.05C37.1389 166.413 39.1339 158.886 37.411 158.523C35.6881 158.161 33.6024 157.707 33.6024 157.707C33.6024 157.707 35.416 157.435 35.416 155.894C35.416 155.894 40.5848 155.531 42.1264 152.266C43.6679 149.002 45.1188 146.554 45.1188 146.554L48.6554 155.622C48.6554 155.622 52.736 148.095 55.8191 151.45C55.8191 151.45 52.3733 129.778 49.7435 127.783C47.1138 125.788 45.3002 125.153 42.8518 126.967C40.4035 128.78 38.1364 133.405 38.1364 133.405L17.9147 150.997Z" fill="#2F2E41"/>
<path d="M54.2775 161.154C53.6436 161.632 53.038 162.147 52.4639 162.695C51.7385 163.421 50.741 163.058 50.6503 162.695C50.5596 162.332 48.9274 162.967 48.746 165.597C48.5647 168.227 47.4765 170.584 50.3783 171.401C53.2801 172.217 53.1894 174.574 53.1894 174.574C55.4854 175.676 58.1204 175.838 60.5345 175.028C64.6151 173.668 63.1642 172.217 63.1642 172.217L57.7234 163.239C57.7234 163.239 56.2725 160.519 54.2775 161.154Z" fill="#2F2E41"/>
<path d="M39.2246 116.177C39.2246 116.177 47.9299 119.169 48.8367 119.804C49.7435 120.439 53.8241 123.431 51.8292 124.973C49.8342 126.514 48.2019 127.512 44.3027 126.333C40.4034 125.154 36.0508 121.527 36.0508 121.527L39.2246 116.177Z" fill="#FFB8B8"/>
<path d="M30.5192 112.186C30.5192 112.186 33.9651 111.551 36.4135 112.911C38.8618 114.272 40.9475 116.992 40.9475 116.992C40.9475 116.992 38.6805 121.798 37.0482 122.524C35.416 123.249 32.4235 119.622 32.4235 119.622L30.5192 112.186Z" fill="#D0CDE1"/>
<path d="M14.6501 109.556C14.6501 109.556 14.7408 113.093 14.378 113.456C14.0153 113.818 18.7307 124.519 23.8995 119.803C29.0683 115.088 25.0783 113.184 25.0783 113.184C25.0783 113.184 23.1741 109.647 23.2647 109.284C23.3554 108.922 14.8315 109.284 14.8315 109.284L14.6501 109.556Z" fill="#FFB8B8"/>
<path opacity="0.1" d="M14.6501 109.556C14.6501 109.556 14.7408 113.093 14.378 113.456C14.0153 113.818 18.7307 124.519 23.8995 119.803C29.0683 115.088 25.0783 113.184 25.0783 113.184C25.0783 113.184 23.1741 109.647 23.2647 109.284C23.3554 108.922 14.8315 109.284 14.8315 109.284L14.6501 109.556Z" fill="black"/>
<path d="M16.101 116.358C16.101 116.358 19.5469 118.715 20.9978 118.171C22.4487 117.627 24.2623 115.27 24.4436 115.088C24.625 114.907 33.8744 133.496 33.8744 133.496C33.8744 133.496 32.5142 140.297 28.887 142.292C25.2598 144.287 25.3051 145.874 24.8517 147.234C24.3983 148.595 18.5494 142.927 18.5494 142.927L14.8315 127.149V117.537L16.101 116.358Z" fill="#D0CDE1"/>
<path d="M14.6047 112.14C14.6047 112.14 13.4712 111.914 12.2924 112.911C11.1135 113.909 5.58201 117.626 5.85406 117.989C6.12611 118.352 8.57447 123.521 9.11856 125.606C9.66265 127.692 10.4788 127.964 10.4788 127.964C10.4788 127.964 12.3831 129.324 12.111 130.322C11.839 131.319 10.6601 144.921 12.2924 147.914C13.9246 150.906 13.6526 153.536 13.1992 154.261C12.7458 154.987 17.5518 152.176 17.5518 152.176C17.5518 152.176 24.7156 146.372 25.2597 144.649C25.6115 143.465 25.8544 142.251 25.9851 141.022C25.9851 141.022 21.3604 122.705 19.9095 121.707C18.4586 120.71 14.6047 112.14 14.6047 112.14Z" fill="#575A89"/>
<path d="M24.5669 112.212C24.5669 112.212 26.8013 110.826 27.2547 111.188C27.7081 111.551 31.9701 111.551 32.0608 111.914C32.1514 112.277 32.3328 120.982 35.4159 123.249C38.4991 125.516 36.5041 130.05 36.5041 130.05L38.7711 133.677C38.7711 133.677 26.4388 145.555 27.2547 141.476C27.3 141.249 27.2547 141.204 27.2547 141.204C27.2547 141.204 22.4486 120.619 23.0834 119.531C23.7182 118.443 24.8715 113.508 24.5669 112.212Z" fill="#575A89"/>
<path d="M43.5772 120.529L31.2447 124.791C31.2447 124.791 19.0028 127.693 20.9071 131.048C22.8114 134.403 30.882 128.691 30.882 128.691L47.3048 126.85C47.3048 126.85 53.8241 121.345 43.5772 120.529Z" fill="#FFB8B8"/>
<path d="M19.5468 112.912C23.2529 112.912 26.2572 109.908 26.2572 106.202C26.2572 102.496 23.2529 99.4912 19.5468 99.4912C15.8408 99.4912 12.8365 102.496 12.8365 106.202C12.8365 109.908 15.8408 112.912 19.5468 112.912Z" fill="#FFB8B8"/>
<path d="M14.203 99.5318L12.9617 99.0804C12.9617 99.0804 15.5571 96.4851 19.1681 96.7108L18.1525 95.6952C18.1525 95.6952 20.635 94.7924 22.8919 97.1621C24.0783 98.4078 25.4509 99.8721 26.3066 101.522H27.636L27.0811 102.631L29.023 103.741L27.0299 103.541C27.2187 104.499 27.1537 105.49 26.8414 106.415L26.39 107.656C26.39 107.656 24.5845 104.046 24.5845 103.594V104.723C24.5845 104.723 23.3432 103.707 23.3432 103.03L22.6662 103.82L22.3276 102.579L18.1525 103.82L18.8295 102.804L16.2341 103.143L17.2497 101.902C17.2497 101.902 14.3158 103.368 14.203 104.61C14.0901 105.851 12.6232 107.431 12.6232 107.431L11.9461 106.302C11.9461 106.302 10.9305 101.224 14.203 99.5318Z" fill="#2F2E41"/>
<path d="M25.5091 106.565C25.5091 106.565 25.7296 108.096 24.6709 109.001C24.3332 109.285 23.9187 109.462 23.48 109.51C23.0414 109.558 22.5983 109.475 22.2072 109.27C21.8563 109.087 21.5444 108.836 21.2885 108.534C21.174 108.401 21.0685 108.261 20.9726 108.114C20.8334 107.9 20.7106 107.676 20.6055 107.443C20.5392 107.299 20.4759 107.144 20.4156 106.979C20.404 106.947 20.3932 106.916 20.3829 106.885C19.8332 105.251 20.9024 104.775 21.8838 104.66C22.0897 104.637 22.2969 104.627 22.5041 104.629C22.7475 104.63 22.9904 104.648 23.2315 104.681C23.2315 104.681 23.2516 104.681 23.2878 104.682C23.4748 104.691 23.6611 104.712 23.8454 104.744C24.6036 104.877 25.7642 105.29 25.5091 106.565Z" fill="#428DFF"/>
<path d="M18.7592 106.98C18.2759 108.306 17.58 108.956 16.9676 109.271C16.5764 109.476 16.1334 109.559 15.6948 109.511C15.2561 109.463 14.8416 109.286 14.5039 109.002C14.4382 108.946 14.376 108.886 14.3175 108.822C14.1975 108.692 14.0932 108.549 14.0067 108.395C13.8973 108.198 13.8132 107.989 13.7564 107.772C13.6939 107.533 13.658 107.288 13.6494 107.042C13.6418 106.883 13.6473 106.724 13.6657 106.565C13.427 105.372 14.4287 104.934 15.1797 104.774C15.3968 104.728 15.6171 104.698 15.8387 104.685C15.9052 104.681 15.9433 104.681 15.9433 104.681C16.3383 104.628 16.7378 104.616 17.1353 104.646C18.1724 104.73 19.4145 105.181 18.7592 106.98Z" fill="#428DFF"/>
<path opacity="0.2" d="M15.8388 104.686L13.7565 107.772C13.694 107.533 13.6581 107.289 13.6494 107.042L15.1797 104.774C15.3969 104.728 15.6172 104.699 15.8388 104.686Z" fill="white"/>
<path opacity="0.2" d="M17.1354 104.645L14.3176 108.822C14.1976 108.692 14.0933 108.548 14.0068 108.394L16.5453 104.632C16.7421 104.625 16.9391 104.63 17.1354 104.645Z" fill="white"/>
<path opacity="0.2" d="M22.5041 104.629L20.6055 107.443C20.5392 107.299 20.4759 107.144 20.4156 106.979C20.404 106.947 20.3932 106.916 20.3829 106.885L21.8838 104.661C22.0897 104.637 22.2969 104.627 22.5041 104.629Z" fill="white"/>
<path opacity="0.2" d="M23.8454 104.745L21.2885 108.534C21.174 108.401 21.0685 108.261 20.9726 108.114L23.2878 104.683C23.4748 104.691 23.6611 104.712 23.8454 104.745Z" fill="white"/>
<path d="M26.006 106.42H25.5321C25.7419 104.701 23.2315 104.681 23.2315 104.681C22.8336 104.628 22.431 104.616 22.0306 104.647V104.64H17.1235V104.645C16.7299 104.616 16.3344 104.629 15.9433 104.681C15.9433 104.681 13.433 104.701 13.6427 106.42H13.1895V106.876H13.6468C13.6422 107.371 13.7405 108.349 14.5039 109.002C14.8416 109.286 15.2561 109.463 15.6948 109.511C16.1335 109.559 16.5765 109.475 16.9676 109.271C17.5801 108.956 18.276 108.306 18.7592 106.979C18.906 106.625 18.9634 106.24 18.9264 105.858C19.3668 105.836 19.8081 105.836 20.2485 105.858C20.2115 106.24 20.2689 106.625 20.4156 106.979C20.8989 108.306 21.5948 108.956 22.2072 109.271C22.5984 109.475 23.0414 109.559 23.4801 109.511C23.9187 109.463 24.3332 109.286 24.671 109.002C25.4344 108.349 25.5326 107.371 25.528 106.876H26.006V106.42ZM18.541 106.988C18.0811 108.25 17.4103 108.841 16.8349 109.113C16.4916 109.277 16.1091 109.34 15.7314 109.296C15.3537 109.252 14.9961 109.103 14.6997 108.864C13.9734 108.274 13.8767 107.366 13.8794 106.904C13.8807 106.72 13.8724 106.536 13.8651 106.353C13.8078 104.909 15.9735 104.892 15.9735 104.892C15.9735 104.892 19.504 104.345 18.541 106.988ZM20.2676 105.755C19.8148 105.72 19.36 105.72 18.9073 105.755C18.7937 105.248 18.4108 104.962 17.9561 104.805H21.2187C20.764 104.962 20.3812 105.248 20.2676 105.755ZM25.3321 106.346C25.3246 106.531 25.3163 106.717 25.3176 106.902C25.3205 107.369 25.2228 108.285 24.4898 108.881C24.1909 109.121 23.8302 109.272 23.4491 109.317C23.0681 109.362 22.6822 109.298 22.3358 109.133C21.7548 108.858 21.0774 108.262 20.6129 106.987C19.6413 104.32 23.2042 104.872 23.2042 104.872C23.2042 104.872 25.3898 104.889 25.3321 106.346Z" fill="#3F3D56"/>
</g>
<defs>
<clipPath id="clip0">
<rect width="240" height="175.534" fill="white"/>
</clipPath>
</defs>
</svg>
