<svg width="240" height="169" viewBox="0 0 240 169" fill="none" xmlns="http://www.w3.org/2000/svg">
<path d="M33.8836 156.352C33.8338 156.271 32.6595 154.31 32.2525 150.239C31.8791 146.504 32.1192 140.208 35.3843 131.426C41.57 114.788 33.9588 101.364 33.881 101.231L34.2565 101.013C34.2762 101.047 36.2402 104.469 37.4005 109.919C38.9335 117.145 38.3752 124.657 35.7912 131.577C29.6161 148.186 34.2069 156.049 34.254 156.126L33.8836 156.352Z" fill="#3F3D56"/>
<path d="M31.4647 100.253C33.0227 100.253 34.2857 98.9903 34.2857 97.4323C34.2857 95.8743 33.0227 94.6113 31.4647 94.6113C29.9068 94.6113 28.6438 95.8743 28.6438 97.4323C28.6438 98.9903 29.9068 100.253 31.4647 100.253Z" fill="#F8B932"/>
<path d="M40.3617 110.669C41.9196 110.669 43.1826 109.406 43.1826 107.848C43.1826 106.29 41.9196 105.027 40.3617 105.027C38.8037 105.027 37.5407 106.29 37.5407 107.848C37.5407 109.406 38.8037 110.669 40.3617 110.669Z" fill="#3F3D56"/>
<path d="M34.2857 117.613C35.8437 117.613 37.1067 116.35 37.1067 114.792C37.1067 113.234 35.8437 111.971 34.2857 111.971C32.7277 111.971 31.4647 113.234 31.4647 114.792C31.4647 116.35 32.7277 117.613 34.2857 117.613Z" fill="#F8B932"/>
<path d="M41.6636 123.472C43.2216 123.472 44.4846 122.209 44.4846 120.651C44.4846 119.093 43.2216 117.83 41.6636 117.83C40.1056 117.83 38.8427 119.093 38.8427 120.651C38.8427 122.209 40.1056 123.472 41.6636 123.472Z" fill="#F8B932"/>
<path d="M32.1157 132.586C33.6737 132.586 34.9367 131.323 34.9367 129.765C34.9367 128.207 33.6737 126.944 32.1157 126.944C30.5578 126.944 29.2948 128.207 29.2948 129.765C29.2948 131.323 30.5578 132.586 32.1157 132.586Z" fill="#3F3D56"/>
<path d="M35.5878 156.456C35.5878 156.456 32.7668 149.512 41.2297 144.304L35.5878 156.456Z" fill="#3F3D56"/>
<path d="M32.1183 156.33C32.1183 156.33 30.8345 148.946 20.8977 149.009L32.1183 156.33Z" fill="#3F3D56"/>
<path d="M80.2893 33.6348C80.2893 33.6348 80.5063 39.2767 79.2043 40.5787C77.9023 41.8807 85.7143 46.4377 85.7143 46.4377L90.2712 39.2767C90.2712 39.2767 88.5352 36.2387 88.9692 33.6348H80.2893Z" fill="#FFB9B9"/>
<path d="M66.2929 148.318V153.743L73.0199 154.177L72.5859 148.318H66.2929Z" fill="#FFB9B9"/>
<path d="M103.183 148.318V153.743L96.4557 154.177L96.8897 148.318H103.183Z" fill="#FFB9B9"/>
<path d="M69.7649 88.2102C69.7649 88.2102 66.2929 100.796 68.4629 110.778C68.4629 110.778 68.4629 115.118 69.3309 115.986C70.1989 116.854 70.4159 116.854 69.7649 117.288C69.1139 117.722 67.8119 118.807 68.4629 119.458C69.1139 120.109 69.3309 120.977 68.8969 121.194C68.4629 121.411 68.0289 121.845 68.4629 122.713C68.8969 123.581 66.2929 146.8 66.2929 146.8C66.2929 146.8 63.6889 149.621 66.2929 149.838C68.8969 150.055 73.2369 151.14 73.6709 149.404C74.1048 147.668 77.5768 123.147 77.5768 123.147C77.5768 123.147 78.0108 122.496 78.8788 121.411C79.7468 120.326 79.3128 119.892 79.3128 119.675C79.3128 119.458 83.8698 98.8431 83.8698 98.8431C83.8698 98.8431 90.5967 122.279 91.2477 122.713C91.8987 123.147 92.1157 123.147 92.1157 123.798C92.1157 124.449 91.6817 124.883 92.1157 125.534C92.3528 125.883 92.5702 126.245 92.7667 126.619C92.7667 126.619 93.8517 150.923 96.0217 150.923C98.1916 150.923 104.702 150.489 104.051 148.536C103.4 146.583 102.532 147.017 102.532 147.017C102.532 147.017 104.051 127.053 100.362 121.194V116.42C100.362 115.986 100.579 115.769 100.362 115.335C100.145 114.901 101.013 89.0782 96.8897 87.5592C92.7667 86.0402 69.7649 88.2102 69.7649 88.2102Z" fill="#D0CDE1"/>
<path d="M70.4159 152.224C70.4159 152.224 69.3309 150.488 67.812 150.488C66.293 150.488 65.208 152.224 65.208 152.224L61.302 157.649C61.302 157.649 55.6601 161.121 57.8301 163.074C60 165.027 65.859 163.942 65.859 163.942C65.859 163.942 70.6329 160.47 71.2839 160.253C71.9349 160.036 73.6709 158.951 73.8879 158.734C74.1049 158.517 73.4539 150.705 72.8029 151.248C72.1519 151.79 71.7179 153.526 70.4159 152.224Z" fill="#2F2E41"/>
<path d="M99.0598 152.224C99.0598 152.224 100.145 150.488 101.664 150.488C103.183 150.488 104.268 152.224 104.268 152.224L108.174 157.649C108.174 157.649 113.816 161.121 111.646 163.074C109.476 165.027 103.617 163.942 103.617 163.942C103.617 163.942 98.8428 160.47 98.1918 160.253C97.5408 160.036 95.8048 158.951 95.5878 158.734C95.3708 158.517 96.0218 150.705 96.6728 151.248C97.3238 151.79 97.7578 153.526 99.0598 152.224Z" fill="#2F2E41"/>
<path d="M84.0868 36.7811C88.4012 36.7811 91.8987 33.2836 91.8987 28.9692C91.8987 24.6547 88.4012 21.1572 84.0868 21.1572C79.7724 21.1572 76.2749 24.6547 76.2749 28.9692C76.2749 33.2836 79.7724 36.7811 84.0868 36.7811Z" fill="#FFB9B9"/>
<path d="M82.0253 41.2293C82.0253 41.2293 80.5655 41.3098 79.8849 39.0996L68.3544 47.5223L73.1284 60.3252C73.1284 60.3252 73.7794 67.2691 73.1284 69.2221C72.4774 71.1751 72.0434 72.6941 72.0434 73.5621C72.0434 74.4301 67.4864 88.9689 69.2224 89.6199C70.9584 90.2709 97.4322 92.8749 98.0832 88.5349C98.7342 84.195 95.9132 55.5512 95.9132 55.5512L100.47 44.4843L89.3913 37.2373C89.3913 37.2373 88.3183 41.6633 82.0253 41.2293Z" fill="#3F3D56"/>
<path d="M67.5949 61.3018L66.727 68.0287C66.727 68.0287 63.255 75.1896 64.123 84.7376L63.906 91.0305C63.906 91.0305 61.736 101.88 66.076 102.314C70.4159 102.748 67.5949 90.3795 67.5949 90.3795L69.9819 84.5206L72.4254 71.4872L73.6709 62.3867L67.5949 61.3018Z" fill="#FFB9B9"/>
<path d="M71.5008 47.1973L68.3544 47.5228C68.3544 47.5228 66.2929 62.8211 66.9439 62.8211C67.5949 62.8211 74.9728 64.5571 75.1898 64.1231C75.4068 63.6891 71.5008 47.1973 71.5008 47.1973Z" fill="#3F3D56"/>
<path d="M78.0594 20.9612L76.6511 20.4491C76.6511 20.4491 79.5956 17.5047 83.6923 17.7607L82.5401 16.6085C82.5401 16.6085 85.3565 15.5844 87.9169 18.2728C89.2629 19.686 90.8202 21.3472 91.791 23.2185H93.2991L92.6697 24.4774L94.8727 25.7363L92.6115 25.5101C92.8257 26.597 92.752 27.7209 92.3977 28.7705L91.8856 30.1787C91.8856 30.1787 89.8372 26.082 89.8372 25.5699V26.8501C89.8372 26.8501 88.429 25.6979 88.429 24.9298L87.6609 25.826L87.2768 24.4177L82.5401 25.826L83.3082 24.6738L80.3637 25.0579L81.5159 23.6496C81.5159 23.6496 78.1874 25.3139 78.0594 26.7221C77.9314 28.1303 76.2671 29.9226 76.2671 29.9226L75.499 28.6424C75.499 28.6424 74.3468 22.8815 78.0594 20.9612Z" fill="#2F2E41"/>
<path d="M98.5714 132.26C106.571 132.26 113.056 123.03 113.056 111.645C113.056 100.26 106.571 91.0303 98.5714 91.0303C90.5718 91.0303 84.0868 100.26 84.0868 111.645C84.0868 123.03 90.5718 132.26 98.5714 132.26Z" fill="#3F3D56"/>
<path opacity="0.1" d="M98.5714 132.26C106.571 132.26 113.056 123.03 113.056 111.645C113.056 100.26 106.571 91.0303 98.5714 91.0303C90.5718 91.0303 84.0868 100.26 84.0868 111.645C84.0868 123.03 90.5718 132.26 98.5714 132.26Z" fill="black"/>
<path d="M100.524 132.26C108.524 132.26 115.009 123.03 115.009 111.645C115.009 100.26 108.524 91.0303 100.524 91.0303C92.5248 91.0303 86.0398 100.26 86.0398 111.645C86.0398 123.03 92.5248 132.26 100.524 132.26Z" fill="#3F3D56"/>
<path opacity="0.1" d="M100.524 129.327C107.386 129.327 112.948 121.411 112.948 111.646C112.948 101.881 107.386 93.9648 100.524 93.9648C93.6633 93.9648 88.1013 101.881 88.1013 111.646C88.1013 121.411 93.6633 129.327 100.524 129.327Z" fill="black"/>
<path d="M100.417 120.162V118.087C99.3676 118.066 98.2822 117.696 97.6492 117.182L98.0833 115.806C98.8356 116.37 99.748 116.679 100.688 116.689C101.972 116.689 102.841 115.847 102.841 114.675C102.841 113.545 102.135 112.847 100.797 112.23C98.9515 111.408 97.8119 110.463 97.8119 108.675C97.8119 106.969 98.8792 105.675 100.543 105.367V103.291H101.665V105.284C102.501 105.296 103.317 105.545 104.017 106.004L103.564 107.36C102.893 106.901 102.098 106.657 101.285 106.661C99.8922 106.661 99.3676 107.606 99.3676 108.428C99.3676 109.497 100.037 110.031 101.611 110.771C103.474 111.634 104.414 112.703 104.414 114.532C104.414 116.155 103.42 117.676 101.556 118.025V120.162H100.417Z" fill="#F8B932"/>
<path d="M103.617 58.915V67.812C103.617 67.812 103.834 78.6619 100.145 85.3888L98.1918 89.7288C98.1918 89.7288 94.2858 102.315 91.8988 98.4087C89.5119 94.5028 94.5028 87.9928 94.5028 87.9928L97.3273 71.475L95.5878 60.434L103.617 58.915Z" fill="#FFB9B9"/>
<path d="M96.2387 43.9424L100.47 44.4849C100.47 44.4849 105.57 60.0002 104.268 60.6512C102.966 61.3022 94.5027 61.7362 94.5027 61.7362L96.2387 43.9424Z" fill="#3F3D56"/>
<path d="M227.631 10.9062H128.246V122.17H227.631V10.9062Z" fill="#F2F2F2"/>
<path d="M146.474 94.7875H143.87V94.3535H146.474V94.7875ZM141.266 94.7875H138.662V94.3535H141.266V94.7875ZM136.058 94.7875H133.454V94.3535H136.058V94.7875ZM130.85 94.7875H128.246V94.3535H130.85V94.7875Z" fill="#E6E6E6"/>
<path d="M182.929 74.2133H180.325V73.7793H182.929V74.2133ZM177.722 74.2133H175.118V73.7793H177.722V74.2133ZM172.514 74.2133H169.91V73.7793H172.514V74.2133ZM167.306 74.2133H164.702V73.7793H167.306V74.2133ZM162.098 74.2133H159.494V73.7793H162.098V74.2133ZM156.89 74.2133H154.286V73.7793H156.89V74.2133ZM151.682 74.2133H149.078V73.7793H151.682V74.2133ZM146.474 74.2133H143.87V73.7793H146.474V74.2133ZM141.266 74.2133H138.662V73.7793H141.266V74.2133ZM136.058 74.2133H133.454V73.7793H136.058V74.2133ZM130.85 74.2133H128.246V73.7793H130.85V74.2133Z" fill="#E6E6E6"/>
<path d="M235.009 61.4106H232.405V60.9766H235.009V61.4106ZM229.801 61.4106H227.197V60.9766H229.801V61.4106ZM224.593 61.4106H221.989V60.9766H224.593V61.4106ZM219.385 61.4106H216.781V60.9766H219.385V61.4106ZM214.177 61.4106H211.573V60.9766H214.177V61.4106ZM208.969 61.4106H206.365V60.9766H208.969V61.4106ZM203.761 61.4106H201.157V60.9766H203.761V61.4106ZM198.553 61.4106H195.949V60.9766H198.553V61.4106ZM193.345 61.4106H190.741V60.9766H193.345V61.4106ZM188.137 61.4106H185.533V60.9766H188.137V61.4106ZM182.929 61.4106H180.325V60.9766H182.929V61.4106ZM177.722 61.4106H175.118V60.9766H177.722V61.4106ZM172.514 61.4106H169.91V60.9766H172.514V61.4106ZM167.306 61.4106H164.702V60.9766H167.306V61.4106ZM162.098 61.4106H159.494V60.9766H162.098V61.4106ZM156.89 61.4106H154.286V60.9766H156.89V61.4106ZM151.682 61.4106H149.078V60.9766H151.682V61.4106ZM146.474 61.4106H143.87V60.9766H146.474V61.4106ZM141.266 61.4106H138.662V60.9766H141.266V61.4106ZM136.058 61.4106H133.454V60.9766H136.058V61.4106ZM130.85 61.4106H128.246V60.9766H130.85V61.4106Z" fill="#E6E6E6"/>
<path d="M147.993 0.167969H147.559V1.46996H147.993V0.167969Z" fill="#E6E6E6"/>
<path d="M147.993 98.7777H147.559V96.2169H147.993V98.7777ZM147.993 93.6562H147.559V91.0954H147.993V93.6562ZM147.993 88.5347H147.559V85.9742H147.993V88.5347ZM147.993 83.4134H147.559V80.8527H147.993V83.4134ZM147.993 78.2919H147.559V75.7312H147.993V78.2919ZM147.993 73.1704H147.559V70.6099H147.993V73.1704ZM147.993 68.0491H147.559V65.4884H147.993V68.0491ZM147.993 62.9276H147.559V60.3669H147.993V62.9276ZM147.993 57.8061H147.559V55.2456H147.993V57.8061ZM147.993 52.6848H147.559V50.1241H147.993V52.6848ZM147.993 47.5633H147.559V45.0027H147.993V47.5633ZM147.993 42.442H147.559V39.8812H147.993V42.442ZM147.993 37.3206H147.559V34.7598H147.993V37.3206ZM147.993 32.1991H147.559V29.6384H147.993V32.1991ZM147.993 27.0777H147.559V24.5169H147.993V27.0777ZM147.993 21.9563H147.559V19.3955H147.993V21.9563ZM147.993 16.8348H147.559V14.2741H147.993V16.8348ZM147.993 11.7134H147.559V9.15264H147.993V11.7134ZM147.993 6.592H147.559V4.03125H147.993V6.592Z" fill="#E6E6E6"/>
<path d="M147.993 101.338H147.559V102.64H147.993V101.338Z" fill="#E6E6E6"/>
<path d="M185.75 0.167969H185.316V1.46996H185.75V0.167969Z" fill="#E6E6E6"/>
<path d="M185.75 79.0077H185.316V76.423H185.75V79.0077ZM185.75 73.8385H185.316V71.254H185.75V73.8385ZM185.75 68.6693H185.316V66.0848H185.75V68.6693ZM185.75 63.5004H185.316V60.9157H185.75V63.5004ZM185.75 58.3312H185.316V55.7467H185.75V58.3312ZM185.75 53.1621H185.316V50.5775H185.75V53.1621ZM185.75 47.993H185.316V45.4084H185.75V47.993ZM185.75 42.8239H185.316V40.2394H185.75V42.8239ZM185.75 37.6548H185.316V35.0702H185.75V37.6548ZM185.75 32.4857H185.316V29.9011H185.75V32.4857ZM185.75 27.3166H185.316V24.7321H185.75V27.3166ZM185.75 22.1475H185.316V19.563H185.75V22.1475ZM185.75 16.9784H185.316V14.3938H185.75V16.9784ZM185.75 11.8093H185.316V9.22474H185.75V11.8093ZM185.75 6.64026H185.316V4.05566H185.75V6.64026Z" fill="#E6E6E6"/>
<path d="M185.75 81.5918H185.316V82.8938H185.75V81.5918Z" fill="#E6E6E6"/>
<path d="M128.246 122.17L147.993 102.423L156.998 111.429L185.533 82.8936L203.978 101.338L237.179 68.1377V122.17H128.246Z" fill="#5683FF"/>
<path d="M237.396 122.387H128.029V0H237.396V122.387ZM128.463 121.953H236.962V0.433996H128.463V121.953Z" fill="#3F3D56"/>
<path d="M147.776 96.9984C149.334 96.9984 150.597 95.7354 150.597 94.1774C150.597 92.6194 149.334 91.3564 147.776 91.3564C146.218 91.3564 144.955 92.6194 144.955 94.1774C144.955 95.7354 146.218 96.9984 147.776 96.9984Z" fill="#3F3D56"/>
<path d="M185.533 76.8177C187.091 76.8177 188.354 75.5547 188.354 73.9968C188.354 72.4388 187.091 71.1758 185.533 71.1758C183.975 71.1758 182.712 72.4388 182.712 73.9968C182.712 75.5547 183.975 76.8177 185.533 76.8177Z" fill="#3F3D56"/>
<path d="M237.179 64.014C238.737 64.014 240 62.751 240 61.193C240 59.6351 238.737 58.3721 237.179 58.3721C235.621 58.3721 234.358 59.6351 234.358 61.193C234.358 62.751 235.621 64.014 237.179 64.014Z" fill="#3F3D56"/>
<path d="M217.432 17.3594C216.17 17.7256 214.477 18.0085 213.223 17.9083L214.859 18.9949L137.882 75.9915L138.14 76.3403L215.117 19.3437L215.679 21.2256C215.949 19.9973 216.714 18.4603 217.432 17.3594Z" fill="#3F3D56"/>
</svg>
