<svg width="240" height="179" viewBox="0 0 240 179" fill="none" xmlns="http://www.w3.org/2000/svg">
<g clip-path="url(#clip0)">
<path d="M225.344 12.5361H17.8825V145.272H225.344V12.5361Z" fill="#3F3D56"/>
<path d="M219.445 36.5029H126.038V145.15H219.445V36.5029Z" fill="#F2F2F2"/>
<path d="M9.51052 137.844C12.3496 143.109 18.3751 145.37 18.3751 145.37C18.3751 145.37 19.7976 139.093 16.9585 133.828C14.1194 128.563 8.09394 126.303 8.09394 126.303C8.09394 126.303 6.67146 132.579 9.51052 137.844Z" fill="#3F3D56"/>
<path d="M11.462 136.113C16.5877 139.197 18.5617 145.322 18.5617 145.322C18.5617 145.322 12.2254 146.447 7.09975 143.363C1.97407 140.28 0 134.154 0 134.154C0 134.154 6.33631 133.029 11.462 136.113Z" fill="#5683FF"/>
<path d="M214.283 46.6123H157.632V48.8966H214.283V46.6123Z" fill="white"/>
<path d="M214.283 51.6367H157.632V53.921H214.283V51.6367Z" fill="white"/>
<path d="M176.82 56.6631H157.632V58.9474H176.82V56.6631Z" fill="white"/>
<path d="M97.9509 115.192H41.2994V117.477H97.9509V115.192Z" fill="white"/>
<path d="M97.9509 120.218H41.2994V122.502H97.9509V120.218Z" fill="white"/>
<path d="M60.4878 125.243H41.2994V127.528H60.4878V125.243Z" fill="white"/>
<path d="M201.009 74.6338H144.358V76.9181H201.009V74.6338Z" fill="white"/>
<path d="M201.009 79.6602H144.358V81.9445H201.009V79.6602Z" fill="white"/>
<path d="M201.009 84.5762H144.358V86.8605H201.009V84.5762Z" fill="white"/>
<path d="M201.009 89.4912H144.358V91.7756H201.009V89.4912Z" fill="white"/>
<path d="M201.009 94.4082H144.358V96.6925H201.009V94.4082Z" fill="white"/>
<path d="M201.009 99.3242H144.358V101.609H201.009V99.3242Z" fill="white"/>
<path d="M201.009 104.24H144.358V106.525H201.009V104.24Z" fill="white"/>
<path d="M201.009 109.156H144.358V111.441H201.009V109.156Z" fill="white"/>
<path d="M201.009 114.073H144.358V116.358H201.009V114.073Z" fill="white"/>
<path d="M201.009 118.988H144.358V121.273H201.009V118.988Z" fill="white"/>
<path d="M201.009 123.904H144.358V126.189H201.009V123.904Z" fill="white"/>
<path d="M90.2681 78.87C90.2715 81.9476 89.585 84.9868 88.2591 87.7642C86.9331 90.5415 85.0015 92.9863 82.6063 94.9188C81.7205 95.6384 80.7757 96.2823 79.7819 96.8435C79.1822 97.1841 78.5652 97.4934 77.9335 97.7702C75.8395 98.6943 73.6051 99.2602 71.3237 99.4441C70.7632 99.4908 70.1971 99.5138 69.6252 99.513C68.4936 99.5142 67.3639 99.4213 66.2478 99.2352C65.8545 99.1737 65.4661 99.0975 65.0826 99.0091C64.4123 98.8599 63.7502 98.6762 63.099 98.4585C60.4211 97.5653 57.9554 96.1313 55.855 94.2453C55.3139 93.7656 54.8009 93.2551 54.3187 92.7164C52.0711 90.2314 50.4623 87.2366 49.6311 83.9906C48.8 80.7447 48.7715 77.3452 49.5483 74.0858C50.325 70.8264 51.8835 67.8051 54.0892 65.2828C56.2949 62.7605 59.0814 60.8132 62.2082 59.6088C65.3349 58.4045 68.7079 57.9795 72.0356 58.3705C75.3634 58.7615 78.546 59.9567 81.3084 61.853C84.0709 63.7492 86.3302 66.2894 87.8912 69.2542C89.4522 72.2191 90.268 75.5193 90.2681 78.87Z" fill="#F8B932"/>
<path d="M151.681 55.8417C151.71 62.4488 147.793 64.7728 142.948 64.7943C142.835 64.7948 142.723 64.7941 142.612 64.7921C142.387 64.7882 142.165 64.779 141.945 64.7643C137.571 64.4741 134.163 62.0641 134.136 55.9195C134.107 49.5607 142.199 41.4998 142.806 40.9038L142.807 40.9032C142.83 40.8805 142.842 40.8691 142.842 40.8691C142.842 40.8691 151.652 49.2351 151.681 55.8417Z" fill="#5683FF"/>
<path d="M142.624 63.785L145.813 59.2877L142.618 64.2771L142.612 64.7919C142.387 64.7881 142.165 64.7788 141.945 64.7642L142.261 58.1529L142.258 58.1017L142.264 58.092L142.294 57.4673L139.048 52.4941L142.302 56.9993L142.311 57.1318L142.55 52.1366L139.766 46.995L142.58 51.2588L142.806 40.9036L142.807 40.8691L142.807 40.9031L142.798 49.0686L145.531 45.8193L142.789 49.7718L142.736 54.2438L145.284 49.9411L142.729 54.9013L142.7 57.3879L146.398 51.3981L142.689 58.2554L142.624 63.785Z" fill="#3F3D56"/>
<path d="M225.222 70.6699C216.095 70.6699 207.342 74.2956 200.888 80.7493C194.434 87.203 190.808 95.9561 190.808 105.083V105.083C190.808 107.756 189.747 110.319 187.857 112.209C185.967 114.099 183.403 115.161 180.73 115.161H164.015C160.077 115.161 156.178 115.937 152.539 117.444C148.901 118.951 145.595 121.16 142.81 123.945C140.026 126.729 137.817 130.035 136.31 133.674C134.802 137.312 134.027 141.212 134.027 145.15V145.15H225.222V70.6699H225.222Z" fill="#3F3D56"/>
<path d="M123.703 12.5361H119.278V145.272H123.703V12.5361Z" fill="#2F2E41"/>
<path d="M78.5971 10.5694V7.12804C78.596 5.23821 77.8444 3.42617 76.5077 2.09026C75.171 0.754347 73.3585 0.00390625 71.4687 0.00390625C69.5788 0.00390625 67.7663 0.754347 66.4296 2.09026C65.0929 3.42617 64.3414 5.23821 64.3402 7.12804V10.5694H50.8208V18.1894H92.1165V10.5694H78.5971ZM71.4687 1.96608C72.2952 1.96608 73.1031 2.21116 73.7903 2.67032C74.4774 3.12949 75.013 3.78212 75.3293 4.54568C75.6456 5.30925 75.7284 6.14945 75.5671 6.96005C75.4059 7.77064 75.0079 8.51522 74.4235 9.09963C73.8391 9.68404 73.0945 10.082 72.2839 10.2433C71.4733 10.4045 70.6331 10.3217 69.8695 10.0055C69.106 9.68919 68.4533 9.15359 67.9942 8.4664C67.535 7.77921 67.2899 6.97129 67.2899 6.14482C67.2899 5.59606 67.398 5.05267 67.608 4.54568C67.818 4.03869 68.1258 3.57803 68.5139 3.19C68.9019 2.80197 69.3626 2.49417 69.8695 2.28417C70.3765 2.07417 70.9199 1.96608 71.4687 1.96608Z" fill="#5683FF"/>
<path d="M73.2906 77.508C73.2906 77.508 71.2373 83.3518 72.5009 84.2508C73.7644 85.1499 68.2365 92.4921 68.2365 92.4921L61.603 90.694L65.2356 84.5505C65.2356 84.5505 65.7094 78.407 65.7094 77.508C65.7094 76.6089 73.2906 77.508 73.2906 77.508Z" fill="#FFB8B8"/>
<path opacity="0.1" d="M73.2906 77.508C73.2906 77.508 71.2373 83.3518 72.5009 84.2508C73.7644 85.1499 68.2365 92.4921 68.2365 92.4921L61.603 90.694L65.2356 84.5505C65.2356 84.5505 65.7094 78.407 65.7094 77.508C65.7094 76.6089 73.2906 77.508 73.2906 77.508Z" fill="black"/>
<path d="M69.0951 81.853C72.0743 81.853 74.4894 79.4379 74.4894 76.4587C74.4894 73.4796 72.0743 71.0645 69.0951 71.0645C66.116 71.0645 63.7009 73.4796 63.7009 76.4587C63.7009 79.4379 66.116 81.853 69.0951 81.853Z" fill="#FFB8B8"/>
<path d="M65.0826 99.0087C64.4123 98.8596 63.7502 98.6758 63.0989 98.4581L64.1313 91.3788L64.4509 89.196L66.088 89.8106C66.3092 89.8917 66.5599 89.9875 66.8475 90.0932C67.0674 90.1792 67.3025 90.2192 67.5384 90.2108C67.7743 90.2023 68.006 90.1456 68.2191 90.0441C69.8021 89.3189 70.7436 86.4971 70.7436 86.4971C70.7436 86.4971 70.8075 87.2886 70.8911 88.6282C71.041 90.9806 71.2573 95.0266 71.3237 99.4438C70.7632 99.4905 70.1971 99.5134 69.6251 99.5126C68.4936 99.5138 67.3639 99.4209 66.2477 99.2348C65.8544 99.1734 65.4661 99.0972 65.0826 99.0087Z" fill="#D0CDE1"/>
<path d="M66.5476 85.5999L66.0879 89.8106L65.8642 91.8483L65.0826 99.0087C64.4123 98.8596 63.7502 98.6758 63.0989 98.4581C60.421 97.565 57.9554 96.1309 55.855 94.245L54.8594 90.693C54.8648 90.4812 54.8861 90.27 54.9233 90.0613C54.9232 90.06 54.9233 90.0586 54.9237 90.0574C54.9242 90.0561 54.9249 90.0549 54.9258 90.0539C54.9551 89.868 54.9962 89.6841 55.0487 89.5033C55.05 89.5011 55.0509 89.4986 55.0512 89.4959C55.2275 88.8198 55.5745 88.2002 56.059 87.6966C57.2585 86.4971 65.1981 82.751 65.1981 82.751L65.348 83.0656L66.5476 85.5999Z" fill="#D0CDE1"/>
<path d="M68.9802 68.8356C70.176 68.7929 71.4558 68.7717 72.464 69.4161C72.9279 69.7396 73.3348 70.1379 73.668 70.5948C74.65 71.8362 75.4985 73.3982 75.1338 74.9384L74.7101 74.7732C74.7101 75.1843 74.8015 75.5903 74.9777 75.9618C74.918 75.7883 74.7182 76.0687 74.7717 76.2442L75.2384 77.7753C75.0456 77.7159 74.8424 77.6976 74.6421 77.7217C74.4417 77.7457 74.2487 77.8116 74.0754 77.915C73.9021 78.0184 73.7525 78.157 73.6361 78.3219C73.5198 78.4868 73.4394 78.6742 73.4001 78.8722C73.3468 77.0938 73.1623 75.0547 71.7197 74.0134C70.9923 73.4883 70.0716 73.328 69.1857 73.1856C68.3685 73.0543 67.5118 72.9291 66.7291 73.1981C65.9463 73.4671 65.2797 74.2676 65.4572 75.0761C65.2706 75.0341 65.0752 75.0573 64.9036 75.1418C64.732 75.2264 64.5946 75.3672 64.5143 75.5408C64.3631 75.8929 64.2969 76.2757 64.3212 76.6581C63.9364 76.93 63.4986 76.3901 63.3418 75.9459C62.9738 74.9031 62.6467 73.7931 62.8449 72.7051C63.0432 71.6172 63.9297 70.5776 65.0355 70.5739C64.9013 70.4265 64.8297 70.2326 64.8358 70.0333L65.7473 69.9563C65.5159 69.9235 65.3031 69.8114 65.1453 69.6389C65.5112 70.0416 68.3884 68.8568 68.9802 68.8356Z" fill="#2F2E41"/>
<path d="M81.5321 89.4969C81.392 90.6202 80.5907 93.7936 79.782 96.8441C79.1822 97.1847 78.5652 97.494 77.9335 97.7708C75.8395 98.6949 73.6051 99.2608 71.3237 99.4447C70.7633 99.4915 70.1971 99.5144 69.6252 99.5136C68.4936 99.5148 67.3639 99.4219 66.2478 99.2358C66.6656 97.6233 67.2285 94.9661 67.7546 92.363C67.9143 91.5764 68.0717 90.7923 68.2191 90.045C68.7968 87.1002 69.2442 84.7012 69.2442 84.7012C69.2442 84.7012 71.0386 82.9412 72.1029 82.5331C72.2471 82.4688 72.4053 82.4426 72.5626 82.4569C73.4401 82.602 74.6396 84.7012 74.6396 84.7012C74.6396 84.7012 80.0228 86.4956 81.2814 88.5333C81.4729 88.8163 81.5614 89.1564 81.5321 89.4969Z" fill="#D0CDE1"/>
<path d="M58.7555 89.4961L58.4409 96.2214C57.5278 95.6324 56.663 94.9716 55.855 94.2451C55.3139 93.7654 54.8009 93.255 54.3187 92.7162C54.5768 91.583 54.7931 90.6293 54.9234 90.0615C54.9232 90.0601 54.9234 90.0588 54.9238 90.0575C54.9242 90.0562 54.9249 90.0551 54.9258 90.0541C54.9947 89.7394 55.0389 89.5453 55.0488 89.5035C55.0501 89.5012 55.0509 89.4987 55.0512 89.4961H58.7555Z" fill="#D0CDE1"/>
<path d="M82.6061 94.9191C81.7203 95.6387 80.7756 96.2826 79.7818 96.8438C79.1821 97.1844 78.5651 97.4937 77.9333 97.7705L77.336 94.2898L77.9358 87.6973L81.2812 88.533L81.532 88.5969L82.6061 94.9191Z" fill="#D0CDE1"/>
<path d="M224.437 106.48C224.437 106.48 222.102 117.893 225.993 116.855C229.884 115.818 228.328 105.961 228.328 105.961L224.437 106.48Z" fill="#FFB9B9"/>
<path d="M235.331 59.2715H232.737C232.737 59.2715 229.884 61.3466 230.143 63.6811C230.403 66.0156 225.474 86.248 225.474 88.8419C225.474 91.4358 224.437 92.2139 224.437 93.7703C224.437 95.3266 224.955 96.3642 224.437 97.1423C223.918 97.9205 222.88 102.59 223.14 104.405C223.291 105.611 223.291 106.831 223.14 108.037H229.624C229.624 108.037 234.293 92.2139 235.331 91.4358C236.369 90.6576 236.887 89.3606 236.887 88.5825C236.887 87.8043 236.369 87.8043 237.666 86.7668C238.962 85.7292 238.184 81.0602 238.184 81.0602L240 76.3912L235.331 59.2715Z" fill="#D0CDE1"/>
<path opacity="0.1" d="M235.331 59.2715H232.737C232.737 59.2715 229.884 61.3466 230.143 63.6811C230.403 66.0156 225.474 86.248 225.474 88.8419C225.474 91.4358 224.437 92.2139 224.437 93.7703C224.437 95.3266 224.955 96.3642 224.437 97.1423C223.918 97.9205 222.88 102.59 223.14 104.405C223.291 105.611 223.291 106.831 223.14 108.037H229.624C229.624 108.037 234.293 92.2139 235.331 91.4358C236.369 90.6576 236.887 89.3606 236.887 88.5825C236.887 87.8043 236.369 87.8043 237.666 86.7668C238.962 85.7292 238.184 81.0602 238.184 81.0602L240 76.3912L235.331 59.2715Z" fill="black"/>
<path d="M199.017 100.125C199.017 100.125 196.682 111.538 200.573 110.501C204.464 109.463 202.907 99.6064 202.907 99.6064L199.017 100.125Z" fill="#FFB9B9"/>
<path d="M199.795 153.3L198.238 159.785L203.945 163.416L205.501 155.634L199.795 153.3Z" fill="#FFB9B9"/>
<path d="M226.771 161.341L223.918 165.232L227.29 169.122H231.959V161.341H226.771Z" fill="#FFB9B9"/>
<path d="M232.737 165.751H231.181C230.41 165.594 229.617 165.594 228.846 165.751C227.29 166.01 225.178 163.514 225.178 163.514L223.14 165.232C223.14 165.232 218.989 166.27 221.065 171.198L225.734 174.051C225.734 174.051 228.068 178.98 232.737 178.202C237.406 177.423 234.034 172.236 234.034 172.236L232.737 165.751Z" fill="#2F2E41"/>
<path d="M199.795 156.672L199.4 154.944L195.904 155.894C195.904 155.894 188.641 151.225 188.641 157.45C188.641 163.675 194.347 165.751 194.347 165.751C194.347 165.751 196.423 165.491 196.423 167.307C196.423 169.123 201.87 171.976 203.945 170.938C206.02 169.901 206.02 167.307 206.02 167.307L205.501 160.044L203.167 160.563C203.167 160.563 198.757 160.303 199.535 159.266C200.313 158.228 199.795 156.672 199.795 156.672Z" fill="#2F2E41"/>
<path d="M207.317 97.0127C207.317 97.0127 204.204 101.163 204.204 103.497C204.204 105.832 203.167 126.583 203.167 126.583C203.167 126.583 197.46 153.041 199.017 154.597C200.573 156.153 205.242 158.488 206.02 157.71C206.798 156.932 212.245 128.658 212.245 128.658L218.73 111.279L224.696 136.181C224.696 136.181 224.437 157.71 225.474 157.969C226.512 158.229 227.031 158.488 226.512 159.526C225.993 160.563 225.215 162.638 225.215 162.638C225.215 162.638 231.7 164.195 232.997 163.157C234.293 162.119 234.553 136.959 232.997 128.139C231.44 119.32 233.256 99.0878 233.256 99.0878L207.317 97.0127Z" fill="#2F2E41"/>
<path d="M216.785 46.8202C221.082 46.8202 224.566 43.3362 224.566 39.0385C224.566 34.7408 221.082 31.2568 216.785 31.2568C212.487 31.2568 209.003 34.7408 209.003 39.0385C209.003 43.3362 212.487 46.8202 216.785 46.8202Z" fill="#FFB9B9"/>
<path d="M214.45 43.9666C214.45 43.9666 215.488 49.4138 214.45 50.9701C213.413 52.5265 228.457 51.4889 228.457 51.4889C228.457 51.4889 221.194 43.1885 221.972 41.6321C222.751 40.0758 214.45 43.9666 214.45 43.9666Z" fill="#FFB9B9"/>
<path d="M207.836 52.9166C207.836 52.9166 213.023 46.1724 219.508 47.4694C221.259 47.8195 222.858 48.1697 224.261 48.4943C229.202 49.6381 233.311 53.1596 234.999 57.9422C235.436 59.1824 235.655 60.374 235.461 61.3467C234.683 65.2375 235.072 95.9752 235.072 95.9752C235.072 95.9752 232.996 96.7534 233.256 97.7909C233.515 98.8285 235.331 100.125 233.515 100.125C231.7 100.125 204.204 99.0879 204.723 98.3097C205.242 97.5315 207.836 52.9166 207.836 52.9166Z" fill="#D0CDE1"/>
<path d="M210.43 52.916H207.836C207.836 52.916 204.982 54.9911 205.242 57.3256C205.501 59.6601 200.573 79.8925 200.573 82.4864C200.573 85.0803 199.535 85.8585 199.535 87.4148C199.535 88.9711 200.054 90.0087 199.535 90.7869C199.017 91.565 197.979 96.234 198.238 98.0498C198.389 99.2556 198.389 100.475 198.238 101.681H204.723C204.723 101.681 209.392 85.8585 210.43 85.0803C211.467 84.3021 211.986 83.0052 211.986 82.227C211.986 81.4488 211.467 81.4488 212.764 80.4113C214.061 79.3737 213.283 74.7047 213.283 74.7047L215.099 70.0357L210.43 52.916Z" fill="#D0CDE1"/>
<path opacity="0.1" d="M206.648 97.9664L214.45 80.7998L210.549 99.0567L206.648 97.9664Z" fill="black"/>
<path d="M214.07 27.2708L214.074 26.6287C214.61 26.5605 215.154 26.5795 215.684 26.6851C215.69 26.2975 215.609 25.9134 215.448 25.5607C215.983 25.631 216.502 25.7856 216.988 26.0188L217.167 24.8262L221.813 26.4544C223.48 27.0388 225.243 27.6896 226.325 29.0865C227.532 30.6439 227.619 32.823 227.156 34.7379C226.693 36.6528 225.751 38.4121 225.048 40.2525C224.791 41.0383 224.461 41.798 224.061 42.5212C222.656 44.7848 219.486 45.5926 217.002 44.6309C216.085 44.276 215.219 43.6843 214.755 42.8179C214.517 42.2805 214.315 41.728 214.149 41.1641C213.717 40.0204 213.087 37.6279 212.039 36.9985C211.578 36.7215 210.875 37.9107 210.477 37.549C209.453 36.6195 209.447 34.9952 209.852 33.6734C210.234 32.3489 210.711 31.0538 211.28 29.798C211.524 29.2913 214.07 27.1938 214.07 27.2708Z" fill="#2F2E41"/>
</g>
<defs>
<clipPath id="clip0">
<rect width="240" height="178.284" fill="white"/>
</clipPath>
</defs>
</svg>
