<svg width="240" height="212" viewBox="0 0 240 212" fill="none" xmlns="http://www.w3.org/2000/svg">
<g clip-path="url(#clip0)">
<path d="M54.1201 55.4365H6.82824V24.3301H50.2986L54.1201 55.4365Z" fill="#EFEFEF"/>
<path d="M35.785 38.1991C38.1594 38.1991 40.0843 36.2743 40.0843 33.8998C40.0843 31.5254 38.1594 29.6006 35.785 29.6006C33.4106 29.6006 31.4858 31.5254 31.4858 33.8998C31.4858 36.2743 33.4106 38.1991 35.785 38.1991Z" fill="#3F3D56"/>
<path d="M47.7851 15.54C48.1927 15.0775 48.6148 14.6172 49.0399 14.1719L49.485 14.5967C49.0652 15.0362 48.6486 15.4903 48.2466 15.9466L47.7851 15.54Z" fill="#3F3D56"/>
<path d="M51.7634 11.5469C52.7035 10.7127 53.6894 9.90824 54.6939 9.15583L55.0629 9.64799C54.0718 10.3905 53.0991 11.1841 52.1718 12.007L51.7634 11.5469ZM57.8126 7.01596C58.8765 6.34914 59.9819 5.71871 61.0977 5.14206L61.3802 5.68867C60.2793 6.25742 59.1889 6.87929 58.1394 7.5371L57.8126 7.01596ZM64.5268 3.54696C65.6843 3.0656 66.8779 2.62591 68.0748 2.23967L68.2637 2.82521C67.0827 3.20607 65.905 3.64009 64.763 4.11492L64.5268 3.54696ZM71.8589 1.82429L71.718 1.22561C72.9423 0.937624 74.1913 0.697057 75.4302 0.510474L75.5218 1.11887C74.2993 1.30287 73.0669 1.5402 71.8589 1.82429ZM79.23 0.71591L79.1888 0.102148C80.4417 0.0182386 81.7134 -0.0142335 82.9686 0.00568727L82.9589 0.620884C81.7205 0.601082 80.4659 0.633137 79.23 0.7159V0.71591ZM86.6829 0.835316L86.7437 0.223273C87.9936 0.347461 89.2542 0.525825 90.4904 0.75338L90.379 1.3584C89.1595 1.13381 87.916 0.957834 86.6829 0.835305V0.835316ZM109.738 81.8886C110.721 81.136 111.684 80.3323 112.603 79.4995L113.016 79.9554C112.085 80.7995 111.108 81.6142 110.112 82.3769L109.738 81.8886ZM94.0188 2.18524L94.1796 1.59154C95.3911 1.92002 96.6047 2.30337 97.7867 2.73091L97.5775 3.30926C96.4112 2.88754 95.2139 2.50928 94.0188 2.18524ZM115.261 76.882C116.107 75.9773 116.926 75.026 117.695 74.0545L118.178 74.4364C117.398 75.4211 116.568 76.3853 115.711 77.302L115.261 76.882ZM101.032 4.72199L101.288 4.1625C102.43 4.68532 103.564 5.26172 104.659 5.87606L104.358 6.41246C103.278 5.80643 102.158 5.2376 101.032 4.72199ZM119.889 71.0369C120.577 70.0055 121.229 68.9331 121.829 67.8494L122.368 68.1475C121.759 69.2457 121.098 70.3327 120.401 71.3779L119.889 71.0369ZM107.535 8.36939L107.879 7.8594C108.92 8.56106 109.945 9.31472 110.925 10.0994L110.541 10.5796C109.573 9.80538 108.562 9.06179 107.535 8.36939ZM123.502 64.514C124.012 63.3843 124.481 62.2196 124.896 61.0524L125.475 61.2585C125.055 62.4416 124.579 63.6219 124.063 64.7669L123.502 64.514ZM113.354 13.0282L113.777 12.5812C114.69 13.4442 115.577 14.3552 116.414 15.2889L115.956 15.6995C115.13 14.7783 114.255 13.8797 113.354 13.0282ZM126 57.4881C126.319 56.2886 126.59 55.0627 126.807 53.8446L127.413 53.9527C127.193 55.1874 126.917 56.4299 126.595 57.6457L126 57.4881ZM118.329 18.5761L118.819 18.2045C119.577 19.2052 120.302 20.2495 120.974 21.3086L120.454 21.638C119.792 20.5933 119.077 19.5631 118.329 18.5761ZM127.31 50.1468C127.426 48.9136 127.492 47.6598 127.505 46.4202L128.12 46.4268C128.107 47.6832 128.04 48.9542 127.923 50.2044L127.31 50.1468ZM122.32 24.868L122.865 24.5828C123.447 25.6937 123.99 26.8442 124.479 28.0021L123.912 28.2414C123.43 27.0991 122.894 25.9642 122.32 24.868ZM127.389 42.6904C127.3 41.4572 127.158 40.2101 126.966 38.9837L127.574 38.8888C127.768 40.1318 127.912 41.3959 128.003 42.6459L127.389 42.6904ZM125.221 31.7345L125.805 31.5424C126.197 32.7333 126.545 33.9608 126.839 35.1797L126.241 35.3239C125.951 34.1201 125.607 32.9099 125.221 31.7345Z" fill="#3F3D56"/>
<path d="M105.082 85.0144C105.607 84.7075 106.133 84.3857 106.645 84.0576L106.977 84.5756C106.458 84.9081 105.925 85.2344 105.392 85.5453L105.082 85.0144Z" fill="#3F3D56"/>
<path d="M6.82824 45.7089L16.2532 36.2839L24.784 44.8144L40.9694 28.6289L54.2466 42.1589V55.4361H6.82824V45.7089Z" fill="#5683FF"/>
<path d="M161.096 132.317V193.266H239.494V132.317H161.096ZM229.257 148.617H223.185V142.545H229.257V148.617Z" fill="#3F3D56"/>
<path d="M39.1992 108.292H34.1412V114.867H39.1992V108.292Z" fill="#3F3D56"/>
<path d="M118.423 151.76L114.846 148.184L110.197 152.833L113.773 156.41L118.423 151.76Z" fill="#3F3D56"/>
<path d="M103.502 36.9447L99.9253 33.3682L95.2758 38.0176L98.8523 41.5941L103.502 36.9447Z" fill="#3F3D56"/>
<path d="M166.913 173.602C166.633 174.151 166.339 174.701 166.038 175.238L165.501 174.937C165.798 174.407 166.089 173.864 166.365 173.322L166.913 173.602Z" fill="#3F3D56"/>
<path d="M164.051 178.458C163.348 179.499 162.593 180.524 161.806 181.502L161.327 181.117C162.102 180.151 162.848 179.141 163.541 178.114L164.051 178.458ZM159.317 184.349C158.452 185.259 157.538 186.145 156.6 186.98L156.191 186.521C157.116 185.697 158.018 184.823 158.871 183.926L159.317 184.349ZM153.675 189.377C152.673 190.131 151.626 190.853 150.563 191.525L150.234 191.004C151.284 190.342 152.317 189.629 153.305 188.886L153.675 189.377ZM147 192.867L147.285 193.412C146.171 193.995 145.021 194.538 143.867 195.027L143.627 194.46C144.766 193.978 145.901 193.442 147 192.867ZM140.135 195.771L140.328 196.356C139.135 196.748 137.911 197.095 136.69 197.388L136.547 196.789C137.751 196.501 138.959 196.158 140.135 195.771ZM132.886 197.507L132.979 198.115C131.738 198.305 130.472 198.445 129.219 198.532L129.176 197.918C130.413 197.833 131.661 197.694 132.886 197.507ZM90.4229 124.719C89.6581 125.692 88.924 126.71 88.241 127.745L87.7276 127.406C88.42 126.357 89.164 125.325 89.9392 124.339L90.4229 124.719ZM125.445 198.021L125.437 198.636C124.182 198.619 122.911 198.549 121.66 198.428L121.719 197.816C122.953 197.935 124.207 198.004 125.445 198.021ZM86.316 130.941C85.7214 132.027 85.1644 133.152 84.6607 134.284L84.0986 134.034C84.6093 132.886 85.1738 131.746 85.7765 130.645L86.316 130.941ZM118.022 197.305L117.913 197.911C116.677 197.688 115.435 197.411 114.222 197.088L114.38 196.494C115.577 196.813 116.802 197.086 118.022 197.305ZM83.2848 137.752C82.8753 138.922 82.5094 140.122 82.1972 141.321L81.6019 141.166C81.9184 139.951 82.2892 138.734 82.7041 137.549L83.2848 137.752ZM110.816 195.387L110.61 195.967C109.427 195.546 108.247 195.07 107.103 194.554L107.356 193.993C108.485 194.503 109.649 194.972 110.816 195.387ZM81.4054 144.968C81.1924 146.189 81.0273 147.433 80.9151 148.667L80.3024 148.611C80.4163 147.361 80.5834 146.099 80.7993 144.862L81.4054 144.968ZM104.022 192.32L103.724 192.858C102.625 192.249 101.54 191.587 100.497 190.89L100.838 190.379C101.867 191.066 102.939 191.719 104.022 192.32ZM80.7303 152.394C80.72 153.635 80.7615 154.89 80.8535 156.124L80.2399 156.169C80.1468 154.919 80.1048 153.647 80.115 152.389L80.7303 152.394ZM97.8257 188.181L97.4431 188.663C96.4604 187.882 95.4988 187.05 94.5849 186.191L95.0063 185.743C95.9077 186.591 96.8563 187.411 97.8257 188.181H97.8257ZM81.2846 159.831C81.4787 161.054 81.7267 162.285 82.0219 163.489L81.4245 163.635C81.1252 162.415 80.8738 161.167 80.677 159.927L81.2846 159.831ZM92.3968 183.078L91.9397 183.49C91.1003 182.558 90.2887 181.578 89.5274 180.578L90.0169 180.206C90.768 181.192 91.5686 182.159 92.3968 183.078ZM83.06 167.073C83.4528 168.245 83.9004 169.418 84.3906 170.558L83.8253 170.801C83.3287 169.645 82.8748 168.457 82.4768 167.268L83.06 167.073ZM87.8818 177.147L87.3634 177.478C86.6884 176.422 86.046 175.319 85.4588 174.212L86.0024 173.923C86.582 175.017 87.2157 176.104 87.8818 177.147Z" fill="#3F3D56"/>
<path d="M94.1567 120.535C93.7243 120.963 93.2947 121.405 92.88 121.85L92.4299 121.431C92.8503 120.98 93.2858 120.531 93.7241 120.098L94.1567 120.535Z" fill="#3F3D56"/>
<path d="M227.645 135.484C227.587 135.389 226.219 133.104 225.744 128.36C225.309 124.006 225.589 116.669 229.394 106.434C236.603 87.0438 227.733 71.399 227.642 71.2431L228.08 70.9893C228.103 71.0288 230.392 75.0176 231.744 81.3692C233.53 89.79 232.88 98.5457 229.868 106.61C222.672 125.967 228.022 135.13 228.077 135.221L227.645 135.484Z" fill="#3F3D56"/>
<path d="M224.826 70.1046C226.642 70.1046 228.114 68.6327 228.114 66.817C228.114 65.0012 226.642 63.5293 224.826 63.5293C223.01 63.5293 221.538 65.0012 221.538 66.817C221.538 68.6327 223.01 70.1046 224.826 70.1046Z" fill="#F8B932"/>
<path d="M235.195 82.2443C237.011 82.2443 238.483 80.7723 238.483 78.9566C238.483 77.1409 237.011 75.6689 235.195 75.6689C233.379 75.6689 231.907 77.1409 231.907 78.9566C231.907 80.7723 233.379 82.2443 235.195 82.2443Z" fill="#3F3D56"/>
<path d="M228.114 90.3371C229.93 90.3371 231.401 88.8651 231.401 87.0494C231.401 85.2337 229.93 83.7617 228.114 83.7617C226.298 83.7617 224.826 85.2337 224.826 87.0494C224.826 88.8651 226.298 90.3371 228.114 90.3371Z" fill="#F8B932"/>
<path d="M236.712 97.1652C238.528 97.1652 240 95.6932 240 93.8775C240 92.0618 238.528 90.5898 236.712 90.5898C234.897 90.5898 233.425 92.0618 233.425 93.8775C233.425 95.6932 234.897 97.1652 236.712 97.1652Z" fill="#F8B932"/>
<path d="M225.585 107.786C227.401 107.786 228.872 106.314 228.872 104.499C228.872 102.683 227.401 101.211 225.585 101.211C223.769 101.211 222.297 102.683 222.297 104.499C222.297 106.314 223.769 107.786 225.585 107.786Z" fill="#3F3D56"/>
<path d="M229.631 135.606C229.631 135.606 226.344 127.513 236.207 121.443L229.631 135.606Z" fill="#3F3D56"/>
<path d="M225.588 135.458C225.588 135.458 224.092 126.852 212.511 126.926L225.588 135.458Z" fill="#3F3D56"/>
<path d="M121.007 186.841C120.407 186.841 119.82 186.663 119.321 186.33C118.822 185.996 118.433 185.522 118.204 184.968C117.974 184.413 117.914 183.803 118.031 183.214C118.148 182.626 118.437 182.085 118.861 181.66C119.286 181.236 119.827 180.947 120.415 180.83C121.004 180.713 121.614 180.773 122.169 181.002C122.723 181.232 123.197 181.621 123.531 182.12C123.864 182.619 124.042 183.206 124.042 183.806C124.041 184.611 123.721 185.382 123.152 185.951C122.583 186.52 121.812 186.84 121.007 186.841ZM121.007 181.277C120.507 181.277 120.018 181.426 119.602 181.704C119.186 181.981 118.862 182.376 118.671 182.838C118.479 183.301 118.429 183.809 118.527 184.3C118.625 184.79 118.865 185.241 119.219 185.595C119.573 185.948 120.023 186.189 120.514 186.287C121.005 186.384 121.513 186.334 121.975 186.143C122.437 185.951 122.832 185.627 123.11 185.211C123.388 184.795 123.536 184.306 123.536 183.806C123.536 183.136 123.269 182.493 122.795 182.019C122.321 181.545 121.678 181.278 121.007 181.277Z" fill="#2F2E41"/>
<path d="M154.346 24.0482H149.354V19.0557H154.346V24.0482ZM149.738 23.6641H153.962V19.4397H149.738V23.6641Z" fill="#3F3D56"/>
<path d="M18.1972 163.415L14.7919 159.764L18.4428 156.358L21.8481 160.009L18.1972 163.415ZM15.3347 159.783L18.2161 162.872L21.3053 159.99L18.4239 156.901L15.3347 159.783Z" fill="#2F2E41"/>
<path d="M152.271 130.327H61.7794V93.7988H137.05L152.271 130.327Z" fill="#EFEFEF"/>
<path d="M152.684 130.604H50.7102V85.7734H134.192L134.262 85.9446L152.684 130.604ZM51.2637 130.05H151.857L133.821 86.3269H51.2637V130.05Z" fill="#3F3D56"/>
<path d="M121.83 99.6104H76.723V103.761H121.83V99.6104Z" fill="#5683FF"/>
<path d="M121.83 108.188H76.723V112.339H121.83V108.188Z" fill="#5683FF"/>
<path d="M121.83 116.768H76.723V120.919H121.83V116.768Z" fill="#5683FF"/>
<path d="M75.7256 61.5059H0V15.4785H58.8489L58.9098 15.6444L75.7256 61.5059ZM0.505796 61.0001H75.0015L58.4957 15.9843H0.505796V61.0001Z" fill="#3F3D56"/>
<path d="M54.373 55.6898H6.57534V20.0312H54.373V55.6898ZM7.08114 55.184H53.8672V20.537H7.08114V55.184Z" fill="#3F3D56"/>
<path d="M75.3635 65.8055C77.8776 65.8055 79.9157 63.7674 79.9157 61.2533C79.9157 58.7392 77.8776 56.7012 75.3635 56.7012C72.8495 56.7012 70.8114 58.7392 70.8114 61.2533C70.8114 63.7674 72.8495 65.8055 75.3635 65.8055Z" fill="#F8B932"/>
<path d="M151.739 135.099C154.253 135.099 156.291 133.061 156.291 130.547C156.291 128.033 154.253 125.995 151.739 125.995C149.225 125.995 147.187 128.033 147.187 130.547C147.187 133.061 149.225 135.099 151.739 135.099Z" fill="#F8B932"/>
<path d="M184.383 68.2895C188.613 68.2895 192.042 64.86 192.042 60.6296C192.042 56.3992 188.613 52.9697 184.383 52.9697C180.152 52.9697 176.723 56.3992 176.723 60.6296C176.723 64.86 180.152 68.2895 184.383 68.2895Z" fill="#FFB9B9"/>
<path d="M179.116 64.3004C179.116 64.3004 181.67 70.0453 178.159 72.2795C174.648 74.5136 183.904 83.7692 183.904 83.7692L194.117 72.9178C194.117 72.9178 188.691 69.407 189.649 63.6621L179.116 64.3004Z" fill="#FFB9B9"/>
<path d="M161.563 88.5566L159.328 101.323C159.328 101.323 155.498 108.983 155.498 115.685C155.498 122.388 154.86 123.664 154.86 123.664C154.86 123.664 148.477 136.431 152.945 137.069C157.413 137.707 159.328 123.983 159.328 123.983C159.328 123.983 165.392 108.983 165.392 104.196L169.542 93.6632L161.563 88.5566Z" fill="#FFB9B9"/>
<path d="M207.841 89.1953L208.479 100.366C208.479 100.366 210.713 106.111 209.118 116.324L207.841 126.218C207.841 126.218 210.713 137.389 207.841 137.708C204.969 138.027 201.458 130.686 203.373 126.537V123.026C203.373 123.026 201.458 108.026 202.096 105.473L199.862 93.3444L207.841 89.1953Z" fill="#FFB9B9"/>
<path d="M166.35 177.602L169.542 185.901L176.563 184.624L172.095 175.688L166.35 177.602Z" fill="#FFB9B9"/>
<path d="M196.67 184.305L195.713 196.433H203.692L203.373 185.9L196.67 184.305Z" fill="#FFB9B9"/>
<path d="M171.457 111.536L170.499 116.324C170.499 116.324 168.584 117.92 168.584 119.515C168.584 121.111 167.946 121.75 167.946 121.75C167.946 121.75 167.627 121.75 167.307 122.388C167.143 122.736 166.928 123.059 166.669 123.345C166.669 123.345 147.839 142.495 151.988 152.07C156.137 161.645 164.116 181.114 164.116 181.114C164.116 181.114 173.372 178.241 173.372 176.007L164.435 150.793L182.308 132.282L196.67 151.751C196.67 151.751 193.798 185.901 195.713 186.22C197.628 186.539 208.16 188.773 208.479 187.816C208.798 186.858 210.394 144.41 209.756 142.814C209.118 141.218 199.862 122.069 199.862 122.069C199.862 122.069 201.458 120.154 200.5 119.515C199.543 118.877 197.947 112.813 197.947 112.813C197.947 112.813 173.052 108.664 171.457 111.536Z" fill="#2F2E41"/>
<path d="M185.18 75.7903L178.747 71.8227C178.747 71.8227 174.967 71.9604 174.01 72.9179C173.052 73.8754 167.307 76.4287 167.307 76.4287C167.307 76.4287 168.584 114.728 171.137 113.451C173.691 112.175 171.776 111.217 173.691 112.175C175.606 113.132 198.266 113.451 198.585 113.451C198.904 113.451 199.224 112.813 199.224 112.813L200.5 93.3442L204.649 77.067L192.366 71.415L185.18 75.7903Z" fill="#D0CDE1"/>
<path d="M169.861 76.1094H167.308C167.308 76.1094 163.797 77.0668 162.201 82.1734C160.605 87.28 159.967 89.5141 160.605 90.1525C161.243 90.7908 169.861 95.5782 169.861 95.5782V76.1094Z" fill="#D0CDE1"/>
<path d="M200.181 76.748L204.649 77.0672C204.649 77.0672 210.394 90.472 208.798 91.1103C207.203 91.7486 197.947 96.536 197.947 95.5786C197.947 94.6211 200.181 76.748 200.181 76.748Z" fill="#D0CDE1"/>
<path d="M170.18 181.752L167.578 180.795L161.563 188.774C161.563 188.774 150.392 196.753 160.605 196.434C160.605 196.434 168.584 195.157 169.223 192.923C169.223 192.923 178.478 190.37 178.478 188.774C178.478 187.178 176.351 182.924 175.659 182.817C174.967 182.71 172.095 183.987 170.18 181.752Z" fill="#2F2E41"/>
<path d="M203.692 192.922C203.692 192.922 195.933 192.796 195.982 193.019C196.032 193.241 193.798 198.348 194.117 200.263C194.436 202.178 197.309 204.731 196.67 206.008C196.032 207.285 198.585 211.115 203.692 211.434C208.798 211.753 208.16 206.008 208.16 206.008L205.607 199.944L203.692 192.922Z" fill="#2F2E41"/>
<path d="M179.686 51.7642C179.303 52.0903 178.903 52.3963 178.488 52.6809C177.965 53.1151 177.481 53.5953 177.044 54.1157L176.55 54.6687C176.129 55.1393 175.683 55.6763 175.701 56.307C175.708 56.541 175.78 56.7681 175.808 57.0005C175.92 57.9225 175.356 58.9358 175.82 59.7404C175.954 59.973 176.161 60.1549 176.309 60.379C176.497 60.6663 176.581 61.0096 176.545 61.3512C177.044 61.3716 177.453 60.9249 177.609 60.4511C177.765 59.9773 177.744 59.4655 177.82 58.9725C177.896 58.4794 178.11 57.9573 178.558 57.7378C179.514 57.2694 180.612 58.4872 181.632 58.1837C182.345 57.9718 182.72 57.0887 183.449 56.9406C183.97 56.8346 184.472 57.1443 184.956 57.3639C185.441 57.5834 186.094 57.685 186.437 57.2781C186.664 57.0087 186.688 56.5769 186.989 56.3938C187.349 56.1744 187.801 56.4799 188.074 56.8018C188.347 57.1238 188.649 57.5174 189.071 57.5057C189.63 57.4902 190.059 56.7447 190.59 56.9215C191.19 57.1212 190.914 58.0808 191.278 58.5976C191.586 59.0345 192.23 59.0088 192.759 58.9366C192.849 58.9457 192.939 58.9319 193.021 58.8967C193.104 58.8614 193.176 58.8058 193.231 58.735C193.286 58.6642 193.323 58.5806 193.337 58.492C193.351 58.4033 193.342 58.3126 193.312 58.2282L193.091 55.2956C193.09 55.0935 193.045 54.8939 192.961 54.7103C192.807 54.4314 192.488 54.2901 192.271 54.0567C191.815 53.5658 191.837 52.7053 191.27 52.3484C190.976 52.1631 190.591 52.1686 190.299 51.98C189.924 51.7382 189.803 51.2538 189.541 50.8932C189.165 50.3776 188.509 50.1386 187.875 50.073C187.241 50.0074 186.6 50.0865 185.963 50.0657C184.667 50.0234 183.371 49.6587 182.069 49.8722C180.933 50.0585 180.456 51.0226 179.686 51.7642Z" fill="#2F2E41"/>
</g>
<defs>
<clipPath id="clip0">
<rect width="240" height="211.447" fill="white"/>
</clipPath>
</defs>
</svg>
