<svg width="240" height="139" viewBox="0 0 240 139" fill="none" xmlns="http://www.w3.org/2000/svg">
<path d="M218.492 0H38.2181V5.73531H218.492V0Z" fill="#F2F2F2"/>
<path d="M43.0423 4.26749C43.862 4.26749 44.5266 3.60293 44.5266 2.78316C44.5266 1.96339 43.862 1.29883 43.0423 1.29883C42.2225 1.29883 41.558 1.96339 41.558 2.78316C41.558 3.60293 42.2225 4.26749 43.0423 4.26749Z" fill="#428DFF"/>
<path d="M47.8663 4.26749C48.686 4.26749 49.3506 3.60293 49.3506 2.78316C49.3506 1.96339 48.686 1.29883 47.8663 1.29883C47.0465 1.29883 46.3819 1.96339 46.3819 2.78316C46.3819 3.60293 47.0465 4.26749 47.8663 4.26749Z" fill="#428DFF"/>
<path d="M52.6904 4.26749C53.5101 4.26749 54.1747 3.60293 54.1747 2.78316C54.1747 1.96339 53.5101 1.29883 52.6904 1.29883C51.8706 1.29883 51.206 1.96339 51.206 2.78316C51.206 3.60293 51.8706 4.26749 52.6904 4.26749Z" fill="#428DFF"/>
<path d="M38.3458 90.7088L38.218 90.8185V129.508H218.492V61.5488L216.344 61.7118L38.3458 90.7088Z" fill="#3F3D56"/>
<path d="M101.57 38.3652H51.2281V40.3951H101.57V38.3652Z" fill="#3F3D56"/>
<path d="M101.57 42.8311H51.2281V44.861H101.57V42.8311Z" fill="#3F3D56"/>
<path d="M68.2793 47.2969H51.2281V49.3268H68.2793V47.2969Z" fill="#3F3D56"/>
<path d="M204.232 94.7197H153.89V96.7496H204.232V94.7197Z" fill="white"/>
<path d="M204.232 99.1855H153.89V101.215H204.232V99.1855Z" fill="white"/>
<path d="M170.942 103.652H153.89V105.682H170.942V103.652Z" fill="white"/>
<path d="M122.612 127.636C123.706 127.636 124.593 126.75 124.593 125.656C124.593 124.562 123.706 123.676 122.612 123.676C121.519 123.676 120.632 124.562 120.632 125.656C120.632 126.75 121.519 127.636 122.612 127.636Z" fill="#F2F2F2"/>
<path d="M128.355 127.835C129.449 127.835 130.335 126.948 130.335 125.854C130.335 124.761 129.449 123.874 128.355 123.874C127.262 123.874 126.375 124.761 126.375 125.854C126.375 126.948 127.262 127.835 128.355 127.835Z" fill="#F2F2F2"/>
<path d="M134.098 128.033C135.192 128.033 136.078 127.146 136.078 126.053C136.078 124.959 135.192 124.072 134.098 124.072C133.004 124.072 132.118 124.959 132.118 126.053C132.118 127.146 133.004 128.033 134.098 128.033Z" fill="#F2F2F2"/>
<path d="M128.373 127.439C129.248 127.439 129.958 126.73 129.958 125.855C129.958 124.98 129.248 124.271 128.373 124.271C127.498 124.271 126.789 124.98 126.789 125.855C126.789 126.73 127.498 127.439 128.373 127.439Z" fill="#3F3D56"/>
<path d="M84.88 61.6006H67.8288V65.4908H84.88V61.6006Z" fill="#3F3D56"/>
<path d="M186.232 114.242H169.18V118.132H186.232V114.242Z" fill="white"/>
<path opacity="0.3" d="M76.4505 75.361C82.9648 75.361 88.2457 70.0801 88.2457 63.5657C88.2457 57.0514 82.9648 51.7705 76.4505 51.7705C69.9362 51.7705 64.6553 57.0514 64.6553 63.5657C64.6553 70.0801 69.9362 75.361 76.4505 75.361Z" fill="#F8B932"/>
<path opacity="0.3" d="M76.4505 71.4301C80.7934 71.4301 84.314 67.9095 84.314 63.5666C84.314 59.2237 80.7934 55.7031 76.4505 55.7031C72.1076 55.7031 68.587 59.2237 68.587 63.5666C68.587 67.9095 72.1076 71.4301 76.4505 71.4301Z" fill="#F8B932"/>
<path d="M76.4505 69.027C79.4664 69.027 81.9112 66.5821 81.9112 63.5662C81.9112 60.5503 79.4664 58.1055 76.4505 58.1055C73.4346 58.1055 70.9897 60.5503 70.9897 63.5662C70.9897 66.5821 73.4346 69.027 76.4505 69.027Z" fill="#F8B932"/>
<path opacity="0.3" d="M175.7 46.1285C182.214 46.1285 187.495 40.8476 187.495 34.3333C187.495 27.819 182.214 22.5381 175.7 22.5381C169.185 22.5381 163.904 27.819 163.904 34.3333C163.904 40.8476 169.185 46.1285 175.7 46.1285Z" fill="#5683FF"/>
<path opacity="0.3" d="M175.7 42.1977C180.043 42.1977 183.563 38.6771 183.563 34.3342C183.563 29.9913 180.043 26.4707 175.7 26.4707C171.357 26.4707 167.836 29.9913 167.836 34.3342C167.836 38.6771 171.357 42.1977 175.7 42.1977Z" fill="#5683FF"/>
<path d="M175.7 39.7945C178.715 39.7945 181.16 37.3497 181.16 34.3338C181.16 31.3179 178.715 28.873 175.7 28.873C172.684 28.873 170.239 31.3179 170.239 34.3338C170.239 37.3497 172.684 39.7945 175.7 39.7945Z" fill="#5683FF"/>
<path opacity="0.3" d="M177.802 128.003C184.316 128.003 189.597 122.722 189.597 116.207C189.597 109.693 184.316 104.412 177.802 104.412C171.288 104.412 166.007 109.693 166.007 116.207C166.007 122.722 171.288 128.003 177.802 128.003Z" fill="#5683FF"/>
<path opacity="0.3" d="M177.802 124.072C182.145 124.072 185.666 120.551 185.666 116.208C185.666 111.865 182.145 108.345 177.802 108.345C173.459 108.345 169.939 111.865 169.939 116.208C169.939 120.551 173.459 124.072 177.802 124.072Z" fill="#5683FF"/>
<path d="M177.802 121.669C180.818 121.669 183.263 119.224 183.263 116.208C183.263 113.192 180.818 110.747 177.802 110.747C174.786 110.747 172.341 113.192 172.341 116.208C172.341 119.224 174.786 121.669 177.802 121.669Z" fill="#5683FF"/>
<path d="M19.6417 23.8879L24.4964 24.0762L24.7384 17.8344L19.8837 17.6461L19.6417 23.8879Z" fill="#428DFF"/>
<path d="M41.7835 39.5053C41.7835 39.5053 48.5065 36.2931 48.3989 39.0673C48.2914 41.8414 41.6221 43.6665 41.6221 43.6665L41.7835 39.5053Z" fill="#FFB9B9"/>
<path d="M38.0949 62.9792C38.0949 62.9792 41.2668 70.7425 42.4387 76.3446C43.6106 81.9467 45.3954 89.6562 43.0996 95.1238C40.8039 100.591 34.2768 116.661 34.2096 118.395C34.1424 120.129 34.7686 121.889 33.3816 121.835C31.9945 121.782 24.4463 119.405 24.1399 118.352C23.8335 117.298 26.7152 114.631 26.7152 114.631L33.831 92.3334L26.4067 77.8066L21.0516 99.4782L20.0027 126.526C20.0027 126.526 14.855 124.937 14.1077 126.297C14.1077 126.297 11.8013 123.082 11.5083 121.682C11.2154 120.281 12.5976 93.5937 12.5976 93.5937C12.5976 93.5937 7.8724 63.1964 11.6868 63.3443C15.5013 63.4922 30.442 54.3475 38.0949 62.9792Z" fill="#2F2E41"/>
<path d="M33.4354 120.448C33.4354 120.448 36.954 128.225 37.2873 128.586C37.6206 128.946 39.9135 132.508 38.1797 132.44C36.4459 132.373 32.3519 130.478 29.3386 127.583C26.3252 124.688 22.3523 119.671 22.7125 119.338C23.0727 119.005 25.5404 118.059 25.5404 118.059L33.4354 120.448Z" fill="#2F2E41"/>
<path d="M19.3764 124.765C19.3764 124.765 19.5887 128.246 20.2285 129.66C20.8682 131.074 20.7875 133.154 19.0537 133.087C17.3198 133.02 12.8388 132.151 12.8388 132.151C12.8388 132.151 12.5727 130.057 12.9329 129.724C13.2931 129.391 14.8281 125.63 14.1749 124.563C13.5217 123.496 19.3764 124.765 19.3764 124.765Z" fill="#2F2E41"/>
<path d="M16.8113 11.7969C16.8113 11.7969 13.115 17.5574 11.6742 18.8907C10.2333 20.224 14.287 23.1595 14.287 23.1595L21.5422 24.1354C21.5422 24.1354 21.4509 17.5334 21.8246 16.8533C22.1982 16.1732 16.8113 11.7969 16.8113 11.7969Z" fill="#FFB9B9"/>
<path d="M23.1175 19.334C23.1175 19.334 21.6229 22.0544 20.2358 22.0006C18.8487 21.9468 11.6742 18.8903 11.3678 17.8365C11.0613 16.7828 8.99133 25.3847 8.99133 25.3847L26.5469 56.2796L30.8291 53.3201L28.7542 35.1806L27.0501 25.3905L23.1175 19.334Z" fill="#5683FF"/>
<path d="M10.7202 46.9838C11.4205 48.4487 11.8579 49.9763 11.7972 51.5403C11.7945 51.6096 11.7919 51.679 11.7857 51.7482C11.6196 54.9576 10.4372 58.6695 10.0131 61.3688C9.70528 63.3052 9.79287 64.7186 10.926 65.0508C13.6733 65.8519 10.5255 66.4244 21.1542 69.9621C31.783 73.4999 33.6379 70.4462 33.6648 69.7527C33.6917 69.0592 32.1595 63.7904 32.5197 63.4571C32.88 63.1238 37.5599 67.82 38.9738 67.1803C40.3878 66.5405 39.1352 63.0191 39.1352 63.0191C39.1352 63.0191 35.9499 55.6025 36.0172 53.8686C36.0844 52.1348 31.1922 43.9575 31.1922 43.9575L27.8647 22.2965C27.8647 22.2965 26.5852 19.4686 24.8648 19.0546C23.1444 18.6406 21.717 19.6271 21.717 19.6271L24.5959 25.9899L27.6332 37.2209L27.1251 41.3687C27.1251 41.3687 23.593 33.9387 21.2732 31.0704C18.9535 28.2021 14.0074 21.4119 14.0074 21.4119C14.0074 21.4119 12.8527 17.5156 13.7244 16.3513C14.5963 15.1835 10.0883 15.0087 8.16618 19.7962C7.14746 22.3336 5.49351 26.1174 4.45741 29.6404C3.53415 32.7614 3.09803 35.6791 4.01271 37.3469C5.41071 39.8946 8.92739 43.2434 10.7202 46.9838Z" fill="#575A89"/>
<path opacity="0.1" d="M4.01278 37.3466C5.41079 39.8944 8.92746 43.2432 10.7203 46.9835C11.1886 45.2965 11.7598 43.551 11.7598 43.551C11.7598 43.551 13.9509 31.8281 7.46986 28.7985C6.396 28.6946 5.32198 28.9947 4.45748 29.6402C3.53421 32.7612 3.09809 35.6789 4.01278 37.3466Z" fill="black"/>
<path d="M29.7407 36.6084L35.2352 38.2106L42.8641 38.5064L43.6489 45.1354L31.1115 46.0383C31.1115 46.0383 27.98 37.2347 29.7407 36.6084Z" fill="#575A89"/>
<path d="M20.7812 58.8975C20.7812 58.8975 28.1318 60.117 26.4541 62.329C24.7764 64.5409 18.2647 62.2154 18.2647 62.2154L20.7812 58.8975Z" fill="#FFB9B9"/>
<path opacity="0.1" d="M11.7857 51.748C11.6196 54.9575 10.4372 58.6693 10.0131 61.3687C12.3547 63.5849 14.5814 65.5396 15.4206 65.5722C17.1544 65.6394 19.942 65.4002 20.9688 65.7873C21.9957 66.1745 22.598 59.5993 22.598 59.5993C22.598 59.5993 21.9851 57.4918 19.2513 56.3439C17.406 55.5674 13.869 53.4611 11.7857 51.748Z" fill="black"/>
<path d="M7.55047 26.7177C7.55047 26.7177 1.68232 25.7956 1.99934 35.532C2.31635 45.2684 1.38077 51.4833 3.74091 53.3112C6.10105 55.1392 13.7674 63.4241 15.5012 63.4914C17.2351 63.5586 20.0227 63.3194 21.0495 63.7065C22.0764 64.0936 22.6786 57.5185 22.6786 57.5185C22.6786 57.5185 22.0658 55.411 19.332 54.2631C16.5982 53.1152 10.1575 49.0453 10.2113 47.6582C10.2651 46.2712 11.8404 41.4702 11.8404 41.4702C11.8404 41.4702 14.0315 29.7474 7.55047 26.7177Z" fill="#575A89"/>
<path d="M21.986 20.3268C26.2025 20.3268 29.6206 16.9087 29.6206 12.6922C29.6206 8.47575 26.2025 5.05762 21.986 5.05762C17.7695 5.05762 14.3514 8.47575 14.3514 12.6922C14.3514 16.9087 17.7695 20.3268 21.986 20.3268Z" fill="#FFB9B9"/>
<path d="M27.1265 1.7489C27.3106 1.90756 27.5311 2.01822 27.7684 2.07104C27.8875 2.09227 28.0102 2.06552 28.1096 1.99663C28.2091 1.92774 28.2773 1.8223 28.2993 1.70332C28.4739 2.06557 28.671 2.45165 29.0276 2.63753C29.3843 2.8234 29.9357 2.66754 29.9871 2.26868C30.0392 2.57152 30.1732 2.85434 30.3745 3.08646C30.5958 3.29743 30.9971 3.35068 31.1902 3.11373C31.0341 3.96723 31.1305 4.84497 31.0814 5.71126C31.0324 6.57755 30.8014 7.49594 30.1469 8.06559C29.1924 8.89635 27.757 8.69132 26.5014 8.53392C26.3116 8.49408 26.1145 8.50485 25.9301 8.56517C25.46 8.76547 25.4813 9.41991 25.475 9.93089C25.4367 10.8275 25.0818 11.6814 24.4735 12.3411C23.8652 13.0009 23.0427 13.4237 22.1522 13.5344C21.6538 13.6114 21.1453 13.4873 20.7384 13.1894C20.3819 12.8872 20.1998 12.3947 19.7913 12.1677C19.1269 11.7985 18.321 12.337 17.8352 12.9217C17.3493 13.5064 16.8705 14.2256 16.1179 14.3326C15.1226 14.4741 14.3644 13.4597 13.9925 12.5257C13.4793 11.2166 13.2335 9.81792 13.2694 8.41226C13.3054 7.0066 13.6224 5.62237 14.2018 4.34117C16.2802 -0.189301 23.3799 -0.905885 27.1265 1.7489Z" fill="#2F2E41"/>
<path d="M210.397 123.145C213.086 127.73 218.508 129.546 218.508 129.546C218.508 129.546 219.572 123.927 216.883 119.341C214.194 114.756 208.771 112.94 208.771 112.94C208.771 112.94 207.708 118.559 210.397 123.145Z" fill="#F2F2F2"/>
<path d="M212.074 121.544C216.725 124.119 218.673 129.496 218.673 129.496C218.673 129.496 213.081 130.697 208.431 128.122C203.781 125.546 201.833 120.169 201.833 120.169C201.833 120.169 207.424 118.968 212.074 121.544Z" fill="#5683FF"/>
</svg>
