<svg width="240" height="197" viewBox="0 0 240 197" fill="none" xmlns="http://www.w3.org/2000/svg">
<g clip-path="url(#clip0)">
<path d="M16.7268 163.968L16.4759 163.874C16.4208 163.853 10.9344 161.751 8.36432 156.985C5.79414 152.219 7.05264 146.48 7.06565 146.422L7.12488 146.161L7.37563 146.255C7.43075 146.276 12.917 148.378 15.4872 153.144C18.0574 157.911 16.7989 163.65 16.7859 163.707L16.7268 163.968ZM8.77588 156.763C10.9488 160.793 15.2843 162.859 16.3828 163.33C16.5917 162.153 17.2466 157.392 15.0757 153.366C12.9049 149.341 8.56771 147.272 7.46876 146.799C7.25979 147.977 6.60504 152.737 8.77588 156.763Z" fill="#3F3D56"/>
<path d="M10.3284 155.547C14.9472 158.326 16.726 163.845 16.726 163.845C16.726 163.845 11.0163 164.859 6.3976 162.08C1.77885 159.302 1.52588e-05 153.782 1.52588e-05 153.782C1.52588e-05 153.782 5.70966 152.768 10.3284 155.547Z" fill="#F8B932"/>
<path opacity="0.4" d="M180.504 6.59863H39.0943V157.601H180.504V6.59863Z" fill="#3F3D56"/>
<path d="M184.595 164.199H35.0039C34.4462 164.199 33.9115 163.977 33.5171 163.583C33.1227 163.188 32.9009 162.653 32.9003 162.096V2.10362C32.9009 1.54591 33.1227 1.01122 33.5171 0.616852C33.9115 0.222487 34.4462 0.000647681 35.0039 0H184.595C185.152 0.000628543 185.687 0.222461 186.082 0.616831C186.476 1.0112 186.698 1.5459 186.698 2.10362V162.096C186.698 162.653 186.476 163.188 186.082 163.583C185.687 163.977 185.152 164.199 184.595 164.199ZM35.0039 0.467472C34.5701 0.467958 34.1542 0.640494 33.8475 0.947226C33.5407 1.25396 33.3682 1.66984 33.3677 2.10362V162.096C33.3682 162.53 33.5408 162.945 33.8475 163.252C34.1542 163.559 34.5701 163.731 35.0039 163.732H184.595C185.029 163.731 185.444 163.559 185.751 163.252C186.058 162.945 186.23 162.53 186.231 162.096V2.10362C186.23 1.66984 186.058 1.25398 185.751 0.947248C185.444 0.64052 185.029 0.467978 184.595 0.467472H35.0039Z" fill="#3F3D56"/>
<path d="M70.298 25.4775H57.6763C57.0308 25.4775 56.5076 26.0008 56.5076 26.6462V39.2679C56.5076 39.9134 57.0308 40.4366 57.6763 40.4366H70.298C70.9434 40.4366 71.4667 39.9134 71.4667 39.2679V26.6462C71.4667 26.0008 70.9434 25.4775 70.298 25.4775Z" fill="white"/>
<path d="M93.2041 25.4775H80.5824C79.9369 25.4775 79.4137 26.0008 79.4137 26.6462V39.2679C79.4137 39.9134 79.9369 40.4366 80.5824 40.4366H93.2041C93.8495 40.4366 94.3728 39.9134 94.3728 39.2679V26.6462C94.3728 26.0008 93.8495 25.4775 93.2041 25.4775Z" fill="white"/>
<path d="M116.11 25.4775H103.488C102.843 25.4775 102.32 26.0008 102.32 26.6462V39.2679C102.32 39.9134 102.843 40.4366 103.488 40.4366H116.11C116.756 40.4366 117.279 39.9134 117.279 39.2679V26.6462C117.279 26.0008 116.756 25.4775 116.11 25.4775Z" fill="white"/>
<path d="M139.016 25.4775H126.395C125.749 25.4775 125.226 26.0008 125.226 26.6462V39.2679C125.226 39.9134 125.749 40.4366 126.395 40.4366H139.016C139.662 40.4366 140.185 39.9134 140.185 39.2679V26.6462C140.185 26.0008 139.662 25.4775 139.016 25.4775Z" fill="white"/>
<path d="M161.922 25.4775H149.301C148.655 25.4775 148.132 26.0008 148.132 26.6462V39.2679C148.132 39.9134 148.655 40.4366 149.301 40.4366H161.922C162.568 40.4366 163.091 39.9134 163.091 39.2679V26.6462C163.091 26.0008 162.568 25.4775 161.922 25.4775Z" fill="white"/>
<path d="M70.4148 56.3301H57.7931C57.1477 56.3301 56.6244 56.8533 56.6244 57.4988V70.1205C56.6244 70.7659 57.1477 71.2892 57.7931 71.2892H70.4148C71.0603 71.2892 71.5835 70.7659 71.5835 70.1205V57.4988C71.5835 56.8533 71.0603 56.3301 70.4148 56.3301Z" fill="white"/>
<path d="M93.321 56.3301H80.6992C80.0538 56.3301 79.5305 56.8533 79.5305 57.4988V70.1205C79.5305 70.7659 80.0538 71.2892 80.6992 71.2892H93.321C93.9664 71.2892 94.4896 70.7659 94.4896 70.1205V57.4988C94.4896 56.8533 93.9664 56.3301 93.321 56.3301Z" fill="white"/>
<path d="M116.227 56.3301H103.605C102.96 56.3301 102.437 56.8533 102.437 57.4988V70.1205C102.437 70.7659 102.96 71.2892 103.605 71.2892H116.227C116.873 71.2892 117.396 70.7659 117.396 70.1205V57.4988C117.396 56.8533 116.873 56.3301 116.227 56.3301Z" fill="white"/>
<path d="M139.133 56.3301H126.511C125.866 56.3301 125.343 56.8533 125.343 57.4988V70.1205C125.343 70.7659 125.866 71.2892 126.511 71.2892H139.133C139.779 71.2892 140.302 70.7659 140.302 70.1205V57.4988C140.302 56.8533 139.779 56.3301 139.133 56.3301Z" fill="white"/>
<path d="M162.039 56.3301H149.418C148.772 56.3301 148.249 56.8533 148.249 57.4988V70.1205C148.249 70.7659 148.772 71.2892 149.418 71.2892H162.039C162.685 71.2892 163.208 70.7659 163.208 70.1205V57.4988C163.208 56.8533 162.685 56.3301 162.039 56.3301Z" fill="white"/>
<path d="M70.5317 87.1836H57.91C57.2645 87.1836 56.7413 87.7068 56.7413 88.3523V100.974C56.7413 101.619 57.2645 102.143 57.91 102.143H70.5317C71.1772 102.143 71.7004 101.619 71.7004 100.974V88.3523C71.7004 87.7068 71.1772 87.1836 70.5317 87.1836Z" fill="white"/>
<path d="M93.4378 87.1836H80.8161C80.1707 87.1836 79.6474 87.7068 79.6474 88.3523V100.974C79.6474 101.619 80.1707 102.143 80.8161 102.143H93.4378C94.0833 102.143 94.6065 101.619 94.6065 100.974V88.3523C94.6065 87.7068 94.0833 87.1836 93.4378 87.1836Z" fill="white"/>
<path d="M116.344 87.1836H103.722C103.077 87.1836 102.554 87.7068 102.554 88.3523V100.974C102.554 101.619 103.077 102.143 103.722 102.143H116.344C116.989 102.143 117.513 101.619 117.513 100.974V88.3523C117.513 87.7068 116.989 87.1836 116.344 87.1836Z" fill="white"/>
<path d="M139.25 87.1836H126.628C125.983 87.1836 125.46 87.7068 125.46 88.3523V100.974C125.46 101.619 125.983 102.143 126.628 102.143H139.25C139.895 102.143 140.419 101.619 140.419 100.974V88.3523C140.419 87.7068 139.895 87.1836 139.25 87.1836Z" fill="white"/>
<path d="M162.156 87.1836H149.534C148.889 87.1836 148.366 87.7068 148.366 88.3523V100.974C148.366 101.619 148.889 102.143 149.534 102.143H162.156C162.802 102.143 163.325 101.619 163.325 100.974V88.3523C163.325 87.7068 162.802 87.1836 162.156 87.1836Z" fill="white"/>
<path d="M57.7931 9.58301H43.3015V10.7517H57.7931V9.58301Z" fill="white"/>
<path d="M158.066 9.58301H143.574V10.7517H158.066V9.58301Z" fill="white"/>
<path d="M175.83 9.58301H161.338V10.7517H175.83V9.58301Z" fill="white"/>
<path d="M71.5835 26.4121H58.9618C58.3164 26.4121 57.7931 26.9353 57.7931 27.5808V40.2025C57.7931 40.848 58.3164 41.3712 58.9618 41.3712H71.5835C72.229 41.3712 72.7522 40.848 72.7522 40.2025V27.5808C72.7522 26.9353 72.229 26.4121 71.5835 26.4121Z" fill="#5683FF"/>
<path d="M94.4896 26.4121H81.8679C81.2225 26.4121 80.6992 26.9353 80.6992 27.5808V40.2025C80.6992 40.848 81.2225 41.3712 81.8679 41.3712H94.4896C95.1351 41.3712 95.6583 40.848 95.6583 40.2025V27.5808C95.6583 26.9353 95.1351 26.4121 94.4896 26.4121Z" fill="#5683FF"/>
<path d="M117.396 26.4121H104.774C104.129 26.4121 103.605 26.9353 103.605 27.5808V40.2025C103.605 40.848 104.129 41.3712 104.774 41.3712H117.396C118.041 41.3712 118.564 40.848 118.564 40.2025V27.5808C118.564 26.9353 118.041 26.4121 117.396 26.4121Z" fill="#5683FF"/>
<path d="M140.302 26.4121H127.68C127.035 26.4121 126.511 26.9353 126.511 27.5808V40.2025C126.511 40.848 127.035 41.3712 127.68 41.3712H140.302C140.947 41.3712 141.471 40.848 141.471 40.2025V27.5808C141.471 26.9353 140.947 26.4121 140.302 26.4121Z" fill="#5683FF"/>
<path d="M163.208 26.4121H150.586C149.941 26.4121 149.418 26.9353 149.418 27.5808V40.2025C149.418 40.848 149.941 41.3712 150.586 41.3712H163.208C163.853 41.3712 164.377 40.848 164.377 40.2025V27.5808C164.377 26.9353 163.853 26.4121 163.208 26.4121Z" fill="#5683FF"/>
<path d="M71.5835 57.2656H58.9618C58.3164 57.2656 57.7931 57.7889 57.7931 58.4343V71.056C57.7931 71.7015 58.3164 72.2247 58.9618 72.2247H71.5835C72.229 72.2247 72.7522 71.7015 72.7522 71.056V58.4343C72.7522 57.7889 72.229 57.2656 71.5835 57.2656Z" fill="#5683FF"/>
<path d="M94.4896 57.2656H81.8679C81.2225 57.2656 80.6992 57.7889 80.6992 58.4343V71.056C80.6992 71.7015 81.2225 72.2247 81.8679 72.2247H94.4896C95.1351 72.2247 95.6583 71.7015 95.6583 71.056V58.4343C95.6583 57.7889 95.1351 57.2656 94.4896 57.2656Z" fill="#5683FF"/>
<path d="M117.396 57.2656H104.774C104.129 57.2656 103.605 57.7889 103.605 58.4343V71.056C103.605 71.7015 104.129 72.2247 104.774 72.2247H117.396C118.041 72.2247 118.564 71.7015 118.564 71.056V58.4343C118.564 57.7889 118.041 57.2656 117.396 57.2656Z" fill="#5683FF"/>
<path d="M140.302 57.2656H127.68C127.035 57.2656 126.511 57.7889 126.511 58.4343V71.056C126.511 71.7015 127.035 72.2247 127.68 72.2247H140.302C140.947 72.2247 141.471 71.7015 141.471 71.056V58.4343C141.471 57.7889 140.947 57.2656 140.302 57.2656Z" fill="#5683FF"/>
<path d="M163.208 57.2656H150.586C149.941 57.2656 149.418 57.7889 149.418 58.4343V71.056C149.418 71.7015 149.941 72.2247 150.586 72.2247H163.208C163.853 72.2247 164.377 71.7015 164.377 71.056V58.4343C164.377 57.7889 163.853 57.2656 163.208 57.2656Z" fill="#5683FF"/>
<path d="M71.5835 88.1182H58.9618C58.3164 88.1182 57.7931 88.6414 57.7931 89.2868V101.909C57.7931 102.554 58.3164 103.077 58.9618 103.077H71.5835C72.229 103.077 72.7522 102.554 72.7522 101.909V89.2868C72.7522 88.6414 72.229 88.1182 71.5835 88.1182Z" fill="#5683FF"/>
<path d="M117.396 88.1182H104.774C104.129 88.1182 103.605 88.6414 103.605 89.2868V101.909C103.605 102.554 104.129 103.077 104.774 103.077H117.396C118.041 103.077 118.564 102.554 118.564 101.909V89.2868C118.564 88.6414 118.041 88.1182 117.396 88.1182Z" fill="#5683FF"/>
<path d="M140.302 88.1182H127.68C127.035 88.1182 126.511 88.6414 126.511 89.2868V101.909C126.511 102.554 127.035 103.077 127.68 103.077H140.302C140.947 103.077 141.471 102.554 141.471 101.909V89.2868C141.471 88.6414 140.947 88.1182 140.302 88.1182Z" fill="#5683FF"/>
<path d="M163.208 88.1182H150.586C149.941 88.1182 149.418 88.6414 149.418 89.2868V101.909C149.418 102.554 149.941 103.077 150.586 103.077H163.208C163.853 103.077 164.377 102.554 164.377 101.909V89.2868C164.377 88.6414 163.853 88.1182 163.208 88.1182Z" fill="#5683FF"/>
<path d="M85.1231 167.517C85.1231 167.517 89.5622 176.117 92.0592 178.059C94.5561 180.001 88.0363 182.36 88.0363 182.36L80.4066 170.43L85.1231 167.517Z" fill="#FFB8B8"/>
<path d="M58.2113 146.57C58.2113 146.57 78.8807 151.98 80.6841 155.587C82.4874 159.194 88.0363 167.933 88.0363 167.933L79.8517 174.453L71.8059 162.384L49.6106 152.397L58.2113 146.57Z" fill="#2F2E41"/>
<path d="M87.3427 178.892C87.3427 178.892 85.4006 177.228 84.8457 178.337C84.2908 179.447 82.6262 185.135 82.6262 185.135C82.6262 185.135 84.9844 187.354 89.8396 185.967C89.8396 185.967 91.0881 184.996 93.0302 185.967C94.9723 186.938 102.186 184.996 101.908 181.805C101.631 178.615 94.2787 178.892 94.2787 178.892C94.2787 178.892 91.182 175.423 90.7883 176.741C90.3945 178.06 90.9494 178.199 90.9494 178.199C90.9494 178.199 88.4524 180.834 87.3427 178.892Z" fill="#2F2E41"/>
<path d="M63.6214 175.979L62.2342 187.631H69.0315C69.0315 187.631 68.4766 178.614 68.6153 177.504C68.754 176.395 63.6214 175.979 63.6214 175.979Z" fill="#FFB8B8"/>
<path d="M67.5055 150.315C67.5055 150.315 71.251 155.864 69.0314 156.28C66.8119 156.697 65.0086 150.315 65.0086 150.315H67.5055Z" fill="#FFB8B8"/>
<path d="M39.2066 149.76C39.2066 149.76 36.4322 157.945 47.3911 160.164C58.35 162.384 61.6793 164.187 61.6793 164.187L63.0665 178.337L72.6383 178.891C72.6383 178.891 77.216 157.39 71.251 154.615C65.2861 151.841 52.6625 148.65 52.6625 148.65L39.2066 149.76Z" fill="#2F2E41"/>
<path d="M63.0665 185.828C63.0665 185.828 65.0086 184.857 65.2861 184.857C65.2861 184.857 66.5054 182.045 68.7395 182.341L73.6093 189.435C73.6093 189.435 80.9615 194.706 75.8288 196.094C70.6962 197.481 66.6733 196.371 66.6733 196.371L64.5925 194.845C64.5925 194.845 64.8699 193.319 63.0665 193.597C63.0665 193.597 59.3211 192.071 59.4598 190.961C59.5985 189.851 62.5451 185.021 62.5451 185.021L63.0665 185.828Z" fill="#2F2E41"/>
<path d="M64.2457 122.779C67.3102 122.779 69.7945 120.295 69.7945 117.23C69.7945 114.166 67.3102 111.682 64.2457 111.682C61.1811 111.682 58.6968 114.166 58.6968 117.23C58.6968 120.295 61.1811 122.779 64.2457 122.779Z" fill="#FFB8B8"/>
<path d="M59.7372 115.496C59.7372 115.496 54.7433 119.103 53.7722 119.242C52.8012 119.38 58.35 126.178 58.35 126.178C58.35 126.178 60.9857 121.877 62.6503 121.322C64.315 120.767 59.7372 115.496 59.7372 115.496Z" fill="#FFB8B8"/>
<path d="M60.8316 127.62L65.5635 144.074L69.0315 151.981C69.0315 151.981 65.286 150.691 65.0086 152.238L59.4598 144.212L60.8316 127.62Z" fill="#D0CDE1"/>
<path opacity="0.1" d="M60.8316 127.62L65.5635 144.074L69.0315 151.981C69.0315 151.981 65.286 150.691 65.0086 152.238L59.4598 144.212L60.8316 127.62Z" fill="black"/>
<path d="M62.9981 112.68L66.0168 113.057C65.9591 113.671 65.9752 114.432 66.5195 114.723C66.7753 114.859 67.1 114.852 67.3268 115.033C67.8723 115.468 67.3387 116.403 67.6467 117.029L68.5295 117.263C68.6356 117.461 68.7799 117.637 68.954 117.779C69.1282 117.922 69.3288 118.028 69.5443 118.093C69.7599 118.158 69.9861 118.179 70.2099 118.156C70.4337 118.133 70.6508 118.066 70.8485 117.958C71.4418 117.602 71.7441 116.921 72.011 116.283C72.33 115.52 72.6554 114.701 72.4958 113.889C72.3243 113.018 71.6123 112.294 71.5799 111.406C71.5655 111.009 71.6493 110.514 71.3146 110.3C71.1606 110.227 70.9948 110.183 70.8251 110.17C70.0539 110.009 69.6245 109.211 69.0494 108.672C67.8441 107.544 65.9932 107.573 64.3451 107.672C63.8734 107.674 63.4053 107.755 62.9608 107.913C62.4583 108.165 62.014 108.519 61.6565 108.953C60.7726 109.896 59.9121 110.883 59.329 112.037C58.746 113.19 58.4587 114.537 58.7756 115.79C58.7444 115.669 59.7934 114.881 59.924 114.754C60.334 114.357 60.3713 114.168 60.5931 113.711C61.1103 112.646 61.8295 112.534 62.9981 112.68Z" fill="#2F2E41"/>
<path d="M55.9917 120.074C55.9917 120.074 53.9109 117.3 52.6625 117.3C51.414 117.3 44.0387 119.494 43.0677 128.788C42.0967 138.082 38.7904 153.367 38.7904 153.367C38.7904 153.367 37.9581 149.344 47.2524 151.009C47.2524 151.009 58.35 148.651 60.2921 148.651C62.2342 148.651 61.0653 128.554 61.0653 128.554L59.908 123.917C59.908 123.917 58.4887 126.594 55.9917 120.074Z" fill="#D0CDE1"/>
<path d="M75.0896 139.073H62.4678C61.8224 139.073 61.2992 139.596 61.2992 140.242V152.864C61.2992 153.509 61.8224 154.032 62.4678 154.032H75.0896C75.735 154.032 76.2582 153.509 76.2582 152.864V140.242C76.2582 139.596 75.735 139.073 75.0896 139.073Z" fill="#F8B932"/>
<path opacity="0.1" d="M54.1189 130.548L54.5352 140.258L60.7058 147.494L55.0901 139.426L54.1189 130.548Z" fill="black"/>
<path opacity="0.1" d="M43.0214 133.184L47.8765 144.42L54.1189 149.553L47.4605 144.975L43.0214 133.184Z" fill="black"/>
<path d="M63.4699 149.014C63.4699 149.014 68.9725 152.827 67.0549 154.019C65.1373 155.212 61.1429 149.919 61.1429 149.919L63.4699 149.014Z" fill="#FFB8B8"/>
<path d="M47.1137 120.768C47.1137 120.768 43.0898 132.421 43.7218 134.042C45.7097 139.142 47.946 143.934 47.946 143.934L54.216 149.603L62.6503 151.98L63.6214 151.147C63.6214 151.147 63.8988 148.512 62.6503 148.234C61.4019 147.957 59.4598 146.847 59.4598 146.847L54.4658 139.495C54.4658 139.495 54.3271 121.184 47.1137 120.768Z" fill="#D0CDE1"/>
<path d="M234.332 144.102C234.339 158.835 225.583 163.982 214.78 163.987C214.529 163.988 214.28 163.985 214.031 163.979C213.53 163.969 213.035 163.946 212.545 163.912C202.794 163.226 195.216 157.822 195.209 144.121C195.202 129.942 213.316 112.039 214.674 110.716C214.675 110.716 214.675 110.716 214.676 110.714C214.728 110.664 214.754 110.639 214.754 110.639C214.754 110.639 234.325 129.371 234.332 144.102Z" fill="#F8B932"/>
<path d="M214.067 161.735L221.217 151.735L214.05 162.833L214.031 163.98C213.53 163.97 213.035 163.947 212.545 163.913L213.308 149.174L213.302 149.06L213.315 149.038L213.388 147.645L206.192 136.528L213.409 146.602L213.427 146.897L214.004 135.761L207.843 124.272L214.079 133.804L214.674 110.716L214.676 110.64L214.676 110.715L214.584 128.922L220.707 121.701L214.559 130.49L214.401 140.462L220.12 130.89L214.379 141.927L214.292 147.472L222.591 134.148L214.261 149.406L214.067 161.735Z" fill="#3F3D56"/>
<path d="M232.256 163.766H195.23V164.204H232.256V163.766Z" fill="#3F3D56"/>
<path d="M23.764 163.766H5.65845V164.204H23.764V163.766Z" fill="#3F3D56"/>
<path d="M202.648 82.0942C202.128 82.0942 201.62 81.94 201.188 81.6511C200.755 81.3622 200.418 80.9516 200.219 80.4712C200.02 79.9908 199.968 79.4621 200.07 78.9521C200.171 78.4421 200.422 77.9737 200.789 77.606C201.157 77.2383 201.625 76.9879 202.135 76.8865C202.645 76.785 203.174 76.8371 203.655 77.0361C204.135 77.2351 204.546 77.572 204.834 78.0044C205.123 78.4368 205.278 78.9451 205.278 79.4651C205.277 80.1621 205 80.8304 204.507 81.3233C204.014 81.8162 203.345 82.0934 202.648 82.0942ZM202.648 77.2741C202.215 77.2741 201.791 77.4026 201.431 77.6434C201.071 77.8841 200.79 78.2263 200.624 78.6266C200.458 79.027 200.415 79.4675 200.5 79.8925C200.584 80.3175 200.793 80.7079 201.099 81.0143C201.406 81.3207 201.796 81.5294 202.221 81.6139C202.646 81.6984 203.087 81.655 203.487 81.4892C203.887 81.3234 204.229 81.0426 204.47 80.6823C204.711 80.322 204.839 79.8984 204.839 79.4651C204.839 78.8842 204.608 78.3273 204.197 77.9166C203.786 77.5058 203.229 77.2748 202.648 77.2741V77.2741Z" fill="#3F3D56"/>
<path d="M240 72.2218H234.304V66.5254H240V72.2218ZM234.742 71.7836H239.562V66.9636H234.742V71.7836Z" fill="#3F3D56"/>
</g>
<defs>
<clipPath id="clip0">
<rect width="240" height="196.791" fill="white"/>
</clipPath>
</defs>
</svg>
