<svg width="48" height="48" viewBox="0 0 48 48" fill="none" xmlns="http://www.w3.org/2000/svg">
<g clip-path="url(#clip0)">
<path d="M3.20007 17.5996H44.8002C46.1255 17.5996 47.2003 18.6741 47.2003 19.9994V44.7996C47.2003 46.1249 46.1255 47.1997 44.8002 47.1997H3.20007C1.87476 47.1997 0.800293 46.1249 0.800293 44.7996V19.9994C0.800293 18.6741 1.87476 17.5996 3.20007 17.5996Z" fill="#D4E1F4"/>
<path d="M47.2003 19.9994V29.5996H0.800293V19.9994C0.800293 18.6741 1.87476 17.5996 3.20007 17.5996H44.8002C46.1255 17.5996 47.2003 18.6741 47.2003 19.9994Z" fill="#7FACFA"/>
<path d="M44.8002 19.9994V29.5996H0.800293V19.9994C0.800293 18.6741 1.87476 17.5996 3.20007 17.5996H42.4C43.7257 17.5996 44.8002 18.6741 44.8002 19.9994Z" fill="#A4C2F7"/>
<path d="M36.2561 5.55981L35.4801 2.05554C35.3171 1.32422 34.6697 0.803101 33.92 0.799805H16.0002C15.1177 0.802368 14.4028 1.51721 14.4002 2.39978V11.8718C14.3955 12.7643 14.8562 13.5948 15.6161 14.0636C15.9336 14.2643 16.2972 14.38 16.6722 14.3998C17.3307 14.4349 17.9745 14.1976 18.4527 13.7435C18.9306 13.2898 19.2009 12.6592 19.2002 11.9996C19.2002 13.3253 20.2746 14.3998 21.6003 14.3998C22.9256 14.3998 24.0001 13.3253 24.0001 11.9996C24.0001 13.3253 25.0746 14.3998 26.4002 14.3998C26.8236 14.399 27.24 14.2888 27.608 14.0797C28.3456 13.6461 28.7989 12.8551 28.8 11.9996C28.7975 12.8518 29.2527 13.6399 29.992 14.0636C30.3927 14.3097 30.8589 14.4269 31.328 14.3998C32.631 14.283 33.6227 13.1796 33.6003 11.8718V9.59985L34.5682 9.11975C35.8811 8.46094 36.5772 6.99316 36.2561 5.55981Z" fill="#D4E1F4"/>
<path d="M34.5682 9.11975L33.6003 9.59985V11.8718C33.6227 13.1796 32.631 14.283 31.328 14.3998C30.8589 14.4269 30.3927 14.3097 29.9921 14.0636C30.7439 13.5883 31.1998 12.761 31.2002 11.8718V9.59985L32.1681 9.11975C33.4813 8.46094 34.1775 6.99316 33.8563 5.55981L33.0803 2.05554C32.917 1.32422 32.2695 0.803101 31.5203 0.799805H33.92C34.6697 0.803101 35.3171 1.32422 35.4801 2.05554L36.2561 5.55981C36.5773 6.99316 35.8811 8.46094 34.5682 9.11975Z" fill="#A4C2F7"/>
<path d="M32.1681 9.11975L31.2002 9.59985V11.8718C31.1998 12.761 30.7439 13.5883 29.992 14.0636C29.2527 13.6399 28.7975 12.8518 28.8 11.9996C28.7989 12.8551 28.3455 13.6461 27.608 14.0797C27.24 14.2888 26.8236 14.399 26.4002 14.3998C25.0746 14.3998 24.0001 13.3253 24.0001 11.9996C24.0001 13.3253 22.9256 14.3998 21.6003 14.3998C20.2746 14.3998 19.2002 13.3253 19.2002 11.9996C19.2009 12.6592 18.9306 13.2898 18.4527 13.7435C17.9745 14.1976 17.3307 14.4349 16.6722 14.3998C16.2972 14.38 15.9336 14.2643 15.6161 14.0636C14.8562 13.5948 14.3955 12.7643 14.4002 11.8718V2.39978C14.4028 1.51721 15.1177 0.802368 16.0002 0.799805H31.5202C32.2695 0.803101 32.917 1.32422 33.0803 2.05554L33.8563 5.55981C34.1775 6.99316 33.4813 8.46094 32.1681 9.11975Z" fill="#D4E1F4"/>
<path d="M29.1505 33.6005H18.8497C18.1155 33.6005 17.475 33.101 17.297 32.3883L16.2489 28.1948C16.1892 27.9557 16.2427 27.7023 16.3943 27.5082C16.5459 27.3137 16.7784 27.2002 17.0249 27.2002H30.9753C31.2218 27.2002 31.4544 27.3137 31.606 27.5082C31.7576 27.7023 31.8114 27.9557 31.7513 28.1948L30.7033 32.3883C30.5253 33.101 29.8851 33.6005 29.1505 33.6005Z" fill="#D4E1F4"/>
<path d="M26.4003 33.6006V36.8005C26.405 37.8175 25.7616 38.7246 24.8003 39.0564C24.2839 39.2483 23.7163 39.2483 23.2003 39.0564C22.2386 38.7246 21.5952 37.8175 21.6003 36.8005L21.6 33.6006H26.4003Z" fill="#A4C2F7"/>
<path d="M3.20007 47.1997H5.60022C4.27454 47.1997 3.20007 46.1249 3.20007 44.7996V19.9994C3.20007 18.6741 4.27454 17.5996 5.60022 17.5996H3.20007C1.87476 17.5996 0.800293 18.6741 0.800293 19.9994V44.7996C0.800293 46.1249 1.87476 47.1997 3.20007 47.1997Z" fill="white"/>
<path d="M15.6161 14.0636C15.9336 14.2643 16.2972 14.38 16.6722 14.3998C17.1366 14.4243 17.598 14.3134 18.0001 14.0797C18.0074 14.0757 18.0122 14.0691 18.0195 14.0654C17.2578 13.597 16.7956 12.7657 16.8 11.8718V2.39978C16.803 1.51721 17.5174 0.802368 18.4 0.799805H16.0002C15.1177 0.802368 14.4028 1.51721 14.4002 2.39978V11.8718C14.3955 12.7643 14.8562 13.5948 15.6161 14.0636Z" fill="white"/>
<path d="M0.00012207 44.8002V20H1.6001V44.8002H0.00012207Z" fill="white"/>
<path d="M0.496338 39.1355C0.541382 39.1589 0.590088 39.175 0.640259 39.1838C0.692993 39.1926 0.74646 39.1978 0.800293 39.1996C1.01196 39.1967 1.21484 39.1139 1.36829 38.9678C1.44043 38.8912 1.49756 38.8015 1.53601 38.7037C1.65686 38.4053 1.59094 38.064 1.36829 37.8318C1.29175 37.7593 1.20203 37.7021 1.10425 37.6637C1.00793 37.6227 0.904663 37.6011 0.800293 37.5996C0.588257 37.6029 0.385742 37.6857 0.2323 37.8318C-0.0771484 38.1471 -0.0771484 38.6521 0.2323 38.9678L0.352051 39.0637C0.396729 39.0941 0.445068 39.1183 0.496338 39.1355Z" fill="#428DFF"/>
<path d="M44.8002 16.7999H37.6001V13.6C37.5953 11.963 36.7582 10.4407 35.3787 9.55922C36.7384 8.64296 37.3979 6.98695 37.0402 5.38661L36.2594 1.88014C36.021 0.779678 35.0458 -0.00401287 33.92 1.54582e-05H16.0002C14.6746 1.54582e-05 13.6001 1.07448 13.6001 2.40016V9.08498C11.687 9.7632 10.4064 11.5704 10.4001 13.6V16.7999H3.20007C1.43274 16.7999 0.00012207 18.2326 0.00012207 19.9999V35.2002C0.00012207 35.6419 0.358276 36 0.800293 36C1.24194 36 1.6001 35.6419 1.6001 35.2002V30.3999H15.9753L16.521 32.5833C16.7887 33.6515 17.7485 34.4004 18.8497 34.4H20.8002V36.8002C20.8002 38.5675 22.2328 40.0001 24.0001 40.0001C25.7675 40.0001 27.2001 38.5675 27.2001 36.8002V34.4H29.1505C30.2521 34.4004 31.2123 33.6508 31.4792 32.5825L32.0249 30.3999H46.4001V44.8001C46.4001 45.6837 45.6838 46.4 44.8002 46.4H38.4003V38.4002C38.4003 37.9581 38.0421 37.6 37.6001 37.6C37.1584 37.6 36.8003 37.9581 36.8003 38.4002V46.4H11.2003V38.4002C11.2003 37.9581 10.8422 37.6 10.4001 37.6C9.9585 37.6 9.60034 37.9581 9.60034 38.4002V46.4H3.20007C2.31641 46.4 1.6001 45.6837 1.6001 44.8001V41.6001C1.6001 41.1581 1.24194 40.7999 0.800293 40.7999C0.358276 40.7999 0.00012207 41.1581 0.00012207 41.6001V44.8001C0.00012207 46.5674 1.43274 48 3.20007 48H44.8002C46.5675 48 48.0001 46.5674 48.0001 44.8001V19.9999C48.0001 18.2326 46.5675 16.7999 44.8002 16.7999ZM15.2001 2.40016C15.2001 1.95815 15.5582 1.59999 16.0002 1.59999H33.92C34.2947 1.60182 34.6184 1.86147 34.7019 2.22658L35.4794 5.73451C35.7009 6.72878 35.2677 7.75453 34.4001 8.28883V6.39992C34.4001 5.95827 34.042 5.60011 33.6003 5.60011C33.1583 5.60011 32.8002 5.95827 32.8002 6.39992V11.8682C32.8262 12.7548 32.1626 13.5106 31.28 13.6C30.842 13.622 30.4143 13.463 30.0968 13.1605C29.7793 12.858 29.5995 12.4387 29.6002 12V7.20009C29.6002 6.75807 29.2421 6.39992 28.8 6.39992C28.3584 6.39992 28.0002 6.75807 28.0002 7.20009V12C28.0002 12.8837 27.2839 13.6 26.4003 13.6C25.5166 13.6 24.8003 12.8837 24.8003 12V7.20009C24.8003 6.75807 24.4421 6.39992 24.0001 6.39992C23.5585 6.39992 23.2003 6.75807 23.2003 7.20009V12C23.2003 12.8837 22.4836 13.6 21.6003 13.6C20.7167 13.6 20 12.8837 20 12V7.20009C20 6.75807 19.6418 6.39992 19.2002 6.39992C18.7582 6.39992 18.4 6.75807 18.4 7.20009V12C18.4008 12.4387 18.2213 12.858 17.9034 13.1605C17.5859 13.463 17.1582 13.622 16.7202 13.6C15.8376 13.5106 15.1741 12.7548 15.2001 11.8682V2.40016ZM12.0001 13.6C12.0031 12.4589 12.6124 11.4053 13.6001 10.8336V11.8682C13.5613 13.6106 14.8969 15.0766 16.6353 15.2H16.8026C17.6233 15.2029 18.4136 14.8876 19.0065 14.32C19.0746 14.2551 19.1401 14.1874 19.2017 14.1178C19.8092 14.8063 20.6833 15.2011 21.6018 15.2011C22.5203 15.2011 23.3944 14.8063 24.0016 14.1178C24.6091 14.8063 25.4833 15.2011 26.4017 15.2011C27.3202 15.2011 28.1943 14.8063 28.8019 14.1178C28.8634 14.1874 28.929 14.2551 28.9971 14.32C29.6324 14.9253 30.4883 15.2432 31.365 15.2C33.1034 15.0766 34.439 13.6106 34.4001 11.8682V10.8336C35.3878 11.4053 35.9972 12.4589 36.0001 13.6V16.7999H12.0001V13.6ZM25.6001 36.8002C25.5986 37.3693 25.2936 37.8941 24.8003 38.1775V37.6C24.8003 37.1583 24.4421 36.8002 24.0001 36.8002C23.5585 36.8002 23.2003 37.1583 23.2003 37.6V38.1775C22.7067 37.8941 22.402 37.3693 22.4001 36.8002V34.4H25.6001V36.8002ZM29.1505 32.8001H18.8497C18.4824 32.8004 18.1624 32.5507 18.073 32.1944L17.0249 28.0001H30.9753L29.9272 32.1936C29.8383 32.5503 29.5182 32.8004 29.1505 32.8001ZM32.4248 28.7999L32.5281 28.3872C32.6475 27.9093 32.5398 27.4032 32.2366 27.015C31.933 26.6268 31.4679 26.3998 30.9753 26.4002H17.0249C16.5323 26.3998 16.0673 26.6268 15.764 27.015C15.4604 27.4032 15.3528 27.9093 15.4722 28.3872L15.5754 28.7999H1.6001V19.9999C1.6001 19.1162 2.31641 18.3999 3.20007 18.3999H44.8002C45.6838 18.3999 46.4001 19.1162 46.4001 19.9999V28.7999H32.4248Z" fill="#428DFF"/>
<path d="M26.4003 29.5996H21.6003C21.1583 29.5996 20.8002 29.9578 20.8002 30.3994C20.8002 30.8414 21.1583 31.1996 21.6003 31.1996H26.4003C26.8419 31.1996 27.2001 30.8414 27.2001 30.3994C27.2001 29.9578 26.8419 29.5996 26.4003 29.5996Z" fill="#428DFF"/>
</g>
<defs>
<clipPath id="clip0">
<rect x="0.00012207" width="48" height="48" fill="white"/>
</clipPath>
</defs>
</svg>
