<svg width="49" height="48" viewBox="0 0 49 48" fill="none" xmlns="http://www.w3.org/2000/svg">
<g clip-path="url(#clip0)">
<path d="M44.1949 12.0004V39.2003H5.7948V12.0004C5.79736 11.1178 6.51221 10.403 7.39478 10.4004H42.595C43.4775 10.403 44.1924 11.1178 44.1949 12.0004Z" fill="#7FACFA"/>
<path d="M41.7948 12.0004V39.2003H5.7948V12.0004C5.79736 11.1178 6.51221 10.403 7.39478 10.4004H40.1948C41.0774 10.403 41.7922 11.1178 41.7948 12.0004Z" fill="#A4C2F7"/>
<path d="M44.1949 8.80017V20.0322C43.379 19.896 42.5789 19.7682 41.7948 19.6642C23.2188 17.1282 11.8428 23.464 5.7948 28.792V8.80017C5.79736 7.9176 6.51221 7.20276 7.39478 7.2002H42.595C43.4775 7.20276 44.1924 7.9176 44.1949 8.80017Z" fill="#D4E1F4"/>
<path d="M42.595 10.4001H41.7948V9.09607C41.8655 8.1344 41.1547 7.29248 40.1948 7.2002H7.39478C6.51221 7.20276 5.79736 7.9176 5.7948 8.80017V35.2H44.1949V12.0001C44.1924 11.1176 43.4775 10.4027 42.595 10.4001Z" fill="url(#paint0_linear)"/>
<path d="M28.1062 23.6411V24.8492C28.193 26.3137 29.337 27.4951 30.7982 27.6284L33.1182 27.8683C34.538 28.0159 35.6168 29.2123 35.6172 30.6398V31.7556C35.6165 32.3324 35.1484 32.7997 34.5717 32.7997H16.4406C15.863 32.7997 15.395 32.3317 15.395 31.7542V30.6398C15.3947 29.2108 16.475 28.0133 17.8966 27.8668L19.8262 27.627C21.2485 27.4775 22.3285 26.2778 22.3285 24.8478V23.6396L28.1062 23.6411Z" fill="#A4C2F7"/>
<path d="M25.2171 13.5996H25.9166C27.7872 13.656 29.2718 15.1945 29.2612 17.0662V17.4939C29.6021 17.3203 29.5157 17.2917 29.8398 17.4243C30.5733 17.7444 30.8157 18.8284 30.3763 19.8508C30.0299 20.6605 29.8164 21.1974 29.1923 21.226C28.8627 23.1965 27.2851 25.1547 25.2171 25.1547C23.1491 25.1547 21.5715 23.1995 21.2419 21.226C20.6179 21.1974 20.4044 20.6605 20.0572 19.8508C19.6181 18.8284 19.8613 17.7422 20.5948 17.4243C20.9149 17.2917 20.8347 17.3203 21.1723 17.4939V17.0662C21.1624 15.1956 22.6452 13.6578 24.5147 13.5996H25.2171Z" fill="#D4E1F4"/>
<path d="M35.6172 30.6406V31.7565C35.6165 32.3333 35.1485 32.8005 34.5717 32.8005H16.4406C15.863 32.8005 15.395 32.3325 15.395 31.755V30.6406C15.3947 29.2117 16.475 28.0142 17.8966 27.8677L20.1949 27.6868C21.1716 28.9172 22.5999 28.8004 25.2172 28.8004C27.8572 28.8004 29.63 28.8997 30.595 27.6582L33.1156 27.8662C34.5376 28.0127 35.6183 29.2109 35.6172 30.6406Z" fill="#E3E7F2"/>
<path d="M48.1946 40.8002C48.2807 42.7103 47.3996 44.5352 45.8509 45.6561C44.1711 46.7445 42.1946 47.2843 40.1948 47.2001H9.79487C5.37873 47.2001 1.79499 45.2163 1.79499 40.8002C1.79242 40.3758 1.96308 39.9685 2.26667 39.6723C2.5633 39.3683 2.97053 39.198 3.39496 39.2002H46.5947C47.4772 39.2028 48.1921 39.9176 48.1946 40.8002Z" fill="#A4C2F7"/>
<path d="M45.7949 40.8002C45.8806 42.7103 44.9995 44.5352 43.4508 45.6561C41.7709 46.7445 39.7945 47.2843 37.795 47.2001H9.79487C5.37873 47.2001 1.79499 45.2163 1.79499 40.8002C1.79242 40.3758 1.96308 39.9685 2.26667 39.6723C2.5633 39.3683 2.97053 39.198 3.39496 39.2002H44.1949C45.0775 39.2028 45.7923 39.9176 45.7949 40.8002Z" fill="#D4E1F4"/>
<path d="M34.5947 39.2002L33.1947 42.6964C33.0735 43.0007 32.7787 43.2007 32.4509 43.2003H17.5388C17.2111 43.2007 16.9163 43.0007 16.795 42.6964L15.395 39.2002H34.5947Z" fill="#A4C2F7"/>
<path d="M48.1947 1.59961V11.1995C48.1947 11.6415 47.8365 11.9996 47.3949 11.9996H38.0349C37.8767 11.9996 37.7222 12.0465 37.5907 12.134L34.2366 14.3741C33.9905 14.5367 33.6748 14.551 33.4152 14.4111C33.1555 14.2709 32.994 13.9995 32.9948 13.7043V12.7998C32.9948 12.3578 32.6366 11.9996 32.1949 11.9996H31.3948C30.9531 11.9996 30.595 11.6415 30.595 11.1995V1.59961C30.595 1.15796 30.9531 0.799805 31.3948 0.799805H47.3949C47.8365 0.799805 48.1947 1.15796 48.1947 1.59961Z" fill="#A4C2F7"/>
<path d="M48.1947 1.59961V11.1995C48.1947 11.6415 47.8365 11.9996 47.3949 11.9996H39.395V0.799805H47.3949C47.8365 0.799805 48.1947 1.15796 48.1947 1.59961Z" fill="#A4C2F7"/>
<path d="M45.7949 1.59961V11.1995C45.7949 11.6415 45.4368 11.9996 44.9948 11.9996H39.395V0.799805H44.9948C45.4368 0.799805 45.7949 1.15796 45.7949 1.59961Z" fill="#D4E1F4"/>
<path d="M38.5948 42.3994C38.5948 42.8414 38.2367 43.1996 37.795 43.1996C37.353 43.1996 36.9949 42.8414 36.9949 42.3994C36.9949 41.9578 37.353 41.5996 37.795 41.5996C38.2367 41.5996 38.5948 41.9578 38.5948 42.3994Z" fill="#428DFF"/>
<path d="M41.7948 42.3994C41.7948 42.8414 41.4366 43.1996 40.995 43.1996C40.553 43.1996 40.1948 42.8414 40.1948 42.3994C40.1948 41.9578 40.553 41.5996 40.995 41.5996C41.4366 41.5996 41.7948 41.9578 41.7948 42.3994Z" fill="#428DFF"/>
<path d="M8.19495 35.2V8.80017C8.19751 7.9176 8.91235 7.20276 9.79492 7.2002H7.39478C6.51221 7.20276 5.79736 7.9176 5.7948 8.80017V39.2001H8.19495V35.2Z" fill="white"/>
<path d="M9.79487 47.2001H12.1946C7.77888 47.2001 4.19477 45.2163 4.19477 40.8002C4.20136 39.9195 4.91401 39.2068 5.79474 39.2002H3.39496C2.97053 39.198 2.5633 39.3683 2.26667 39.6723C1.96308 39.9685 1.79242 40.3758 1.79499 40.8002C1.79499 45.2163 5.37873 47.2001 9.79487 47.2001Z" fill="white"/>
<path d="M6.59497 8.7998V39.1997H4.995V8.7998H6.59497Z" fill="white"/>
<path d="M46.5947 38.4004H44.9948V15.2002C44.9948 14.7585 44.6366 14.4004 44.1949 14.4004C43.7529 14.4004 43.3948 14.7585 43.3948 15.2002V35.2001H6.59497V18.4001C6.59497 17.9585 6.23682 17.6003 5.7948 17.6003C5.35315 17.6003 4.995 17.9585 4.995 18.4001V38.4004H3.39502C2.06934 38.4004 0.994873 39.4749 0.994873 40.8002C0.994873 45.2419 4.36694 48.0002 9.79492 48.0002H40.1948C45.6228 48.0002 48.9949 45.2419 48.9949 40.8002C48.9949 39.4749 47.9204 38.4004 46.5947 38.4004ZM43.3948 36.8004V38.4004H6.59497V36.8004H43.3948ZM17.5374 42.4001L16.5771 40.0004H24.1947V42.4001H17.5374ZM25.795 40.0004H33.4133L32.4531 42.4001H25.795V40.0004ZM40.1948 46.4003H9.79492C8.10596 46.4003 2.59485 45.9963 2.59485 40.8002C2.59485 40.3585 2.953 40.0004 3.39502 40.0004H14.8534L16.0531 42.993C16.2933 43.6017 16.8818 44.0016 17.5366 44.0001H32.4531C33.1083 44.0023 33.6979 43.6031 33.9388 42.9938L35.1364 40.0004H46.5947C47.0367 40.0004 47.3949 40.3585 47.3949 40.8002C47.3949 46.0004 41.8838 46.4003 40.1948 46.4003Z" fill="#428DFF"/>
<path d="M6.59497 8.80054C6.59497 8.35852 6.95312 8.00037 7.39478 8.00037H27.395C27.8367 8.00037 28.1948 7.64221 28.1948 7.20056C28.1948 6.75855 27.8367 6.40039 27.395 6.40039H7.39478C6.06946 6.40039 4.995 7.47485 4.995 8.80054V12.0005C4.995 12.4421 5.35315 12.8007 5.7948 12.8007C6.23682 12.8007 6.59497 12.4421 6.59497 12.0005V8.80054Z" fill="#428DFF"/>
<path d="M6.09878 14.4641C6.05373 14.441 6.00503 14.4249 5.95486 14.4161C5.90212 14.4073 5.84865 14.4019 5.79482 14.4004C5.58315 14.4033 5.38027 14.4861 5.22683 14.6322C5.15468 14.7087 5.09756 14.7985 5.05874 14.8962C4.93825 15.1947 5.00381 15.536 5.22683 15.7682C5.30337 15.8407 5.39309 15.8975 5.49087 15.9363C5.58718 15.9773 5.69045 15.9989 5.79482 16.0004C6.12002 16.0022 6.41372 15.8074 6.53823 15.5071C6.66311 15.2068 6.59353 14.8611 6.36282 14.6322L6.24306 14.5363C6.19839 14.5059 6.15005 14.4817 6.09878 14.4641Z" fill="#428DFF"/>
<path d="M29.8332 21.735C30.4338 21.3413 30.8732 20.7451 31.0717 20.0548C31.4101 19.3253 31.4471 18.4915 31.175 17.7349C30.9802 17.224 30.5854 16.8146 30.0819 16.6011C30.0548 16.5901 30.0284 16.5795 30.002 16.5707C29.7735 14.4584 28.0128 12.8441 25.8884 12.7998H24.4938C22.368 12.8437 20.6058 14.4609 20.3795 16.5758C20.3443 16.5883 20.307 16.6036 20.2685 16.6187C19.7793 16.8347 19.3973 17.2383 19.2091 17.7389C18.9337 18.5167 18.9798 19.3722 19.338 20.1156C19.5332 20.7843 19.9635 21.3593 20.5501 21.735C20.7852 22.6033 21.2104 23.4086 21.7949 24.0923V24.6075C21.6835 25.6025 21.0083 26.4437 20.0612 26.7675C19.9367 26.8063 19.8089 26.833 19.6796 26.8477L17.7845 27.0875C15.9648 27.2794 14.5864 28.8182 14.5948 30.6475V31.9995C14.6014 32.4635 14.8046 32.903 15.1544 33.208C15.5037 33.5131 15.9663 33.6555 16.427 33.5995H34.3629C34.8236 33.6555 35.2861 33.5131 35.6354 33.208C35.9848 32.903 36.1881 32.4635 36.1946 31.9995V30.6475C36.206 28.8164 34.8272 27.2754 33.0061 27.0835L30.6982 26.8436C30.5715 26.8301 30.4462 26.8033 30.3254 26.7638C30.3085 26.7579 30.2913 26.7535 30.2741 26.7499C29.1989 26.4045 28.194 25.374 28.194 24.6083V24.5083C28.9836 23.751 29.5505 22.7919 29.8332 21.735ZM21.2349 20.2852C21.0423 20.02 20.8896 19.7278 20.7819 19.418C20.6171 19.0792 20.5886 18.6899 20.7021 18.3307C20.7274 18.2615 20.768 18.1981 20.8204 18.1461C21.0679 18.2637 21.3584 18.2465 21.5898 18.1003C21.8216 17.9542 21.9626 17.7001 21.9637 17.4261V17.0068C21.9619 15.5958 23.0836 14.4401 24.4938 14.3998H25.8884C27.3001 14.4364 28.4251 15.5914 28.4251 17.0035V17.4229C28.4259 17.6971 28.5672 17.952 28.7994 18.0981C29.0316 18.2443 29.3223 18.2611 29.5699 18.1428C29.6215 18.1956 29.6618 18.2585 29.6875 18.3278C29.8013 18.7108 29.7622 19.1232 29.578 19.478C29.4802 19.7754 29.3242 20.05 29.1187 20.2859C28.7434 20.3035 28.4306 20.5803 28.3676 20.9509C28.1929 21.9683 27.6561 22.8885 26.8563 23.5411C26.8486 23.5485 26.8365 23.5525 26.8284 23.5605C26.3619 23.9297 25.7866 24.1344 25.1915 24.1428C23.5428 24.1428 22.2812 22.5198 22.0157 20.9517C21.9377 20.5774 21.6165 20.3035 21.2349 20.2852ZM34.5947 30.6475V31.9731C34.5192 31.9926 34.4409 32.0013 34.3629 31.9995H16.427C16.3486 32.001 16.2706 31.9922 16.1948 31.9731V30.6475C16.1871 29.6309 16.9547 28.7758 17.9661 28.6732L19.8532 28.4333C19.9536 28.4227 20.0535 28.4066 20.1524 28.3854C21.6978 29.2174 23.4322 29.6356 25.1867 29.5997C26.9464 29.6374 28.6851 29.2145 30.2309 28.3726C30.3342 28.3986 30.4389 28.4194 30.5444 28.4348L32.8413 28.6747C33.8465 28.7831 34.6053 29.6367 34.5947 30.6475ZM28.3317 27.4995C27.3184 27.8401 26.2557 28.0093 25.1867 27.9998C24.0888 28.0067 22.9975 27.8273 21.9597 27.4691C22.6265 26.9037 23.099 26.1423 23.3092 25.2931C24.38 25.8398 25.6357 25.8933 26.7493 25.4403C27.0562 26.2712 27.6081 26.989 28.3317 27.4995Z" fill="#428DFF"/>
<path d="M47.3949 0H31.3948C30.5111 0 29.7948 0.716309 29.7948 1.59998V11.1998C29.7948 12.0835 30.5111 12.8002 31.3948 12.8002H32.1949V13.7054C32.1938 14.2961 32.5179 14.8392 33.0383 15.1183C33.5587 15.3977 34.1908 15.3673 34.6823 15.0399L38.0349 12.8002H47.3949C48.2786 12.8002 48.9949 12.0835 48.9949 11.1998V1.59998C48.9949 0.716309 48.2786 0 47.3949 0ZM47.3949 11.1998H38.0349C37.7189 11.1995 37.4098 11.2932 37.1469 11.4686L33.7949 13.7054V12.8002C33.7949 11.9165 33.0786 11.1998 32.1949 11.1998H31.3948V1.59998H47.3949V11.1998Z" fill="#428DFF"/>
<path d="M33.7949 4.80017H44.9948C45.4368 4.80017 45.7949 4.44202 45.7949 4.00037C45.7949 3.55835 45.4368 3.2002 44.9948 3.2002H33.7949C33.3529 3.2002 32.9948 3.55835 32.9948 4.00037C32.9948 4.44202 33.3529 4.80017 33.7949 4.80017Z" fill="#428DFF"/>
<path d="M33.7949 8.00037H44.9948C45.4368 8.00037 45.7949 7.64221 45.7949 7.20056C45.7949 6.75855 45.4368 6.40039 44.9948 6.40039H33.7949C33.3529 6.40039 32.9948 6.75855 32.9948 7.20056C32.9948 7.64221 33.3529 8.00037 33.7949 8.00037Z" fill="#428DFF"/>
</g>
<defs>
<linearGradient id="paint0_linear" x1="8.01003" y1="5.925" x2="28.7902" y2="45.0082" gradientUnits="userSpaceOnUse">
<stop stop-color="#D3DFF2"/>
<stop offset="0.172" stop-color="#D3DFF2"/>
<stop offset="0.2" stop-color="#DAE2F2"/>
<stop offset="0.201" stop-color="#F6EFF2"/>
<stop offset="0.202" stop-color="#FDF2F2"/>
<stop offset="0.205" stop-color="#FFF3F2"/>
<stop offset="0.252" stop-color="#FFF3F2"/>
<stop offset="0.26" stop-color="#D3DFF2"/>
<stop offset="0.397" stop-color="#D3DFF2"/>
<stop offset="0.42" stop-color="#DAE2F2"/>
<stop offset="0.421" stop-color="#F6EFF2"/>
<stop offset="0.422" stop-color="#FDF2F2"/>
<stop offset="0.425" stop-color="#FFF3F2"/>
<stop offset="0.489" stop-color="#FFF3F2"/>
<stop offset="0.5" stop-color="#D5E0F2"/>
<stop offset="0.501" stop-color="#D3DFF2"/>
<stop offset="0.706" stop-color="#D3DFF2"/>
<stop offset="0.74" stop-color="#D3DFF2"/>
<stop offset="0.741" stop-color="#FFF3F2"/>
<stop offset="0.835" stop-color="#FFF3F2"/>
<stop offset="0.85" stop-color="#FFF3F2"/>
<stop offset="0.851" stop-color="#D3DFF2"/>
</linearGradient>
<clipPath id="clip0">
<rect x="0.994873" width="48" height="48" fill="white"/>
</clipPath>
</defs>
</svg>
