<svg width="49" height="48" viewBox="0 0 49 48" fill="none" xmlns="http://www.w3.org/2000/svg">
<g clip-path="url(#clip0)">
<path d="M41.0309 0.799833H7.43069C7.00625 0.79727 6.59902 0.967924 6.30276 1.27151C5.9988 1.56814 5.82851 1.97537 5.83071 2.39981V45.5995C5.83364 46.4821 6.54812 47.1969 7.43069 47.1995H37.831C38.7135 47.1969 39.4284 46.4821 39.4309 45.5995V7.19974H43.4307C43.8727 7.19974 44.2309 6.84158 44.2309 6.39957V3.99978C44.2309 2.23245 42.7982 0.799833 41.0309 0.799833Z" fill="#D1D4D1"/>
<path d="M44.2308 3.99976V6.39954C44.2308 6.84155 43.8727 7.19971 43.4307 7.19971H11.4308C10.9891 7.19971 10.631 6.84155 10.631 6.39954V3.99976C10.631 2.23242 9.198 0.799805 7.43066 0.799805H41.0309C42.7982 0.799805 44.2308 2.23242 44.2308 3.99976Z" fill="#D4E1F4"/>
<path d="M39.4309 7.20074V45.6005C39.4284 46.4831 38.7135 47.1979 37.831 47.2005H7.43069C6.54812 47.1979 5.83364 46.4831 5.83071 45.6005V2.40081C5.82851 1.97637 5.9988 1.56914 6.30276 1.27251C6.34963 1.22308 6.40053 1.17767 6.45473 1.13665C6.73232 0.916557 7.07656 0.797905 7.43069 0.800834C9.19802 0.800834 10.631 2.23345 10.631 4.00079V6.40057C10.631 6.84258 10.9892 7.20074 11.4308 7.20074H39.4309Z" fill="#A4C2F7"/>
<path d="M41.8307 3.99976V6.39954C41.8307 6.84155 41.4725 7.19971 41.0309 7.19971H11.4308C10.9891 7.19971 10.631 6.84155 10.631 6.39954V3.99976C10.631 2.23242 9.198 0.799805 7.43066 0.799805H38.6307C40.3981 0.799805 41.8307 2.23242 41.8307 3.99976Z" fill="#E3E7F2"/>
<path d="M37.0308 7.19983V45.5996C37.0282 46.4822 36.3134 47.197 35.4308 47.1996H7.43069C6.54812 47.197 5.83364 46.4822 5.83071 45.5996V2.3999C5.82851 1.97546 5.9988 1.56824 6.30276 1.27161C6.35073 1.22363 8.79885 1.17566 8.85488 1.13574C9.94472 1.67334 10.6336 2.78442 10.631 3.99988V6.39966C10.631 6.84167 10.9892 7.19983 11.4308 7.19983H37.0308Z" fill="#D4E1F4"/>
<path d="M7.43067 47.1995H9.83082C8.94825 47.1969 8.23341 46.4821 8.23084 45.5995V2.39978C8.22865 1.97534 8.39894 1.56812 8.70289 1.27148C8.74977 1.22205 8.8003 1.17664 8.85487 1.13562C8.86292 1.12939 8.87391 1.12683 8.88197 1.12061C9.00135 1.02979 9.13355 0.957275 9.27418 0.905273C9.30274 0.893921 9.33241 0.886963 9.36207 0.877075C9.51368 0.828003 9.67152 0.802002 9.83082 0.799805H7.43067C7.27137 0.802734 7.11353 0.829834 6.96192 0.879639C6.93226 0.88916 6.90296 0.896484 6.87403 0.907471C6.73341 0.959839 6.60157 1.03235 6.48219 1.1228C6.47413 1.12939 6.46278 1.13159 6.45472 1.13818C6.40052 1.1792 6.34962 1.22461 6.30274 1.27405C5.99952 1.56995 5.82923 1.97607 5.8307 2.39978V45.5995C5.83363 46.4821 6.5481 47.1969 7.43067 47.1995Z" fill="white"/>
<path d="M5.03088 45.6001V2.40039H6.63086V45.6001H5.03088Z" fill="white"/>
<path d="M7.43066 48H37.8309C39.1562 48 40.2307 46.9255 40.2307 45.5999V7.99988H43.4307C44.3143 7.99988 45.0306 7.28357 45.0306 6.3999V4.00012C45.0281 1.79187 43.2388 0.00256348 41.0309 0H7.43066C6.10535 0 5.03088 1.07446 5.03088 2.40015V36C5.03088 36.4417 5.38904 36.8002 5.83069 36.8002C6.27271 36.8002 6.63086 36.4417 6.63086 36V2.40015C6.63086 1.95813 6.98901 1.59998 7.43066 1.59998C8.75635 1.59998 9.83081 2.67444 9.83081 4.00012V6.3999C9.83081 7.28357 10.5471 7.99988 11.4308 7.99988H38.6307V45.5999C38.6307 46.0419 38.2726 46.4 37.8309 46.4H7.43066C6.98901 46.4 6.63086 46.0419 6.63086 45.5999V42.3999C6.63086 41.9583 6.27271 41.6001 5.83069 41.6001C5.38904 41.6001 5.03088 41.9583 5.03088 42.3999V45.5999C5.03088 46.9255 6.10535 48 7.43066 48ZM10.6101 1.59998H41.0309C42.3562 1.59998 43.4307 2.67444 43.4307 4.00012V6.3999H11.4308V4.00012C11.4279 3.13147 11.1393 2.28845 10.6101 1.59998Z" fill="#428DFF"/>
<path d="M5.52674 39.9363C5.57215 39.9594 5.62086 39.9755 5.67066 39.9843C5.72376 39.9931 5.77723 39.9986 5.8307 40.0004C6.04273 39.9971 6.24525 39.9143 6.39869 39.7682C6.4712 39.6917 6.52833 39.6023 6.56678 39.5042C6.68763 39.2057 6.62171 38.8644 6.39869 38.6322C6.32215 38.5601 6.2328 38.5029 6.13465 38.4641C6.03871 38.4231 5.93543 38.4015 5.8307 38.4004C5.50587 38.3982 5.2118 38.5934 5.08729 38.8933C4.96278 39.1936 5.03199 39.5393 5.2627 39.7682L5.38282 39.8642C5.4275 39.8946 5.47584 39.9187 5.52674 39.9363Z" fill="#428DFF"/>
<path d="M13.8309 12H11.4308C10.5471 12 9.83081 12.7163 9.83081 13.6V18.3999C9.83081 19.2836 10.5471 19.9999 11.4308 19.9999H16.2307C17.1144 19.9999 17.8307 19.2836 17.8307 18.3999V17.6001C17.8307 17.1581 17.4725 16.7999 17.0309 16.7999C16.5889 16.7999 16.2307 17.1581 16.2307 17.6001V18.3999H11.4308V13.6H13.8309C14.2726 13.6 14.6307 13.2418 14.6307 12.8002C14.6307 12.3582 14.2726 12 13.8309 12Z" fill="#428DFF"/>
<path d="M9.83081 29.6005C9.83081 30.4841 10.5471 31.2004 11.4308 31.2004H16.2307C17.1144 31.2004 17.8307 30.4841 17.8307 29.6005V24.8005C17.8307 23.9169 17.1144 23.2002 16.2307 23.2002H11.4308C10.5471 23.2002 9.83081 23.9169 9.83081 24.8005V29.6005ZM11.4308 24.8005H16.2307V29.6005H11.4308V24.8005Z" fill="#428DFF"/>
<path d="M9.83081 40.8003C9.83081 41.684 10.5471 42.4003 11.4308 42.4003H16.2307C17.1144 42.4003 17.8307 41.684 17.8307 40.8003V36.0004C17.8307 35.1167 17.1144 34.4004 16.2307 34.4004H11.4308C10.5471 34.4004 9.83081 35.1167 9.83081 36.0004V40.8003ZM11.4308 36.0004H16.2307V40.8003H11.4308V36.0004Z" fill="#428DFF"/>
<path d="M21.0306 15.1996H25.0308C25.4728 15.1996 25.8309 14.8414 25.8309 14.3998C25.8309 13.9578 25.4728 13.5996 25.0308 13.5996H21.0306C20.589 13.5996 20.2308 13.9578 20.2308 14.3998C20.2308 14.8414 20.589 15.1996 21.0306 15.1996Z" fill="#428DFF"/>
<path d="M36.231 13.5996H28.2307C27.7891 13.5996 27.4309 13.9578 27.4309 14.3998C27.4309 14.8414 27.7891 15.1996 28.2307 15.1996H36.231C36.6726 15.1996 37.0308 14.8414 37.0308 14.3998C37.0308 13.9578 36.6726 13.5996 36.231 13.5996Z" fill="#428DFF"/>
<path d="M21.0306 18.3998H29.0309C29.4725 18.3998 29.8307 18.0416 29.8307 17.6C29.8307 17.158 29.4725 16.7998 29.0309 16.7998H21.0306C20.589 16.7998 20.2308 17.158 20.2308 17.6C20.2308 18.0416 20.589 18.3998 21.0306 18.3998Z" fill="#428DFF"/>
<path d="M36.231 16.7998H32.2308C31.7888 16.7998 31.4307 17.158 31.4307 17.6C31.4307 18.0416 31.7888 18.3998 32.2308 18.3998H36.231C36.6726 18.3998 37.0308 18.0416 37.0308 17.6C37.0308 17.158 36.6726 16.7998 36.231 16.7998Z" fill="#428DFF"/>
<path d="M21.0306 26.3998H25.0308C25.4728 26.3998 25.8309 26.0416 25.8309 25.5996C25.8309 25.158 25.4728 24.7998 25.0308 24.7998H21.0306C20.589 24.7998 20.2308 25.158 20.2308 25.5996C20.2308 26.0416 20.589 26.3998 21.0306 26.3998Z" fill="#428DFF"/>
<path d="M36.231 24.7998H28.2307C27.7891 24.7998 27.4309 25.158 27.4309 25.5996C27.4309 26.0416 27.7891 26.3998 28.2307 26.3998H36.231C36.6726 26.3998 37.0308 26.0416 37.0308 25.5996C37.0308 25.158 36.6726 24.7998 36.231 24.7998Z" fill="#428DFF"/>
<path d="M21.0306 29.6H29.0309C29.4725 29.6 29.8307 29.2418 29.8307 28.7998C29.8307 28.3582 29.4725 28 29.0309 28H21.0306C20.589 28 20.2308 28.3582 20.2308 28.7998C20.2308 29.2418 20.589 29.6 21.0306 29.6Z" fill="#428DFF"/>
<path d="M36.231 28H32.2308C31.7888 28 31.4307 28.3582 31.4307 28.7998C31.4307 29.2418 31.7888 29.6 32.2308 29.6H36.231C36.6726 29.6 37.0308 29.2418 37.0308 28.7998C37.0308 28.3582 36.6726 28 36.231 28Z" fill="#428DFF"/>
<path d="M21.0306 37.6H25.0308C25.4728 37.6 25.8309 37.2418 25.8309 36.8002C25.8309 36.3582 25.4728 36 25.0308 36H21.0306C20.589 36 20.2308 36.3582 20.2308 36.8002C20.2308 37.2418 20.589 37.6 21.0306 37.6Z" fill="#428DFF"/>
<path d="M36.231 36H28.2307C27.7891 36 27.4309 36.3582 27.4309 36.8002C27.4309 37.2418 27.7891 37.6 28.2307 37.6H36.231C36.6726 37.6 37.0308 37.2418 37.0308 36.8002C37.0308 36.3582 36.6726 36 36.231 36Z" fill="#428DFF"/>
<path d="M21.0306 40.8002H29.0309C29.4725 40.8002 29.8307 40.442 29.8307 40.0004C29.8307 39.5583 29.4725 39.2002 29.0309 39.2002H21.0306C20.589 39.2002 20.2308 39.5583 20.2308 40.0004C20.2308 40.442 20.589 40.8002 21.0306 40.8002Z" fill="#428DFF"/>
<path d="M36.231 39.2002H32.2308C31.7888 39.2002 31.4307 39.5583 31.4307 40.0004C31.4307 40.442 31.7888 40.8002 32.2308 40.8002H36.231C36.6726 40.8002 37.0308 40.442 37.0308 40.0004C37.0308 39.5583 36.6726 39.2002 36.231 39.2002Z" fill="#428DFF"/>
<path d="M12.4653 14.6337C12.153 14.9461 12.153 15.4526 12.4653 15.7649L14.0653 17.3649C14.2151 17.5147 14.4187 17.5993 14.6307 17.5993H14.697C14.9314 17.5795 15.1456 17.4579 15.2819 17.2664L19.282 11.6663C19.4479 11.4338 19.4775 11.1302 19.3589 10.8702C19.2406 10.6098 18.9923 10.4325 18.7078 10.4051C18.4232 10.3776 18.1456 10.5043 17.9797 10.7369L14.5293 15.5679L13.5966 14.6359C13.2845 14.3232 12.7784 14.3221 12.4653 14.6337Z" fill="#428DFF"/>
</g>
<defs>
<clipPath id="clip0">
<rect x="0.994873" width="48" height="48" fill="white"/>
</clipPath>
</defs>
</svg>
