<svg width="49" height="48" viewBox="0 0 49 48" fill="none" xmlns="http://www.w3.org/2000/svg">
<g clip-path="url(#clip0)">
<path d="M47.5549 20.8638L43.787 20.0797C43.364 18.0264 42.6016 16.058 41.5308 14.2555L34.739 7.46375C32.9365 6.39294 30.9681 5.63049 28.9148 5.20752L28.1307 1.43958C28.0549 1.06714 27.7272 0.799439 27.347 0.799805H22.6427C22.2626 0.799439 21.9348 1.06714 21.859 1.43958L21.075 5.20752C18.7228 5.68945 16.4849 6.61817 14.4828 7.94348L13.3311 7.19165L11.259 5.83154C10.9408 5.62207 10.5193 5.66528 10.2509 5.93555L6.93079 9.25562C6.66052 9.52405 6.61731 9.94556 6.82678 10.2638L8.93872 13.4875C7.6134 15.4896 6.68469 17.7275 6.20276 20.0797L2.43481 20.8638C2.06238 20.9396 1.79468 21.2673 1.79504 21.6475V26.3518C1.79468 26.7319 2.06238 27.0597 2.43481 27.1355L3.89893 27.4395L6.20276 27.9196C6.62573 29.9729 7.38818 31.9413 8.45899 33.7438C8.52271 33.8635 8.60291 33.9917 8.68274 34.1118C8.76294 34.2477 8.85083 34.3755 8.93872 34.5037L6.82678 37.7355C6.61951 38.05 6.65942 38.4664 6.92273 38.7356L10.2589 42.0718C10.5281 42.3351 10.9445 42.375 11.259 42.1677L13.3311 40.8157L14.4908 40.0558C14.619 40.1437 14.7468 40.2316 14.8827 40.3118C15.0028 40.3916 15.131 40.4718 15.2507 40.5355C17.0532 41.6063 19.0216 42.3688 21.075 42.7917L21.859 46.5597C21.9348 46.9321 22.2626 47.1998 22.6427 47.1995H27.347C27.7272 47.1998 28.0549 46.9321 28.1307 46.5597L28.9148 42.7917C30.7872 42.408 32.5897 41.7389 34.2589 40.8076C34.683 40.5758 35.099 40.3195 35.507 40.0558L37.8269 41.5756L38.7307 42.1677C39.049 42.3772 39.4705 42.334 39.7389 42.0637L43.059 38.7437C43.3292 38.4752 43.3724 38.0537 43.163 37.7355L41.051 34.5117C42.3763 32.5096 43.3051 30.2717 43.787 27.9196L45.2507 27.6156L47.5549 27.1355C47.9274 27.0597 48.1951 26.7319 48.1947 26.3518V21.6475C48.1951 21.2673 47.9274 20.9396 47.5549 20.8638Z" fill="#D4E1F4"/>
<path d="M48.1229 1.93584L43.4347 12.3516L36.6429 5.55986L45.9707 1.35979L47.0587 0.871635C47.3638 0.735771 47.7208 0.801689 47.957 1.03753C48.1929 1.27373 48.2588 1.63079 48.1229 1.93584Z" fill="#D4E1F4"/>
<path d="M45.9707 1.36035L41.771 10.6881L36.6429 5.56042L45.9707 1.36035Z" fill="#E3E7F2"/>
<path d="M9.23499 33.5632L8.93872 33.2673C8.63879 32.9667 8.23157 32.7979 7.80676 32.7979C7.38232 32.7979 6.9751 32.9667 6.6748 33.2673L5.54688 34.4033C5.24731 34.7021 5.07886 35.1079 5.07886 35.5312C5.07886 35.9546 5.24731 36.3604 5.54688 36.6592L12.339 43.4513C12.6378 43.7509 13.0436 43.9193 13.4669 43.9193C13.8903 43.9193 14.296 43.7509 14.5948 43.4513L15.7308 42.3234C16.0315 42.0231 16.2 41.6158 16.2 41.1914C16.2 40.7666 16.0315 40.3594 15.7308 40.0594L15.4349 39.7632L9.23499 33.5632Z" fill="#A4C2F7"/>
<path d="M5.54395 36.6631L12.332 43.4512L10.0692 45.714C8.8197 46.9635 6.79346 46.9635 5.54395 45.714L3.28113 43.4512C2.03162 42.2017 2.03162 40.1754 3.28113 38.9259L5.54395 36.6631Z" fill="#A4C2F7"/>
<path d="M48.1947 21.6475V26.3518C48.1951 26.7319 47.9274 27.0597 47.5549 27.1355L45.2507 27.6156L43.787 27.9196C43.3051 30.2717 42.3763 32.5096 41.051 34.5117L43.163 37.7355C43.3724 38.0537 43.3292 38.4752 43.059 38.7437L39.7389 42.0637C39.4705 42.334 39.049 42.3772 38.7307 42.1677L37.8269 41.5756L40.6588 38.7437C40.9291 38.4752 40.9727 38.0537 40.7628 37.7355L38.6509 34.5117C39.9762 32.5096 40.9049 30.2717 41.3868 27.9196L45.1548 27.1355C45.5276 27.0597 45.7949 26.7319 45.7949 26.3518V21.6475C45.7949 21.2673 45.5276 20.9396 45.1548 20.8638L41.3868 20.0797C40.9639 18.0264 40.2014 16.058 39.131 14.2555L32.3389 7.46375C30.5364 6.39294 28.568 5.63049 26.515 5.20752L25.731 1.43958C25.6548 1.06714 25.327 0.799439 24.9469 0.799805H27.347C27.7272 0.799439 28.0549 1.06714 28.1307 1.43958L28.9148 5.20752C30.9681 5.63049 32.9365 6.39294 34.739 7.46375L41.5308 14.2555C42.6016 16.058 43.364 18.0264 43.787 20.0797L47.5549 20.8638C47.9274 20.9396 48.1951 21.2673 48.1947 21.6475Z" fill="#A4C2F7"/>
<path d="M45.7949 21.6475V26.3518C45.7949 26.7319 45.5276 27.0597 45.1548 27.1355L41.3868 27.9196C40.9049 30.2717 39.9762 32.5096 38.6509 34.5117L40.7628 37.7355C40.9727 38.0537 40.9291 38.4752 40.6588 38.7437L37.8269 41.5756L35.507 40.0558C35.099 40.3195 34.683 40.5758 34.2589 40.8076C32.5897 41.7389 30.7872 42.408 28.9148 42.7917L28.1307 46.5597C28.0549 46.9321 27.7272 47.1998 27.347 47.1995H22.6427C22.2626 47.1998 21.9348 46.9321 21.859 46.5597L21.075 42.7917C19.0216 42.3688 17.0532 41.6063 15.2507 40.5355C15.131 40.4718 15.0028 40.3916 14.8827 40.3118C14.7468 40.2316 14.619 40.1437 14.4908 40.0558L13.3311 40.8157L11.259 42.1677C10.9445 42.375 10.5281 42.3351 10.2589 42.0718L6.92273 38.7356C6.65942 38.4664 6.61951 38.05 6.82678 37.7355L8.93872 34.5037C8.85083 34.3755 8.76294 34.2477 8.68274 34.1118C8.60291 33.9917 8.52271 33.8635 8.45899 33.7438C7.38818 31.9413 6.62573 29.9729 6.20276 27.9196L3.89893 27.4395L2.43481 27.1355C2.06238 27.0597 1.79468 26.7319 1.79504 26.3518V21.6475C1.79468 21.2673 2.06238 20.9396 2.43481 20.8638L6.20276 20.0797C6.68469 17.7275 7.6134 15.4896 8.93872 13.4875L6.82678 10.2638C6.61731 9.94556 6.66052 9.52405 6.93079 9.25562L10.2509 5.93555C10.5193 5.66528 10.9408 5.62207 11.259 5.83154L13.3311 7.19165L14.4828 7.94348C16.4849 6.61817 18.7228 5.68945 21.075 5.20752L21.859 1.43958C21.9348 1.06714 22.2626 0.799439 22.6427 0.799805H27.395C27.7784 0.799805 28.1106 1.06567 28.1948 1.43958L28.995 5.20752C31.0828 5.63965 30.5627 6.40759 32.3389 7.46375L39.131 14.2555C40.2014 16.058 40.9639 18.0264 41.3868 20.0797L45.1548 20.8638C45.5276 20.9396 45.7949 21.2673 45.7949 21.6475Z" fill="#D4E1F4"/>
<path d="M31.1948 11.0077C29.2609 10.0764 27.1412 9.59524 24.9949 9.59964C17.0419 9.59964 10.5947 16.0468 10.5947 23.9998C10.6024 31.9495 17.0452 38.3922 24.9949 38.3999C32.9479 38.3999 39.395 31.9528 39.395 23.9998C39.3994 21.8534 38.9182 19.7338 37.9869 17.7998L31.1948 11.0077Z" fill="#A4C2F7"/>
<path d="M26.1228 16.0799L17.0749 25.1279C17.0199 24.7544 16.9932 24.3775 16.995 24C16.995 19.5816 20.5766 16.0001 24.9949 16.0001C25.3725 15.9983 25.7493 16.025 26.1228 16.0799Z" fill="#7FACFA"/>
<path d="M36.6429 5.56055L34.739 7.46448L31.1948 11.0083L17.0748 25.1283C17.3165 26.844 18.1116 28.4337 19.3387 29.6565L40.0348 8.96045L36.6429 5.56055Z" fill="#E3E7F2"/>
<path d="M40.0348 8.95996L19.3387 29.656C20.5615 30.8832 22.1512 31.6782 23.8669 31.9199L32.4348 23.3521L43.4347 12.3518L40.0348 8.95996Z" fill="#D4E1F4"/>
<path d="M48.1229 1.93584L46.3629 5.84771C45.7026 5.44451 45.0929 4.96368 44.5469 4.41582C44.0085 3.87969 43.5332 3.28387 43.1307 2.6397L47.0587 0.871635C47.3638 0.735771 47.7208 0.801689 47.957 1.03753C48.1929 1.27373 48.2588 1.63079 48.1229 1.93584Z" fill="#A4C2F7"/>
<path d="M23.8669 31.92L32.9149 22.8721C32.9698 23.2456 32.9966 23.6224 32.9947 24C32.9947 28.4183 29.4132 31.9999 24.9949 31.9999C24.6173 32.0017 24.2405 31.975 23.8669 31.92Z" fill="#7FACFA"/>
<path d="M3.2804 38.9265C2.68018 39.5267 2.34326 40.3405 2.34326 41.1893C2.34326 42.0382 2.68018 42.8519 3.2804 43.4521L5.54285 45.7146C6.45105 46.6232 7.81445 46.9008 9.00537 46.4192C8.6073 46.2581 8.24622 46.0182 7.94299 45.7146L5.68054 43.4521C5.08032 42.8519 4.74304 42.0382 4.74304 41.1893C4.74304 40.3405 5.08032 39.5267 5.68054 38.9265L6.74292 37.8641L5.54285 36.6641L3.2804 38.9265Z" fill="white"/>
<path d="M2.43481 27.1353L3.89893 27.4393L6.20276 27.9194C6.55762 29.6241 7.14722 31.2713 7.95471 32.8138C7.4801 32.7662 7.00842 32.9324 6.66858 33.2675L5.54065 34.4035C5.24109 34.7023 5.07263 35.1081 5.07263 35.5314C5.07263 35.9548 5.24109 36.3605 5.54065 36.6593L6.74036 37.8594L7.94043 36.6593L9.16065 37.8796L7.94299 36.6593C7.64343 36.3605 7.47498 35.9548 7.47498 35.5314C7.47498 35.1081 7.64343 34.7023 7.94299 34.4035L9.07092 33.2675C9.41077 32.9324 9.88245 32.7662 10.3574 32.8138C9.54883 31.2713 8.9585 29.6241 8.60291 27.9194L6.29871 27.4393L4.83496 27.1353C4.46216 27.0595 4.19482 26.7317 4.19482 26.3516V21.6473C4.19482 21.2671 4.46216 20.9394 4.83496 20.8636L8.60291 20.0795C9.08484 17.7273 10.0136 15.4894 11.3389 13.4873L9.22693 10.2636C9.01709 9.94536 9.06067 9.52385 9.33093 9.25541L12.1621 6.42424L11.259 5.83134C10.9408 5.62187 10.5193 5.66508 10.2509 5.93535L6.93079 9.25541C6.66052 9.52385 6.61731 9.94536 6.82678 10.2636L8.93872 13.4873C7.6134 15.4894 6.68469 17.7273 6.20276 20.0795L2.43481 20.8636C2.06238 20.9394 1.79468 21.2671 1.79504 21.6473V26.3516C1.79468 26.7317 2.06238 27.0595 2.43481 27.1353Z" fill="white"/>
<path d="M47.7212 20.0841L44.4564 19.4022C44.0426 17.6539 43.3907 15.9708 42.5188 14.4001L44.0005 12.9177C44.0078 12.9104 44.01 12.9001 44.0173 12.8928C44.0767 12.8298 44.1257 12.7577 44.162 12.6793V12.6694L44.1715 12.6489L48.8484 2.26392C49.1234 1.65747 48.9941 0.944092 48.5236 0.472778C48.0533 0.00146484 47.3403 -0.128906 46.7332 0.144653L36.347 4.81934L36.3243 4.82886L36.3156 4.83289C36.3013 4.83911 36.2917 4.85266 36.2771 4.86072C36.2042 4.89478 36.1365 4.93982 36.0771 4.99438L34.5947 6.4801C33.024 5.60815 31.3409 4.9563 29.5927 4.54248L28.9148 1.27368C28.7577 0.531738 28.1036 0.00109864 27.3452 0H22.6453C21.8883 0.00256348 21.2357 0.533203 21.079 1.27368L20.3971 4.53662C18.3057 5.02368 16.3091 5.85278 14.4875 6.99023L11.6974 5.15918C11.0624 4.74756 10.226 4.83362 9.68835 5.36646L6.3606 8.69458C5.82776 9.23218 5.74243 10.0686 6.15479 10.7032L7.98511 13.4927C6.84766 15.3142 6.01855 17.3108 5.53149 19.4022L2.26855 20.0841C1.52808 20.2408 0.997437 20.8934 0.994873 21.6504V26.3503C0.995972 27.1088 1.52661 27.7628 2.26855 27.9199L5.53333 28.6014C5.85706 29.9766 6.32837 31.3129 6.93958 32.5865C6.41736 32.6521 5.93066 32.8872 5.55493 33.256L4.4292 34.3857C3.70776 35.0995 3.52209 36.1937 3.96777 37.1056L2.16675 38.9088C0.607422 40.4722 0.607422 43.0023 2.16675 44.5657L4.4292 46.8281C5.99255 48.3875 8.52271 48.3875 10.0861 46.8281L11.8867 45.0271C12.7982 45.4735 13.8925 45.2889 14.6069 44.5679L15.7491 43.4337C16.1161 43.0591 16.3497 42.5742 16.4142 42.0535C17.6875 42.665 19.0231 43.1371 20.3982 43.4615L21.0797 46.7263C21.2365 47.4668 21.8887 47.9971 22.6453 48H27.3452C28.1036 47.9989 28.7577 47.4683 28.9148 46.7263L29.5963 43.4634C31.6881 42.9763 33.6847 42.1472 35.5062 41.0098L38.2964 42.8408C38.9314 43.2524 39.7678 43.1664 40.3054 42.6335L43.6332 39.3054C44.1656 38.7678 44.2513 37.9314 43.839 37.2968L42.0083 34.5073C43.1461 32.6858 43.9752 30.6892 44.4619 28.5978L47.7252 27.9159C48.4639 27.7577 48.9923 27.1058 48.9949 26.3503V21.6504C48.9923 20.8934 48.4617 20.2408 47.7212 20.0841ZM38.5948 24C38.5864 31.5077 32.5026 37.5916 24.9949 37.6C22.9672 37.6069 20.9644 37.1521 19.1388 36.2695C16.3285 34.9281 14.0638 32.6627 12.7228 29.8521C11.842 28.0272 11.3879 26.0262 11.3949 24C11.4033 16.4923 17.4872 10.4084 24.9949 10.4C26.6322 10.4 28.2556 10.701 29.7845 11.2874L25.8284 15.2432C25.5603 15.2175 25.2867 15.2 24.9949 15.2C20.1371 15.2058 16.2007 19.1422 16.1948 24C16.193 24.4149 16.2219 24.8295 16.282 25.24C16.8357 29.1116 19.8756 32.1548 23.7468 32.7122C24.1603 32.7726 24.5774 32.8019 24.9949 32.8C29.8527 32.7942 33.7891 28.8578 33.7949 24C33.7949 23.7081 33.7773 23.4346 33.7517 23.1665L37.7075 19.2103C38.2938 20.7393 38.5948 22.3627 38.5948 24ZM36.6422 6.69214L38.9069 8.96008L19.3732 28.4905C18.6488 27.5918 18.1544 26.5302 17.9332 25.3975L36.6422 6.69214ZM42.8619 3.64307C43.1989 4.11804 43.5735 4.56519 43.9822 4.9801C44.4081 5.39868 44.8695 5.78064 45.3606 6.12085L43.1787 10.9647L38.0302 5.81616L42.8619 3.64307ZM17.8365 23.2343C18.2017 19.8666 20.8615 17.2068 24.2291 16.8417L17.8365 23.2343ZM32.1565 24.7657C31.7914 28.1334 29.1316 30.7932 25.7635 31.1583L32.1565 24.7657ZM23.5974 31.0583C22.4644 30.8375 21.4027 30.3431 20.5044 29.6184L40.0348 10.088L42.2998 12.3527L23.5974 31.0583ZM47.3949 1.60547L46.0253 4.63989C45.7037 4.39673 45.3987 4.13269 45.1123 3.84888C44.8391 3.57385 44.5828 3.28198 44.3451 2.9751L47.3949 1.60547ZM5.56299 35.5199L6.68286 34.3887C6.83301 34.2371 7.03772 34.1517 7.25122 34.1517C7.46472 34.1517 7.66943 34.2371 7.81958 34.3887L7.96533 34.5344L6.17822 37.259L5.56042 36.6401C5.41028 36.4911 5.32568 36.2886 5.32568 36.0773C5.32568 35.866 5.41028 35.6631 5.56042 35.5144L5.56299 35.5199ZM8.95483 45.6969C8.50476 46.147 7.89429 46.4 7.25781 46.4C6.62097 46.4 6.0105 46.147 5.56042 45.6969L3.29797 43.4344C2.8479 42.9844 2.59485 42.3739 2.59485 41.7371C2.59485 41.1006 2.8479 40.4901 3.29797 40.04L4.995 38.343L10.6519 43.9999L8.95483 45.6969ZM14.6157 42.304L13.475 43.4344C13.1608 43.7362 12.6649 43.7362 12.3507 43.4344L11.7333 42.8167L14.4659 41.0281L14.611 41.1735C14.9241 41.4847 14.9263 41.9905 14.6157 42.304ZM47.3949 26.3503L43.6237 27.1377C43.3113 27.2029 43.0677 27.4475 43.0037 27.7599C42.5433 30.0125 41.6534 32.1552 40.3827 34.0712C40.2069 34.3381 40.2069 34.6842 40.3827 34.9512L42.4979 38.176L39.1709 41.5031L35.946 39.3878C35.6791 39.212 35.333 39.212 35.066 39.3878C33.15 40.6586 31.0073 41.5485 28.7548 42.0088C28.4424 42.0729 28.1978 42.3164 28.1326 42.6288L27.3452 46.4H22.6453L21.8572 42.6288C21.7924 42.3171 21.5488 42.0736 21.2372 42.0088C19.2585 41.6008 17.3623 40.864 15.6268 39.8295C15.5302 39.7786 15.4269 39.7137 15.2877 39.6215C15.1757 39.5552 15.0691 39.4823 14.942 39.3951C14.8545 39.3365 14.7563 39.2952 14.6534 39.2736H14.6476C14.4429 39.2325 14.2301 39.2736 14.0551 39.3871L10.8229 41.5031L7.49475 38.1753L9.61072 34.9431C9.79053 34.6644 9.77954 34.3033 9.58289 34.036H9.58765C9.51477 33.9294 9.44189 33.8232 9.34778 33.6687C9.28516 33.5742 9.22217 33.4728 9.15405 33.3486V33.3424C8.12866 31.6165 7.39844 29.7312 6.99414 27.7646C6.92932 27.4534 6.68579 27.2098 6.37415 27.1447L2.59485 26.3503V21.6504L6.36609 20.8623C6.67847 20.7971 6.922 20.5525 6.98608 20.2401C7.44641 17.9875 8.3363 15.8448 9.60706 13.9288C9.78284 13.6619 9.78284 13.3158 9.60706 13.0488L7.49255 9.82471L10.8196 6.49768L14.0444 8.61292C14.3114 8.7887 14.6575 8.7887 14.9244 8.61292C16.8401 7.3418 18.9828 6.4519 21.235 5.99121C21.5474 5.92712 21.792 5.68359 21.8572 5.37122L22.6453 1.59998H27.3452L28.1326 5.37122C28.1974 5.68286 28.4409 5.92639 28.7526 5.99121C30.3756 6.32996 31.9441 6.89062 33.4141 7.65747L31.019 10.0529C29.1195 9.22192 27.068 8.79529 24.9949 8.80005C16.6039 8.8092 9.80408 15.609 9.79492 24C9.78723 26.2657 10.2952 28.5033 11.2795 30.5438C12.7781 33.6833 15.3079 36.2139 18.447 37.7128C20.4883 38.699 22.7277 39.2073 24.9949 39.2C33.3859 39.1908 40.1857 32.391 40.1948 24C40.1996 21.9269 39.7729 19.8754 38.942 17.9758L41.3374 15.5808C42.1039 17.05 42.6649 18.6178 43.0037 20.2401C43.0685 20.5518 43.312 20.7949 43.6237 20.8601L47.3949 21.6504V26.3503Z" fill="#428DFF"/>
</g>
<defs>
<clipPath id="clip0">
<rect x="0.994873" width="48" height="48" fill="white"/>
</clipPath>
</defs>
</svg>
