<svg width="49" height="48" viewBox="0 0 49 48" fill="none" xmlns="http://www.w3.org/2000/svg">
<g clip-path="url(#clip0)">
<path d="M35.3949 13.6002L35.3949 42.4002H14.5949V25.9842L14.8589 12.5122C15.2662 11.7068 16.0923 11.1994 16.9949 11.2002H32.9949C33.4943 11.2003 33.9811 11.357 34.3869 11.6482C34.6431 11.827 34.8608 12.0556 35.0269 12.3202C35.2681 12.7035 35.3957 13.1473 35.3949 13.6002Z" fill="#A4C2F7"/>
<path d="M32.9949 13.6002L32.9949 42.4002H14.5949V25.9842L14.8589 12.5122C15.2662 11.7068 16.0923 11.1994 16.9949 11.2002H30.5949C31.0943 11.2003 31.5811 11.357 31.9869 11.6482C32.2431 11.827 32.4608 12.0556 32.6269 12.3202C32.8681 12.7035 32.9957 13.1473 32.9949 13.6002Z" fill="url(#paint0_linear)"/>
<path d="M32.2589 40.2235L31.3309 39.8395C31.4175 39.2482 31.4202 38.6476 31.3389 38.0555L32.2589 37.6715C33.0731 37.3326 33.4596 36.3987 33.1229 35.5835C32.7827 34.7705 31.8522 34.3819 31.0349 34.7115L30.1149 35.0955C29.7548 34.6167 29.3262 34.1935 28.8429 33.8395L29.2269 32.9035C29.3949 32.5156 29.3949 32.0754 29.2269 31.6875C28.983 31.0879 28.4009 30.6951 27.7535 30.6934C27.1062 30.6916 26.522 31.0812 26.2749 31.6795L25.8909 32.6155C25.2969 32.5288 24.6936 32.5261 24.0989 32.6075L23.7149 31.6795C23.5541 31.2893 23.2426 30.9806 22.8509 30.8235C22.4613 30.6528 22.0186 30.6499 21.6269 30.8155C20.8139 31.1601 20.4289 32.0941 20.7629 32.9115L21.1469 33.8315C20.6677 34.1907 20.2421 34.6163 19.8829 35.0955L18.9549 34.7115C18.1397 34.3887 17.2155 34.7711 16.8669 35.5755C16.7026 35.968 16.7015 36.4096 16.8636 36.8029C17.0257 37.1963 17.3378 37.5088 17.7309 37.6715L18.6589 38.0555C18.5709 38.6469 18.5709 39.2481 18.6589 39.8395L17.7309 40.2235C17.4427 40.3389 17.197 40.5399 17.0269 40.7995H32.9629C32.7904 40.542 32.5454 40.3416 32.2589 40.2235ZM25.6109 40.4235C25.013 40.6723 24.3242 40.5363 23.8658 40.0789C23.4075 39.6215 23.27 38.9329 23.5176 38.3346C23.7652 37.7363 24.349 37.3462 24.9966 37.3464C25.6441 37.3466 26.2277 37.737 26.4749 38.3355C26.8078 39.1507 26.4224 40.0819 25.6109 40.4235Z" fill="#A5A5A4"/>
<path d="M17.7389 34.7204C17.6815 34.7418 17.6276 34.7714 17.5789 34.8084L18.2829 35.0964C18.4045 34.9343 18.5353 34.7794 18.6749 34.6324C18.3613 34.5644 18.0343 34.5951 17.7389 34.7204ZM24.1629 32.6004C24.206 32.6013 24.2489 32.6067 24.2909 32.6164L24.2989 32.5924C24.2534 32.5911 24.2079 32.5938 24.1629 32.6004ZM28.8429 33.8404L29.2269 32.9044C29.3949 32.5165 29.3949 32.0763 29.2269 31.6884C29.067 31.2939 28.7559 30.9799 28.3629 30.8164C27.9039 30.6239 27.3806 30.6626 26.9549 30.9204C27.2582 31.0944 27.4947 31.3647 27.6269 31.6884C27.7949 32.0763 27.7949 32.5165 27.6269 32.9044L27.2429 33.8404C27.7262 34.1944 28.1548 34.6176 28.5149 35.0964L29.4349 34.7124C29.5275 34.6747 29.6241 34.6479 29.7229 34.6324C29.4588 34.3376 29.1638 34.0721 28.8429 33.8404ZM32.2589 40.2244L31.3309 39.8404C31.4175 39.2491 31.4202 38.6485 31.3389 38.0564L32.2589 37.6724C33.0731 37.3335 33.4596 36.3996 33.1229 35.5844C32.7827 34.7714 31.8522 34.3828 31.0349 34.7124L30.8189 34.8004C31.1402 34.9686 31.3901 35.2469 31.5229 35.5844C31.8596 36.3996 31.4731 37.3335 30.6589 37.6724L29.7389 38.0564C29.8202 38.6485 29.8175 39.2491 29.7309 39.8404L30.6589 40.2244C30.9454 40.3425 31.1904 40.543 31.3629 40.8004H32.9629C32.7904 40.543 32.5454 40.3425 32.2589 40.2244Z" fill="#7FACFA"/>
<path d="M24.0909 32.5921L24.0989 32.6081C24.1229 32.6081 24.1389 32.6001 24.1629 32.6001C24.1395 32.5935 24.1152 32.5908 24.0909 32.5921ZM30.6589 34.7201C30.3644 34.5913 30.0363 34.5604 29.7229 34.6321C29.8621 34.7794 29.993 34.9343 30.1149 35.0961L30.8189 34.8001C30.7681 34.7687 30.7145 34.7419 30.6589 34.7201Z" fill="#CAD9FC"/>
<path d="M30.6589 40.2235L29.7309 39.8395C29.8175 39.2482 29.8202 38.6476 29.7389 38.0555L30.6589 37.6715C31.4731 37.3326 31.8596 36.3987 31.5229 35.5835C31.3901 35.246 31.1402 34.9677 30.8189 34.7995L30.1149 35.0955C29.9929 34.9337 29.862 34.7788 29.7229 34.6315C29.6241 34.6469 29.5274 34.6738 29.4349 34.7115L28.5149 35.0955C28.1548 34.6167 27.7262 34.1935 27.2429 33.8395L27.6269 32.9035C27.7949 32.5156 27.7949 32.0754 27.6269 31.6875C27.4947 31.3638 27.2581 31.0935 26.9549 30.9195C26.6487 31.0886 26.409 31.3565 26.2749 31.6795L25.8909 32.6155C25.3637 32.5354 24.8282 32.5274 24.2989 32.5915L24.2909 32.6155C24.2489 32.6058 24.206 32.6004 24.1629 32.5995C24.1389 32.5995 24.1229 32.6075 24.0989 32.6075L24.0909 32.5915L23.7149 31.6795C23.5541 31.2893 23.2425 30.9806 22.8509 30.8235C22.4613 30.6528 22.0186 30.6499 21.6269 30.8155C21.5578 30.8453 21.4909 30.8801 21.4269 30.9195C20.745 31.3292 20.4632 32.1746 20.7629 32.9115L21.1469 33.8315C20.6677 34.1907 20.2421 34.6163 19.8829 35.0955L18.9549 34.7115C18.8647 34.6749 18.7708 34.6481 18.6749 34.6315C18.5353 34.7785 18.4044 34.9334 18.2829 35.0955L17.5789 34.8075C17.2546 34.9665 17.0009 35.2402 16.8669 35.5755C16.7026 35.9679 16.7015 36.4096 16.8636 36.8029C17.0257 37.1962 17.3378 37.5088 17.7309 37.6715L18.6589 38.0555C18.5709 38.6469 18.5709 39.2481 18.6589 39.8395L17.7309 40.2235C17.4427 40.3389 17.197 40.5399 17.0269 40.7995H31.3629C31.1904 40.542 30.9454 40.3416 30.6589 40.2235ZM25.6109 40.4235C25.1518 40.6102 24.6323 40.5748 24.2029 40.3275C23.8923 40.1579 23.6495 39.8867 23.5149 39.5595C23.2089 38.8213 23.5004 37.9708 24.1949 37.5755C24.2535 37.5317 24.3182 37.4967 24.3869 37.4715C24.9207 37.217 25.5514 37.2777 26.0269 37.6294C26.5024 37.9811 26.7451 38.5664 26.658 39.1514C26.5709 39.7364 26.1682 40.2256 25.6109 40.4235Z" fill="#A4C2F7"/>
<path d="M35.3949 40.7998V44.7998C35.3949 46.1253 34.3204 47.1998 32.9949 47.1998H16.9949C15.6694 47.1998 14.5949 46.1253 14.5949 44.7998V40.7998H35.3949Z" fill="#CAD9FC"/>
<path d="M32.9949 40.7998V44.7998C32.9949 46.1253 31.9204 47.1998 30.5949 47.1998H16.9949C15.6694 47.1998 14.5949 46.1253 14.5949 44.7998V40.7998H32.9949Z" fill="#E8EDFC"/>
<path d="M11.3949 41.6002C11.3949 42.9257 10.3204 44.0002 8.99489 44.0002C8.72163 44.0019 8.4504 43.9531 8.19489 43.8562C7.23642 43.5205 6.59473 42.6158 6.59473 41.6002C6.59473 40.5847 7.23642 39.68 8.19489 39.3442C8.4504 39.2474 8.72163 39.1985 8.99489 39.2002C10.3204 39.2002 11.3949 40.2748 11.3949 41.6002Z" fill="#7FACFA"/>
<path d="M8.19491 43.8567C9.07857 43.8567 9.79491 42.8467 9.79491 41.6007C9.79491 40.3548 9.07857 39.3447 8.19491 39.3447C7.31125 39.3447 6.59491 40.3548 6.59491 41.6007C6.59491 42.8467 7.31125 43.8567 8.19491 43.8567Z" fill="#A4C2F7"/>
<path d="M7.74683 33.6636L3.34683 37.4316C3.04028 37.6358 2.64617 37.6547 2.32152 37.4806C1.99686 37.3066 1.79441 36.9679 1.79483 36.5996V28.9996C1.78862 28.5505 2.08872 28.1547 2.52283 28.0396C2.80266 27.9545 3.10601 28.0016 3.34683 28.1676L7.74683 31.9996C8.02749 32.1833 8.19662 32.4961 8.19662 32.8316C8.19662 33.167 8.02749 33.4798 7.74683 33.6636Z" fill="#CAD9FC"/>
<path d="M6.14683 32.864L1.79483 36.592V29C1.78862 28.551 2.08872 28.1552 2.52283 28.04L6.14683 31.2C6.4275 31.3838 6.59662 31.6966 6.59662 32.032C6.59662 32.3675 6.4275 32.6803 6.14683 32.864Z" fill="#E8EDFC"/>
<path d="M48.1949 17.6V24C48.1922 24.8825 47.4774 25.5974 46.5949 25.6H44.1949C45.0774 25.5974 45.7922 24.8825 45.7949 24V17.6C45.7922 16.7174 45.0774 16.0026 44.1949 16H46.5949C47.4774 16.0026 48.1922 16.7174 48.1949 17.6Z" fill="#7FACFA"/>
<path d="M45.7949 17.6V24C45.7922 24.8826 45.0774 25.5974 44.1949 25.6H31.3949L24.9949 28.8L28.1949 22.4V17.6C28.1975 16.7174 28.9123 16.0026 29.7949 16H44.1949C45.0774 16.0026 45.7922 16.7174 45.7949 17.6Z" fill="#A4C2F7"/>
<path d="M19.3949 19.2C19.3949 23.1765 16.1713 26.4 12.1949 26.4C11.793 26.4005 11.3916 26.3684 10.9949 26.304C7.53018 25.7159 4.99506 22.7143 4.99506 19.2C4.99506 15.6857 7.53018 12.6841 10.9949 12.096C11.3916 12.0316 11.793 11.9995 12.1949 12C16.1713 12 19.3949 15.2236 19.3949 19.2Z" fill="#CAD9FC"/>
<path d="M10.9949 26.3037C14.3086 26.3037 16.9949 23.1231 16.9949 19.1997C16.9949 15.2763 14.3086 12.0957 10.9949 12.0957C7.6812 12.0957 4.9949 15.2763 4.9949 19.1997C4.9949 23.1231 7.6812 26.3037 10.9949 26.3037Z" fill="#E8EDFC"/>
<path d="M16.6948 47.2329H19.0948C17.7693 47.2329 16.6948 46.1584 16.6948 44.8329V37.0841C16.4122 36.6433 16.3643 36.0917 16.5668 35.6089C16.6037 35.5384 16.6465 35.4713 16.6948 35.4081V26.0137C15.9246 26.2894 15.1129 26.4312 14.2948 26.4329V44.8329C14.2948 46.1584 15.3693 47.2329 16.6948 47.2329Z" fill="white"/>
<path d="M10.6948 12.1292C7.23013 12.7173 4.69501 15.7189 4.69501 19.2332C4.69501 22.7475 7.23013 25.7491 10.6948 26.3372C11.0916 26.4016 11.4929 26.4337 11.8948 26.4332C12.2861 26.4306 12.6764 26.3961 13.062 26.33C9.61212 25.7293 7.09392 22.7347 7.09392 19.2328C7.09392 15.731 9.61212 12.7364 13.062 12.1356C12.6764 12.0702 12.286 12.036 11.8948 12.0332C11.4929 12.0327 11.0916 12.0648 10.6948 12.1292Z" fill="white"/>
<path d="M14.886 12.0627C15.5973 12.1203 16.296 12.284 16.9588 12.5483C17.3662 11.7429 18.1923 11.2355 19.0948 11.2363L16.6948 11.2363C16.0004 11.2355 15.34 11.5372 14.886 12.0627Z" fill="white"/>
<path d="M7.89485 43.8894C8.15037 43.9863 8.42159 44.0351 8.69485 44.0334C9.11717 44.0316 9.53137 43.9172 9.89485 43.7022C9.15404 43.2766 8.69728 42.4874 8.69728 41.633C8.69728 40.7787 9.15404 39.9895 9.89485 39.5638C9.53133 39.349 9.11711 39.2349 8.69485 39.2334C8.42159 39.2317 8.15037 39.2806 7.89485 39.3774C6.93639 39.7132 6.29469 40.6179 6.29469 41.6334C6.29469 42.649 6.93639 43.5537 7.89485 43.8894Z" fill="white"/>
<path d="M3.04691 37.4651L3.90771 36.7275C3.90771 36.6955 3.89491 36.6659 3.89491 36.6331V29.0331C3.89491 29.0035 3.90611 28.9795 3.90851 28.9531L3.04691 28.2027C2.80608 28.0368 2.50273 27.9896 2.22291 28.0747C1.78879 28.1899 1.48869 28.5856 1.49491 29.0347V36.6347C1.49508 37.0028 1.69775 37.3409 2.02229 37.5146C2.34684 37.6882 2.7406 37.6692 3.04691 37.4651Z" fill="white"/>
<path d="M32.9949 47.9994H16.9949C15.2276 47.9994 13.7949 46.5667 13.7949 44.7994V25.9834C13.7949 25.5416 14.153 25.1834 14.5949 25.1834C15.0367 25.1834 15.3949 25.5416 15.3949 25.9834V44.7994C15.3949 45.6831 16.1112 46.3994 16.9949 46.3994H32.9949C33.8785 46.3994 34.5949 45.6831 34.5949 44.7994V26.3994H31.5837L25.3525 29.5194C25.0444 29.6738 24.6721 29.6135 24.4284 29.3699C24.1848 29.1262 24.1245 28.7539 24.2789 28.4458L27.3949 22.2106V17.5994C27.3949 16.2739 28.4694 15.1994 29.7949 15.1994H34.5949V13.5994C34.5949 12.7158 33.8785 11.9994 32.9949 11.9994H16.9949C16.3937 11.9969 15.843 12.335 15.5733 12.8722C15.45 13.1366 15.1927 13.3129 14.9016 13.3324C14.6106 13.3519 14.3321 13.2114 14.1747 12.9658C14.0173 12.7203 14.006 12.4085 14.1453 12.1522C14.6855 11.0745 15.7893 10.3955 16.9949 10.3994H32.9949C34.7622 10.3994 36.1949 11.8321 36.1949 13.5994V15.9994C36.1949 16.4413 35.8367 16.7994 35.3949 16.7994H29.7949C29.353 16.7994 28.9949 17.1576 28.9949 17.5994V22.3994C28.9962 22.5232 28.9689 22.6456 28.9149 22.757L26.7877 27.0106L31.0413 24.8834C31.1511 24.8287 31.2721 24.7999 31.3949 24.7994H35.3949C35.8367 24.7994 36.1949 25.1576 36.1949 25.5994V44.7994C36.1949 46.5667 34.7622 47.9994 32.9949 47.9994Z" fill="#428DFF"/>
<path d="M35.3949 41.6H14.5949C14.153 41.6 13.7949 41.2418 13.7949 40.8C13.7949 40.3582 14.153 40 14.5949 40H35.3949C35.8367 40 36.1949 40.3582 36.1949 40.8C36.1949 41.2418 35.8367 41.6 35.3949 41.6Z" fill="#428DFF"/>
<path d="M26.5948 15.2006H23.3948C22.953 15.2006 22.5948 14.8424 22.5948 14.4006C22.5948 13.9588 22.953 13.6006 23.3948 13.6006H26.5948C27.0367 13.6006 27.3948 13.9588 27.3948 14.4006C27.3948 14.8424 27.0367 15.2006 26.5948 15.2006Z" fill="#428DFF"/>
<path d="M26.5948 44.8002H23.3948C22.953 44.8002 22.5948 44.442 22.5948 44.0002C22.5948 43.5584 22.953 43.2002 23.3948 43.2002H26.5948C27.0367 43.2002 27.3948 43.5584 27.3948 44.0002C27.3948 44.442 27.0367 44.8002 26.5948 44.8002Z" fill="#428DFF"/>
<path d="M24.9989 41.3482C23.7642 41.3495 22.73 40.4138 22.6081 39.1851C22.4862 37.9565 23.3164 36.8358 24.5272 36.5945C25.7381 36.3531 26.9345 37.0699 27.293 38.2514C27.6514 39.433 27.0549 40.6936 25.9141 41.1658C25.6239 41.2858 25.3129 41.3478 24.9989 41.3482ZM24.9941 38.1482C24.8895 38.148 24.7858 38.1687 24.6893 38.209C24.3091 38.3663 24.1102 38.7865 24.2296 39.1803C24.349 39.5741 24.7477 39.8131 25.1513 39.7328C25.5549 39.6525 25.8318 39.2791 25.7913 38.8696C25.7509 38.4601 25.4064 38.148 24.9949 38.1482H24.9941Z" fill="#428DFF"/>
<path d="M24.9989 41.3482C23.7642 41.3495 22.73 40.4138 22.6081 39.1851C22.4862 37.9565 23.3164 36.8358 24.5272 36.5945C25.7381 36.3531 26.9345 37.0699 27.293 38.2514C27.6514 39.433 27.0549 40.6936 25.9141 41.1658C25.6239 41.2858 25.3129 41.3478 24.9989 41.3482ZM24.9941 38.1482C24.8895 38.148 24.7858 38.1687 24.6893 38.209C24.3091 38.3663 24.1102 38.7865 24.2296 39.1803C24.349 39.5741 24.7477 39.8131 25.1513 39.7328C25.5549 39.6525 25.8318 39.2791 25.7913 38.8696C25.7509 38.4601 25.4064 38.148 24.9949 38.1482H24.9941Z" fill="#428DFF"/>
<path d="M17.026 41.5999C16.7321 41.5997 16.4619 41.4383 16.3225 41.1795C16.183 40.9208 16.1966 40.6064 16.358 40.3607C16.6169 39.9646 16.991 39.6574 17.43 39.4807L17.8028 39.3255C17.7884 39.0721 17.7884 38.8181 17.8028 38.5647L17.4252 38.4047C16.8352 38.1607 16.3668 37.6916 16.1236 37.1012C15.8803 36.5109 15.8824 35.848 16.1292 35.2591C16.6487 34.0498 18.038 33.4757 19.2596 33.9655L19.6412 34.1255C19.8107 33.9364 19.9905 33.7566 20.1796 33.5871L20.0244 33.2159C19.5237 31.9923 20.1014 30.5936 21.3196 30.0799C21.9151 29.8317 22.5861 29.8375 23.1772 30.0959C23.7572 30.3337 24.2168 30.7951 24.4524 31.3759L24.6124 31.7639C24.8672 31.7507 25.1224 31.7507 25.3772 31.7639L25.5372 31.3807C25.9063 30.4822 26.7814 29.8955 27.7528 29.8955C28.7242 29.8955 29.5994 30.4822 29.9684 31.3807C30.2207 31.9684 30.2193 32.6341 29.9644 33.2207L29.8132 33.5903C30.0036 33.7601 30.1844 33.9404 30.3548 34.1303L30.7292 33.9703C31.3227 33.7215 31.992 33.7262 32.582 33.9831C33.1672 34.2236 33.6296 34.6917 33.8628 35.2799C34.368 36.5038 33.7867 37.9056 32.5636 38.4127L32.1892 38.5727C32.2028 38.8261 32.2028 39.0801 32.1892 39.3335L32.5668 39.4935C32.9985 39.6707 33.3678 39.9723 33.6276 40.3599C33.8755 40.7257 33.7798 41.2233 33.414 41.4711C33.0482 41.719 32.5507 41.6233 32.3028 41.2575C32.2192 41.1311 32.1001 41.0323 31.9604 40.9735L31.0276 40.5879C30.6876 40.4471 30.4876 40.0925 30.5428 39.7287C30.6181 39.2129 30.6197 38.689 30.5476 38.1727C30.4988 37.8131 30.6981 37.4656 31.0332 37.3263L31.9532 36.9423C32.3585 36.7732 32.5516 36.309 32.386 35.9023C32.2157 35.4982 31.7544 35.3033 31.346 35.4631L30.43 35.8455C30.0948 35.9859 29.7071 35.8827 29.486 35.5943C29.1745 35.1776 28.803 34.8093 28.3836 34.5015C28.0819 34.2855 27.9683 33.8904 28.1092 33.5471L28.4932 32.6111C28.5778 32.4203 28.5778 32.2027 28.4932 32.0119C28.4157 31.8123 28.2609 31.6525 28.0639 31.5686C27.8669 31.4847 27.6444 31.4839 27.4468 31.5663C27.2514 31.6458 27.0963 31.8007 27.0164 31.9959L26.634 32.9303C26.4943 33.2715 26.1394 33.4731 25.7748 33.4183C25.2551 33.3421 24.7272 33.34 24.2068 33.4119C23.8473 33.4598 23.5006 33.2598 23.362 32.9247L22.9788 31.9967C22.802 31.5966 22.3411 31.4071 21.934 31.5671C21.5308 31.7444 21.341 32.2096 21.5052 32.6183L21.8876 33.5343C22.029 33.8724 21.9225 34.2634 21.6292 34.4831C21.2118 34.7967 20.8407 35.1675 20.5268 35.5847C20.3082 35.878 19.9186 35.9857 19.5804 35.8463L18.6516 35.4623C18.4599 35.3819 18.2436 35.3837 18.0532 35.4671C17.8529 35.5413 17.6921 35.695 17.6092 35.8919C17.5259 36.0881 17.5243 36.3094 17.6048 36.5068C17.6853 36.7041 17.8413 36.8612 18.038 36.9431L18.9668 37.3279C19.3065 37.4687 19.5065 37.8228 19.4516 38.1863C19.376 38.699 19.376 39.22 19.4516 39.7327C19.5059 40.0962 19.3056 40.4499 18.966 40.5903L18.038 40.9743C17.8986 41.0289 17.7795 41.1253 17.6972 41.2503C17.5462 41.472 17.2942 41.6033 17.026 41.5999ZM24.9988 41.3479C23.7641 41.3492 22.7299 40.4135 22.608 39.1849C22.4861 37.9562 23.3163 36.8355 24.5272 36.5942C25.738 36.3529 26.9345 37.0696 27.2929 38.2512C27.6513 39.4327 27.0549 40.6934 25.914 41.1655C25.6238 41.2856 25.3129 41.3476 24.9988 41.3479ZM24.9948 38.1479C24.8902 38.1477 24.7866 38.1684 24.69 38.2087C24.3097 38.3661 24.1109 38.7864 24.2304 39.1802C24.3499 39.5741 24.7488 39.813 25.1524 39.7325C25.5561 39.6519 25.8327 39.2783 25.792 38.8687C25.7513 38.4592 25.4064 38.1473 24.9948 38.1479Z" fill="#428DFF"/>
<path d="M28.1948 9.5998C27.753 9.5998 27.3948 9.24163 27.3948 8.7998V6.3998H8.99482C8.553 6.3998 8.19482 6.04163 8.19482 5.5998C8.19482 5.15798 8.553 4.7998 8.99482 4.7998H28.1948C28.6366 4.7998 28.9948 5.15798 28.9948 5.5998V8.7998C28.9948 9.24163 28.6366 9.5998 28.1948 9.5998Z" fill="#428DFF"/>
<path d="M21.7948 9.5998C21.353 9.5998 20.9948 9.24163 20.9948 8.7998V5.5998C20.9948 5.15798 21.353 4.7998 21.7948 4.7998C22.2367 4.7998 22.5948 5.15798 22.5948 5.5998V8.7998C22.5948 9.24163 22.2367 9.5998 21.7948 9.5998Z" fill="#428DFF"/>
<path d="M24.9948 8.7998C24.553 8.7998 24.1949 8.44163 24.1949 7.9998V5.5998C24.1949 5.15798 24.553 4.7998 24.9948 4.7998C25.4367 4.7998 25.7948 5.15798 25.7948 5.5998V7.9998C25.7948 8.44163 25.4367 8.7998 24.9948 8.7998Z" fill="#428DFF"/>
<path d="M29.7949 6.39981H28.1949C27.7531 6.39981 27.3949 6.04163 27.3949 5.59981C27.3949 5.15798 27.7531 4.7998 28.1949 4.7998H29.7949C30.2367 4.7998 30.5949 5.15798 30.5949 5.59981C30.5949 6.04163 30.2367 6.39981 29.7949 6.39981Z" fill="#428DFF"/>
<path d="M8.99492 44.8004C7.22761 44.8004 5.79492 43.3677 5.79492 41.6004C5.79492 39.8331 7.22761 38.4004 8.99492 38.4004C10.7622 38.4004 12.1949 39.8331 12.1949 41.6004C12.1949 43.3677 10.7622 44.8004 8.99492 44.8004ZM8.99492 40.0004C8.11127 40.0004 7.39492 40.7167 7.39492 41.6004C7.39492 42.4841 8.11127 43.2004 8.99492 43.2004C9.87858 43.2004 10.5949 42.4841 10.5949 41.6004C10.5949 40.7167 9.87858 40.0004 8.99492 40.0004Z" fill="#428DFF"/>
<path d="M2.79487 38.3995C1.80087 38.3978 0.995753 37.5919 0.994873 36.5979V28.9979C0.995707 28.3342 1.36177 27.7247 1.94734 27.4122C2.53292 27.0997 3.24297 27.1348 3.79487 27.5035C3.82276 27.5227 3.84947 27.5436 3.87487 27.5659L8.24207 31.3667C8.7155 31.7047 8.9965 32.2506 8.9965 32.8323C8.9965 33.414 8.7155 33.9599 8.24207 34.2979L3.87007 38.0379C3.84451 38.0586 3.8178 38.0778 3.79007 38.0955C3.49569 38.293 3.14937 38.3988 2.79487 38.3995ZM2.79487 28.7995C2.76126 28.8001 2.72829 28.8089 2.69887 28.8251C2.63193 28.8577 2.59052 28.9267 2.59327 29.0011V36.6011C2.59351 36.6691 2.62817 36.7324 2.68534 36.7692C2.74252 36.8061 2.81445 36.8114 2.87647 36.7835L7.22927 33.0555C7.25453 33.0344 7.28126 33.0152 7.30927 32.9979C7.3649 32.9608 7.39832 32.8984 7.39832 32.8315C7.39832 32.7647 7.3649 32.7022 7.30927 32.6651C7.28125 32.6461 7.25452 32.6253 7.22927 32.6027L2.87727 28.8179C2.85206 28.8058 2.82445 28.7995 2.79647 28.7995H2.79487Z" fill="#428DFF"/>
<path d="M46.5949 26.3992H35.3949C34.953 26.3992 34.5948 26.041 34.5948 25.5992C34.5948 25.1574 34.953 24.7992 35.3949 24.7992H46.5949C47.0367 24.7992 47.3949 24.441 47.3949 23.9992V17.5992C47.3949 17.1574 47.0367 16.7992 46.5949 16.7992H35.3949C34.953 16.7992 34.5948 16.441 34.5948 15.9992C34.5948 15.5574 34.953 15.1992 35.3949 15.1992H46.5949C47.9204 15.1992 48.9949 16.2737 48.9949 17.5992V23.9992C48.9949 25.3247 47.9204 26.3992 46.5949 26.3992Z" fill="#428DFF"/>
<path d="M24.9949 29.5992C24.7176 29.5993 24.46 29.4559 24.3141 29.22C24.1683 28.9842 24.1549 28.6897 24.2789 28.4416L27.3949 22.2104V17.5992C27.3949 16.2737 28.4694 15.1992 29.7949 15.1992H35.3949C35.8367 15.1992 36.1949 15.5574 36.1949 15.9992C36.1949 16.441 35.8367 16.7992 35.3949 16.7992H29.7949C29.3531 16.7992 28.9949 17.1574 28.9949 17.5992V22.3992C28.9963 22.523 28.9689 22.6454 28.9149 22.7568L26.7877 27.0104L31.0413 24.8832C31.1512 24.8285 31.2721 24.7997 31.3949 24.7992H35.3949C35.8367 24.7992 36.1949 25.1574 36.1949 25.5992C36.1949 26.041 35.8367 26.3992 35.3949 26.3992H31.5837L25.3525 29.5192C25.241 29.5729 25.1186 29.6003 24.9949 29.5992Z" fill="#428DFF"/>
<path d="M32.9948 20.0004H31.3948C30.953 20.0004 30.5948 19.6422 30.5948 19.2004C30.5948 18.7586 30.953 18.4004 31.3948 18.4004H32.9948C33.4367 18.4004 33.7948 18.7586 33.7948 19.2004C33.7948 19.6422 33.4367 20.0004 32.9948 20.0004Z" fill="#428DFF"/>
<path d="M44.1949 20.0004H36.9949C36.553 20.0004 36.1949 19.6422 36.1949 19.2004C36.1949 18.7586 36.553 18.4004 36.9949 18.4004H44.1949C44.6367 18.4004 44.9949 18.7586 44.9949 19.2004C44.9949 19.6422 44.6367 20.0004 44.1949 20.0004Z" fill="#428DFF"/>
<path d="M12.1948 12.8002C10.6391 12.8058 9.13786 13.3741 7.96843 14.4002C6.69558 15.5206 5.92034 17.101 5.8135 18.7933C5.70666 20.4857 6.27699 22.151 7.39883 23.4226C8.612 24.8016 10.3581 25.5944 12.1948 25.6002V27.2002C9.89995 27.1965 7.71697 26.2082 6.2 24.4862C4.68303 22.7642 3.97792 20.474 4.26363 18.197C4.50323 16.2644 5.44513 14.4873 6.91003 13.2042C8.37158 11.9195 10.2489 11.2076 12.1948 11.2002V12.8002Z" fill="white"/>
<path d="M8.40047 13.0898C8.62017 13.4421 9.06163 13.585 9.44607 13.4282C10.3045 13.0178 11.2434 12.8033 12.1949 12.8002V11.2002C11.0043 11.2033 9.82926 11.4711 8.75487 11.9842C8.54978 12.0715 8.39279 12.2437 8.32475 12.4559C8.25671 12.6682 8.28435 12.8995 8.40047 13.0898Z" fill="#428DFF"/>
<path d="M12.1949 27.1993V25.5993C10.3588 25.5946 8.6128 24.8033 7.39891 23.4257C6.18047 22.0529 5.61619 20.2197 5.85171 18.3993C5.87886 18.1639 5.92189 17.9305 5.98051 17.7009C6.05419 17.2927 5.82314 16.8907 5.43331 16.7489C5.22278 16.6745 4.99029 16.6955 4.79652 16.8065C4.60275 16.9174 4.46693 17.1073 4.42451 17.3265C4.3531 17.6141 4.29967 17.9059 4.26451 18.2001C3.98005 20.4764 4.68563 22.7653 6.20228 24.4863C7.71893 26.2074 9.90095 27.1952 12.1949 27.1993Z" fill="#428DFF"/>
<path d="M7.22682 15.168C7.34842 15.017 7.40843 14.8255 7.39482 14.632L7.36842 14.4792C7.35561 14.4265 7.33654 14.3755 7.31162 14.3272C7.29564 14.2796 7.27273 14.2346 7.24362 14.1936C7.21305 14.1497 7.17936 14.108 7.14282 14.0688C6.99332 13.9163 6.78572 13.8351 6.57242 13.8456C6.09514 13.8957 5.74778 14.3216 5.79482 14.7992C5.81165 14.9058 5.8527 15.0071 5.91482 15.0952C5.97292 15.1834 6.04831 15.2587 6.13642 15.3168C6.31443 15.4246 6.52349 15.4694 6.73002 15.444C6.92573 15.4217 7.1045 15.3224 7.22682 15.168Z" fill="#428DFF"/>
<path d="M12.1949 27.2002C11.753 27.2002 11.3949 26.842 11.3949 26.4002C11.3949 25.9584 11.753 25.6002 12.1949 25.6002C15.7295 25.6002 18.5949 22.7348 18.5949 19.2002C18.5949 15.6656 15.7295 12.8002 12.1949 12.8002C11.753 12.8002 11.3949 12.442 11.3949 12.0002C11.3949 11.5584 11.753 11.2002 12.1949 11.2002C16.6131 11.2002 20.1949 14.7819 20.1949 19.2002C20.1949 23.6185 16.6131 27.2002 12.1949 27.2002Z" fill="#428DFF"/>
<path d="M12.1949 23.1997C10.7667 23.1988 9.44738 22.4365 8.7333 21.1997C8.59039 20.9519 8.59054 20.6467 8.73369 20.399C8.87683 20.1514 9.14123 19.9989 9.42729 19.999C9.71334 19.9992 9.97759 20.1519 10.1205 20.3997C10.5477 21.1417 11.3387 21.5991 12.1949 21.5991C13.0511 21.5991 13.8421 21.1417 14.2693 20.3997C14.4122 20.1519 14.6765 19.9992 14.9625 19.999C15.2486 19.9989 15.513 20.1514 15.6561 20.399C15.7993 20.6467 15.7994 20.9519 15.6565 21.1997C14.9424 22.4365 13.6231 23.1988 12.1949 23.1997Z" fill="#428DFF"/>
<path d="M14.5949 24C14.3224 24.0003 14.0686 23.8619 13.9213 23.6328L13.1301 22.4C12.9733 22.1596 12.9573 21.8537 13.0882 21.5983C13.2191 21.3429 13.4767 21.1771 13.7634 21.1639C14.0501 21.1507 14.3219 21.2921 14.4757 21.5344L15.2677 22.7664C15.4264 23.0126 15.4379 23.3259 15.2977 23.5831C15.1574 23.8403 14.8878 24.0002 14.5949 24Z" fill="#428DFF"/>
<path d="M38.5949 6.39922C38.153 6.39922 37.7949 6.04105 37.7949 5.59922V3.99922C37.7949 3.55739 38.153 3.19922 38.5949 3.19922C39.0367 3.19922 39.3949 3.55739 39.3949 3.99922V5.59922C39.3949 6.04105 39.0367 6.39922 38.5949 6.39922Z" fill="#428DFF"/>
<path d="M36.9949 8.00039H35.3948C34.953 8.00039 34.5948 7.64222 34.5948 7.20039C34.5948 6.75856 34.953 6.40039 35.3948 6.40039H36.9949C37.4367 6.40039 37.7949 6.75856 37.7949 7.20039C37.7949 7.64222 37.4367 8.00039 36.9949 8.00039Z" fill="#428DFF"/>
<path d="M38.5949 11.2C38.153 11.2 37.7949 10.8418 37.7949 10.4V8.8C37.7949 8.35817 38.153 8 38.5949 8C39.0367 8 39.3949 8.35817 39.3949 8.8V10.4C39.3949 10.8418 39.0367 11.2 38.5949 11.2Z" fill="#428DFF"/>
<path d="M41.7949 8.00039H40.1949C39.7531 8.00039 39.3949 7.64222 39.3949 7.20039C39.3949 6.75856 39.7531 6.40039 40.1949 6.40039H41.7949C42.2367 6.40039 42.5949 6.75856 42.5949 7.20039C42.5949 7.64222 42.2367 8.00039 41.7949 8.00039Z" fill="#428DFF"/>
<path d="M8.19491 6.4C7.32952 6.39953 6.50122 6.04859 5.89891 5.4272C5.71222 5.23363 5.63527 4.95921 5.69411 4.6968C5.44699 4.62581 5.24905 4.44037 5.16211 4.1984C5.04918 3.87774 4.99261 3.53996 4.99491 3.2C4.99491 1.43269 6.4276 0 8.19491 0C9.96222 0 11.3949 1.43269 11.3949 3.2C11.3949 4.96731 9.96222 6.4 8.19491 6.4ZM6.69571 4.1032C6.83067 4.14177 6.95297 4.21548 7.05011 4.3168C7.58469 4.86431 8.43211 4.95665 9.07208 4.53714C9.71204 4.11763 9.96538 3.30372 9.67656 2.59511C9.38774 1.8865 8.63761 1.48159 7.88673 1.62898C7.13585 1.77637 6.59444 2.43479 6.59491 3.2C6.59286 3.35564 6.61776 3.51046 6.66851 3.6576C6.71968 3.80054 6.72911 3.9551 6.69571 4.1032Z" fill="#428DFF"/>
<path d="M8.19491 11.1999C6.4276 11.1999 4.99491 9.76721 4.99491 7.99989C4.99261 7.65994 5.04918 7.32215 5.16211 7.00149C5.24905 6.75952 5.44699 6.57408 5.69411 6.50309C5.63527 6.24068 5.71222 5.96626 5.89891 5.77269C6.91141 4.72813 8.50107 4.49795 9.76826 5.21242C11.0355 5.92689 11.6613 7.40619 11.2916 8.81316C10.9219 10.2201 9.64965 11.2007 8.19491 11.1999ZM6.69571 7.09669C6.72911 7.2448 6.71968 7.39935 6.66851 7.54229C6.61776 7.68944 6.59286 7.84426 6.59491 7.99989C6.59597 8.7648 7.13828 9.42197 7.88908 9.56818C8.63989 9.71438 9.38916 9.30872 9.67716 8.60011C9.96517 7.89149 9.71133 7.07814 9.07141 6.65911C8.43149 6.24009 7.58448 6.3326 7.05011 6.87989C6.95335 6.98238 6.83101 7.05722 6.69571 7.09669Z" fill="#428DFF"/>
<path d="M4.19487 8.80039C2.42756 8.80039 0.994873 7.3677 0.994873 5.60039C0.994873 3.83308 2.42756 2.40039 4.19487 2.40039C5.96218 2.40039 7.39487 3.83308 7.39487 5.60039C7.39487 6.44908 7.05773 7.26302 6.45762 7.86313C5.8575 8.46325 5.04357 8.80039 4.19487 8.80039ZM4.19487 4.00039C3.31122 4.00039 2.59487 4.71674 2.59487 5.60039C2.59487 6.48405 3.31122 7.20039 4.19487 7.20039C5.07853 7.20039 5.79487 6.48405 5.79487 5.60039C5.79487 5.17604 5.6263 4.76908 5.32624 4.46902C5.02619 4.16896 4.61922 4.00039 4.19487 4.00039Z" fill="#428DFF"/>
<path d="M9.79483 18.3998C10.2367 18.3998 10.5948 18.0416 10.5948 17.5998C10.5948 17.158 10.2367 16.7998 9.79483 16.7998C9.353 16.7998 8.99483 17.158 8.99483 17.5998C8.99483 18.0416 9.353 18.3998 9.79483 18.3998Z" fill="#428DFF"/>
<path d="M14.5949 18.3998C15.0367 18.3998 15.3949 18.0416 15.3949 17.5998C15.3949 17.158 15.0367 16.7998 14.5949 16.7998C14.153 16.7998 13.7949 17.158 13.7949 17.5998C13.7949 18.0416 14.153 18.3998 14.5949 18.3998Z" fill="#428DFF"/>
</g>
<defs>
<linearGradient id="paint0_linear" x1="11.7477" y1="15.4554" x2="40.7197" y2="25.5318" gradientUnits="userSpaceOnUse">
<stop stop-color="#D3DFF2"/>
<stop offset="0.172" stop-color="#D3DFF2"/>
<stop offset="0.2" stop-color="#DAE2F2"/>
<stop offset="0.201" stop-color="#F6EFF2"/>
<stop offset="0.202" stop-color="#FDF2F2"/>
<stop offset="0.205" stop-color="#FFF3F2"/>
<stop offset="0.252" stop-color="#FFF3F2"/>
<stop offset="0.26" stop-color="#D3DFF2"/>
<stop offset="0.397" stop-color="#D3DFF2"/>
<stop offset="0.42" stop-color="#DAE2F2"/>
<stop offset="0.421" stop-color="#F6EFF2"/>
<stop offset="0.422" stop-color="#FDF2F2"/>
<stop offset="0.425" stop-color="#FFF3F2"/>
<stop offset="0.489" stop-color="#FFF3F2"/>
<stop offset="0.5" stop-color="#D5E0F2"/>
<stop offset="0.501" stop-color="#D3DFF2"/>
<stop offset="0.706" stop-color="#D3DFF2"/>
<stop offset="0.74" stop-color="#D3DFF2"/>
<stop offset="0.741" stop-color="#FFF3F2"/>
<stop offset="0.835" stop-color="#FFF3F2"/>
<stop offset="0.85" stop-color="#FFF3F2"/>
<stop offset="0.851" stop-color="#D3DFF2"/>
</linearGradient>
<clipPath id="clip0">
<rect x="0.994873" width="48" height="48" fill="white"/>
</clipPath>
</defs>
</svg>
